<?xml version="1.0" encoding="utf-8"?>
<!-- Generator: Adobe Illustrator 19.1.0, SVG Export Plug-In . SVG Version: 6.00 Build 0)  -->
<svg version="1.1" id="Layer_1" xmlns="http://www.w3.org/2000/svg" xmlns:xlink="http://www.w3.org/1999/xlink" x="0px" y="0px"
	 viewBox="0 0 273 70" style="enable-background:new 0 0 273 70;" xml:space="preserve">
<style type="text/css">
	.st0{fill:#8D0302;}
	.st1{fill:#FFFFFF;}
</style>
<g>
	<circle class="st0" cx="27.5" cy="35" r="25"/>
	<g>
		<g>
			<path class="st1" d="M18.4,35.3c0.6,0,1.1,0.4,1.3,1h0.1c0.4-0.6,0.8-1,1.4-1c1,0,1.5,0.8,1.5,2.1v3.2c0,0.1-0.1,0.2-0.2,0.2h-1
				c-0.1,0-0.2-0.1-0.2-0.2v-3c0-0.6-0.2-1-0.7-1c-0.5,0-0.8,0.4-0.8,1.1v2.9c0,0.1-0.1,0.2-0.2,0.2h-1c-0.1,0-0.2-0.1-0.2-0.2v-3
				c0-0.6-0.2-1-0.7-1c-0.5,0-0.8,0.4-0.8,1.1v2.9c0,0.1-0.1,0.2-0.2,0.2h-1c-0.1,0-0.2-0.1-0.2-0.2v-5c0-0.1,0.1-0.2,0.2-0.2h0.8
				c0.1,0,0.2,0.1,0.2,0.2l0.1,0.6h0.1C17.4,35.6,17.8,35.3,18.4,35.3z"/>
			<path class="st1" d="M27.7,35.5v5c0,0.1-0.1,0.2-0.2,0.2h-0.8c-0.1,0-0.2-0.1-0.2-0.2l-0.1-0.6h-0.1c-0.2,0.6-0.7,0.9-1.3,0.9
				c-1,0-1.5-0.8-1.5-2.1v-3.2c0-0.1,0.1-0.2,0.2-0.2h1c0.1,0,0.2,0.1,0.2,0.2v3.1c0,0.6,0.2,0.9,0.7,0.9c0.5,0,0.8-0.4,0.8-1.1
				v-2.9c0-0.1,0.1-0.2,0.2-0.2h1C27.6,35.4,27.7,35.5,27.7,35.5z"/>
			<path class="st1" d="M31,36.9c-0.1-0.4-0.3-0.6-0.7-0.6c-0.4,0-0.6,0.2-0.6,0.5c0,0.3,0.2,0.4,0.6,0.5l0.7,0.2
				c0.9,0.2,1.3,0.8,1.3,1.5c0,1-0.9,1.7-2,1.7c-1,0-1.9-0.5-2.1-1.7c0-0.1,0-0.2,0.1-0.2l0.9-0.2c0.1,0,0.2,0,0.2,0.2
				c0.1,0.6,0.4,0.8,0.8,0.8c0.4,0,0.7-0.2,0.7-0.6c0-0.3-0.2-0.5-0.6-0.6l-0.6-0.1c-1.1-0.3-1.5-0.8-1.5-1.6c0-1,0.9-1.6,1.9-1.6
				c1.1,0,1.7,0.6,1.9,1.4c0,0.1,0,0.2-0.1,0.2L31.2,37C31.1,37,31,37,31,36.9z"/>
			<path class="st1" d="M33.6,33.4c0.4,0,0.8,0.3,0.8,0.8c0,0.5-0.4,0.8-0.8,0.8c-0.4,0-0.8-0.3-0.8-0.8
				C32.9,33.7,33.2,33.4,33.6,33.4z M33,40.5v-5c0-0.1,0.1-0.2,0.2-0.2h1c0.1,0,0.2,0.1,0.2,0.2v5c0,0.1-0.1,0.2-0.2,0.2h-1
				C33,40.7,33,40.6,33,40.5z"/>
			<path class="st1" d="M39.3,39c-0.2,1.1-1.1,1.8-2.1,1.8c-1.3,0-2.3-1.2-2.3-2.8c0-1.6,1-2.8,2.3-2.8c1,0,1.8,0.6,2.1,1.8
				c0,0.1,0,0.2-0.1,0.2l-0.9,0.2c-0.1,0-0.2,0-0.2-0.1c-0.1-0.6-0.4-0.9-0.8-0.9c-0.6,0-0.9,0.6-0.9,1.7c0,1.1,0.3,1.7,0.9,1.7
				c0.4,0,0.7-0.3,0.8-0.9c0-0.1,0.1-0.2,0.2-0.1l0.9,0.2C39.3,38.8,39.3,38.9,39.3,39z"/>
			<path class="st1" d="M33,43.3c0.1,0.1,0.2,0.1,0.5,0.1c0.8-0.2,1.7-0.2,1.9,0.1c0.2,0.2-0.2,1.1-0.6,1.8
				c-0.2,0.3-0.2,0.4-0.1,0.5c0,0,0.1,0.1,0.1,0.1c0.2,0,0.4-0.2,0.5-0.3c0.4-0.4,0.7-0.8,0.9-1.3c0.2-0.5,0.3-1.2,0.1-1.4
				c-0.2-0.2-0.8-0.4-1.4-0.4c-0.5,0-1.1,0.1-1.5,0.4C33.2,43,32.9,43.1,33,43.3L33,43.3z"/>
			<path class="st1" d="M18.9,43.1c0,0.1,0.1,0.3,0.3,0.5c2,2.4,5.1,3.5,8.1,3.5c2.7,0,5.2-0.8,6.9-2.2c0.3-0.2,0.4-0.4,0.4-0.6
				c0-0.1,0-0.1-0.1-0.2c-0.1-0.1-0.4,0-0.6,0.1c-1.5,0.8-3.8,1.3-6.3,1.3c-2.8,0-5.8-0.7-8.1-2.5c-0.2-0.2-0.5-0.3-0.6-0.2
				C18.9,42.8,18.8,42.9,18.9,43.1L18.9,43.1z"/>
			<path class="st1" d="M13.6,32.5c-0.9,0-1.5-0.6-1.5-1.6c0-1.1,0.9-1.9,2.3-1.9c0.2,0,0.4,0,0.5,0v-0.1c0-0.6-0.2-1-0.7-1
				c-0.4,0-0.6,0.2-0.7,0.6c0,0.1-0.1,0.2-0.2,0.2l-0.9-0.2c-0.1,0-0.2-0.1-0.1-0.2c0.2-0.9,1-1.4,2.1-1.4c1.3,0,2,0.7,2,2v3.2
				c0,0.1-0.1,0.2-0.2,0.2h-0.8c-0.1,0-0.2-0.1-0.2-0.2L15,31.6h-0.1C14.7,32.2,14.2,32.5,13.6,32.5z M14.1,31.5
				c0.5,0,0.8-0.5,0.8-1.4v-0.3c-0.1,0-0.2,0-0.3,0c-0.7,0-1.1,0.4-1.1,1C13.5,31.2,13.7,31.5,14.1,31.5z"/>
			<path class="st1" d="M19.7,27c0.6,0,1.1,0.4,1.3,1h0.1c0.4-0.6,0.8-1,1.4-1c1,0,1.5,0.8,1.5,2.1v3.2c0,0.1-0.1,0.2-0.2,0.2h-1
				c-0.1,0-0.2-0.1-0.2-0.2v-3c0-0.6-0.2-1-0.7-1c-0.5,0-0.8,0.4-0.8,1.1v2.9c0,0.1-0.1,0.2-0.2,0.2h-1c-0.1,0-0.2-0.1-0.2-0.2v-3
				c0-0.6-0.2-1-0.7-1c-0.5,0-0.8,0.4-0.8,1.1v2.9c0,0.1-0.1,0.2-0.2,0.2h-1c-0.1,0-0.2-0.1-0.2-0.2v-5c0-0.1,0.1-0.2,0.2-0.2h0.8
				c0.1,0,0.2,0.1,0.2,0.2l0.1,0.6h0.1C18.7,27.3,19.1,27,19.7,27z"/>
			<path class="st1" d="M26.2,32.5c-0.9,0-1.5-0.6-1.5-1.6c0-1.1,0.9-1.9,2.3-1.9c0.2,0,0.4,0,0.5,0v-0.1c0-0.6-0.2-1-0.7-1
				c-0.4,0-0.6,0.2-0.7,0.6c0,0.1-0.1,0.2-0.2,0.2l-0.9-0.2c-0.1,0-0.2-0.1-0.1-0.2c0.2-0.9,1-1.4,2.1-1.4c1.3,0,2,0.7,2,2v3.2
				c0,0.1-0.1,0.2-0.2,0.2h-0.8c-0.1,0-0.2-0.1-0.2-0.2l-0.1-0.6h-0.1C27.3,32.2,26.8,32.5,26.2,32.5z M26.7,31.5
				c0.5,0,0.8-0.5,0.8-1.4v-0.3c-0.1,0-0.2,0-0.3,0c-0.7,0-1.1,0.4-1.1,1C26,31.2,26.3,31.5,26.7,31.5z"/>
			<path class="st1" d="M29.4,31.4c0-0.1,0-0.2,0.1-0.2l2.1-3.1h-1.9c-0.1,0-0.2-0.1-0.2-0.2v-0.7c0-0.1,0.1-0.2,0.2-0.2H33
				c0.1,0,0.2,0.1,0.2,0.2V28c0,0.1,0,0.2-0.1,0.2L31,31.3h2.1c0.1,0,0.2,0.1,0.2,0.2v0.7c0,0.1-0.1,0.2-0.2,0.2h-3.5
				c-0.1,0-0.2-0.1-0.2-0.2V31.4z"/>
			<path class="st1" d="M33.5,29.7c0-1.6,1-2.8,2.3-2.8c1.3,0,2.3,1.2,2.3,2.8c0,1.6-1,2.8-2.3,2.8C34.5,32.5,33.5,31.3,33.5,29.7z
				 M35.8,31.4c0.6,0,0.9-0.6,0.9-1.7c0-1.1-0.3-1.7-0.9-1.7c-0.6,0-0.9,0.6-0.9,1.7C34.9,30.8,35.2,31.4,35.8,31.4z"/>
			<path class="st1" d="M41.4,27c1,0,1.6,0.8,1.6,2.1v3.2c0,0.1-0.1,0.2-0.2,0.2h-1c-0.1,0-0.2-0.1-0.2-0.2v-3c0-0.6-0.3-1-0.7-1
				c-0.5,0-0.8,0.4-0.8,1.1v2.9c0,0.1-0.1,0.2-0.2,0.2h-1c-0.1,0-0.2-0.1-0.2-0.2v-5c0-0.1,0.1-0.2,0.2-0.2h0.8
				c0.1,0,0.2,0.1,0.2,0.2l0.1,0.6h0.1C40.3,27.3,40.8,27,41.4,27z"/>
		</g>
	</g>
</g>
<g>
	<path class="st1" d="M81.6,38.4l-1.8,4.1h-2l7.3-16.3h1.9l7.3,16.3h-2l-1.8-4.1H81.6z M86,28.3l-3.6,8.3h7.3L86,28.3z"/>
	<path class="st1" d="M111.7,42.5l0-13.5l-5.9,11.7h-1.1l-5.9-11.7v13.5h-1.8V26.2h2.3l6,11.8l5.9-11.8h2.3v16.3H111.7z"/>
	<path class="st1" d="M119.9,38.4l-1.8,4.1h-2l7.3-16.3h1.9l7.3,16.3h-2l-1.8-4.1H119.9z M124.3,28.3l-3.6,8.3h7.3L124.3,28.3z"/>
	<path class="st1" d="M136.2,40.8h10.9l0,1.8h-13.4V41l10.8-13H134v-1.8h13v1.5L136.2,40.8z"/>
	<path class="st1" d="M166.1,34.4c0,4.6-3.8,8.3-8.5,8.3c-4.8,0-8.6-3.7-8.6-8.3c0-4.6,3.8-8.2,8.6-8.2
		C162.4,26.2,166.1,29.8,166.1,34.4z M150.9,34.4c0,3.6,3,6.5,6.7,6.5s6.6-2.9,6.6-6.5s-3-6.4-6.6-6.4S150.9,30.8,150.9,34.4z"/>
	<path class="st1" d="M181.2,42.5l-9.8-13.1v13.1h-1.9V26.2h1.9l9.8,13.1V26.2h1.8v16.3H181.2z"/>
	<path class="st1" d="M209.3,42.5l0-13.5l-5.9,11.7h-1.1l-5.9-11.7v13.5h-1.8V26.2h2.3l6,11.8l5.9-11.8h2.3v16.3H209.3z"/>
	<path class="st1" d="M229.3,35.8c0,4.2-2.6,6.8-6.8,6.8c-4.3,0-6.9-2.6-6.9-6.8v-9.6h1.9v9.6c0,3.2,1.9,5,5,5c3.1,0,5-1.8,5-5v-9.6
		h1.9V35.8z"/>
	<path class="st1" d="M243.9,27.6l-0.8,1.8c-1.5-1-3.2-1.4-4.5-1.4c-2.1,0-3.5,0.8-3.5,2.2c0,4.2,9.2,2,9.2,7.9
		c0,2.7-2.4,4.5-5.9,4.5c-2.4,0-4.7-1-6.3-2.5l0.8-1.7c1.5,1.5,3.6,2.3,5.4,2.3c2.4,0,3.8-1,3.8-2.5c0-4.3-9.2-2-9.2-7.9
		c0-2.6,2.3-4.2,5.6-4.2C240.6,26.1,242.6,26.7,243.9,27.6z"/>
	<path class="st1" d="M248.1,42.5V26.2h1.9v16.3H248.1z"/>
	<path class="st1" d="M267.9,28.5l-1.1,1.4c-1.3-1.3-3-2.1-4.8-2.1c-3.7,0-6.6,2.8-6.6,6.4c0,3.6,3,6.4,6.6,6.4c1.8,0,3.5-0.7,4.8-2
		l1.1,1.3c-1.6,1.5-3.8,2.5-6.1,2.5c-4.7,0-8.4-3.7-8.4-8.3c0-4.6,3.8-8.2,8.5-8.2C264.2,26.2,266.3,27.1,267.9,28.5z"/>
</g>
</svg>
