<?xml version="1.0" encoding="utf-8"?>
<!-- Generator: Adobe Illustrator 19.1.0, SVG Export Plug-In . SVG Version: 6.00 Build 0)  -->
<svg version="1.1" id="Layer_1" xmlns="http://www.w3.org/2000/svg" xmlns:xlink="http://www.w3.org/1999/xlink" x="0px" y="0px"
	 viewBox="-465 267 28 28" style="enable-background:new -465 267 28 28;" xml:space="preserve">
<style type="text/css">
	.st0{fill:#FFFFFF;}
</style>
<g>
	<path class="st0" d="M2893.6,7982.9L2893.6,7982.9L2893.6,7982.9c-198.3,66.1-330.4,132.2-528.7,198.3l0,0l0,0
		c-66.1,0-132.2,0-132.2,66.1l0,0l0,0h-66.1h-66.1c0,0,0,0-66.1,0l0,0l0,0c-66.1,0-66.1,0-132.2,0s-66.1,0-132.2,0s-66.1,0-132.2,0
		h-66.1h-66.1l0,0c-66.1,0-66.1,0-132.2,66.1h-66.1c-66.1,0-132.2,0-264.3,66.1h-66.1H911H845c-66.1,0-198.3,0-264.3,66.1
		c0,0,0,0-66.1,0c0-1850.3,0-3634.6,0-5484.9c0-132.2,66.1-198.3,198.3-198.3c462.6,0,991.3,0,1453.8,0c66.1,0,132.2,0,132.2-132.2
		c66.1-726.9,198.3-1387.8,330.4-2114.7c0-132.2,0-198.3-132.2-198.3c-594.8,0-1189.5,0-1784.3,0c-132.2,0-132.2,0-132.2-132.2
		c0-528.7,0-1057.3,0-1519.9c0-528.7,330.4-793,859.1-793c396.5,0,726.9,0,1123.4,0c132.2,0,198.2,0,198.2-132.2
		c0-594.8,0-1189.5,0-1718.2c0-132.2-66.1-132.2-132.2-132.2c-660.8,0-1321.7,0-2048.6,0c-198.3,0-462.6,66.1-660.8,132.2
		c-991.3,330.4-1652.1,1255.6-1652.1,2312.9c0,660.8,0,1321.7,0,1982.5c0,132.2-66.1,132.2-132.2,132.2c-528.7,0-1123.4,0-1652.1,0
		c-132.2,0-132.2,66.1-132.2,132.2c0,726.9,0,1387.8,0,2114.7c0,132.2,66.1,132.2,132.2,132.2c528.7,0,1123.4,0,1652.1,0
		c132.2,0,198.3,66.1,198.3,198.3c0,1718.2,0,3502.4,0,5220.6c0,66.1,0,66.1,0,132.2s-66.1,132.2-132.2,66.1
		c-330.4-66.1-594.8-132.2-925.2-198.3c-660.8-198.3-1387.8-528.7-1982.5-925.2C-7349.4,5603.9-8737.1,3158.8-8605-13.2
		c132.2-3370.3,1784.3-5815.3,4824.1-7269.2c2180.8-925.2,4691.9-859.1,7004.9,396.5C5536.9-5696.4,6990.7-3780,7519.4-1202.7
		c594.8,2841.6-198.3,5418.8-2246.8,7533.5c-396.5,396.5-859.1,793-1387.8,1123.4l0,0l0,0c-66.1,0-132.2,66.1-132.2,132.2l0,0
		c0,0,0,0-66.1,0l0,0c0,0,0,0-66.1,0l0,0c-66.1,0-132.2,66.1-198.2,132.2l0,0c-66.1,0-132.2,66.1-132.2,66.1l0,0
		c-66.1,0-66.1,0-132.2,66.1l0,0l0,0c-66.1,0-66.1,0-132.2,66.1l0,0l0,0C2959.6,7916.8,2893.6,7982.9,2893.6,7982.9z"/>
</g>
<g>
	<path class="st0" d="M-459.3,280.4c0.6,0,1,0.3,1.2,0.9h0c0.3-0.6,0.8-0.9,1.3-0.9c0.9,0,1.4,0.7,1.4,1.9v2.9
		c0,0.1-0.1,0.2-0.2,0.2h-0.9c-0.1,0-0.2-0.1-0.2-0.2v-2.8c0-0.6-0.2-0.9-0.6-0.9c-0.5,0-0.7,0.4-0.7,1v2.6c0,0.1-0.1,0.2-0.2,0.2
		h-0.9c-0.1,0-0.2-0.1-0.2-0.2v-2.8c0-0.6-0.2-0.9-0.6-0.9c-0.5,0-0.7,0.4-0.7,1v2.6c0,0.1-0.1,0.2-0.2,0.2h-0.9
		c-0.1,0-0.2-0.1-0.2-0.2v-4.5c0-0.1,0.1-0.2,0.2-0.2h0.8c0.1,0,0.1,0.1,0.2,0.2l0.1,0.6h0C-460.2,280.7-459.8,280.4-459.3,280.4z"
		/>
	<path class="st0" d="M-450.9,280.7v4.5c0,0.1-0.1,0.2-0.2,0.2h-0.8c-0.1,0-0.1-0.1-0.2-0.2l-0.1-0.6h0c-0.2,0.5-0.6,0.8-1.2,0.8
		c-0.9,0-1.4-0.7-1.4-1.9v-2.9c0-0.1,0.1-0.2,0.2-0.2h0.9c0.1,0,0.2,0.1,0.2,0.2v2.8c0,0.5,0.2,0.8,0.6,0.8c0.5,0,0.7-0.3,0.7-1
		v-2.6c0-0.1,0.1-0.2,0.2-0.2h0.9C-450.9,280.5-450.9,280.6-450.9,280.7z"/>
	<path class="st0" d="M-447.9,281.9c-0.1-0.3-0.3-0.5-0.6-0.5s-0.5,0.2-0.5,0.4c0,0.2,0.2,0.4,0.5,0.5l0.7,0.2
		c0.8,0.2,1.2,0.7,1.2,1.4c0,0.9-0.8,1.6-1.8,1.6c-0.9,0-1.7-0.5-1.9-1.5c0-0.1,0-0.2,0.1-0.2l0.8-0.2c0.1,0,0.2,0,0.2,0.2
		c0.1,0.5,0.4,0.7,0.8,0.7c0.4,0,0.6-0.2,0.6-0.5c0-0.3-0.2-0.5-0.6-0.6l-0.5-0.1c-1-0.2-1.3-0.7-1.3-1.4c0-0.9,0.8-1.5,1.7-1.5
		c1,0,1.6,0.5,1.7,1.3c0,0.1,0,0.2-0.1,0.2l-0.8,0.1C-447.8,282-447.9,282-447.9,281.9z"/>
	<path class="st0" d="M-445.5,278.7c0.4,0,0.7,0.3,0.7,0.7c0,0.4-0.3,0.7-0.7,0.7c-0.4,0-0.7-0.3-0.7-0.7
		C-446.2,279-445.9,278.7-445.5,278.7z M-446.1,285.2v-4.5c0-0.1,0.1-0.2,0.2-0.2h0.9c0.1,0,0.2,0.1,0.2,0.2v4.5
		c0,0.1-0.1,0.2-0.2,0.2h-0.9C-446,285.3-446.1,285.3-446.1,285.2z"/>
	<path class="st0" d="M-440.3,283.8c-0.2,1-1,1.6-1.9,1.6c-1.2,0-2.1-1.1-2.1-2.5c0-1.4,0.9-2.5,2.1-2.5c0.9,0,1.7,0.6,1.9,1.6
		c0,0.1,0,0.2-0.1,0.2l-0.8,0.2c-0.1,0-0.2,0-0.2-0.1c-0.1-0.6-0.4-0.8-0.7-0.8c-0.5,0-0.8,0.5-0.8,1.5c0,1,0.3,1.5,0.8,1.5
		c0.3,0,0.6-0.3,0.7-0.8c0-0.1,0.1-0.1,0.2-0.1l0.8,0.2C-440.4,283.7-440.3,283.7-440.3,283.8z"/>
	<path class="st0" d="M-446.1,287.7c0.1,0.1,0.2,0.1,0.5,0.1c0.7-0.1,1.6-0.2,1.7,0c0.1,0.2-0.2,1-0.5,1.6c-0.1,0.2-0.2,0.4-0.1,0.5
		c0,0,0.1,0,0.1,0.1c0.1,0,0.3-0.1,0.5-0.3c0.4-0.3,0.6-0.7,0.8-1.2c0.2-0.4,0.2-1.1,0.1-1.3c-0.2-0.2-0.8-0.4-1.2-0.4
		c-0.5,0-1,0.1-1.4,0.3C-445.9,287.4-446.1,287.6-446.1,287.7L-446.1,287.7z"/>
	<path class="st0" d="M-458.9,287.5c0,0.1,0.1,0.3,0.3,0.4c1.8,2.2,4.6,3.1,7.4,3.1c2.4,0,4.7-0.7,6.2-2c0.3-0.2,0.4-0.4,0.4-0.5
		c0-0.1,0-0.1-0.1-0.1c-0.1-0.1-0.3,0-0.5,0.1c-1.4,0.7-3.5,1.2-5.7,1.2c-2.5,0-5.2-0.6-7.3-2.3c-0.2-0.2-0.4-0.3-0.6-0.2
		C-458.9,287.3-458.9,287.3-458.9,287.5L-458.9,287.5z"/>
	<path class="st0" d="M-463.6,277.9c-0.8,0-1.4-0.6-1.4-1.4c0-1,0.8-1.7,2.1-1.7c0.2,0,0.3,0,0.5,0v-0.1c0-0.6-0.2-0.9-0.7-0.9
		c-0.3,0-0.6,0.2-0.7,0.6c0,0.1-0.1,0.2-0.2,0.1l-0.8-0.1c-0.1,0-0.2-0.1-0.1-0.2c0.2-0.8,0.9-1.3,1.9-1.3c1.2,0,1.8,0.6,1.8,1.9
		v2.9c0,0.1-0.1,0.2-0.2,0.2h-0.8c-0.1,0-0.1-0.1-0.2-0.2l-0.1-0.5h0C-462.6,277.6-463,277.9-463.6,277.9z M-463.2,277
		c0.5,0,0.7-0.4,0.7-1.2v-0.3c-0.1,0-0.2,0-0.3,0c-0.6,0-1,0.4-1,0.9C-463.7,276.7-463.5,277-463.2,277z"/>
	<path class="st0" d="M-458.1,272.9c0.6,0,1,0.3,1.2,0.9h0c0.3-0.6,0.8-0.9,1.3-0.9c0.9,0,1.4,0.7,1.4,1.9v2.9
		c0,0.1-0.1,0.2-0.2,0.2h-0.9c-0.1,0-0.2-0.1-0.2-0.2v-2.8c0-0.6-0.2-0.9-0.6-0.9c-0.5,0-0.7,0.4-0.7,1v2.6c0,0.1-0.1,0.2-0.2,0.2
		h-0.9c-0.1,0-0.2-0.1-0.2-0.2v-2.8c0-0.6-0.2-0.9-0.6-0.9c-0.5,0-0.7,0.4-0.7,1v2.6c0,0.1-0.1,0.2-0.2,0.2h-0.9
		c-0.1,0-0.2-0.1-0.2-0.2v-4.5c0-0.1,0.1-0.2,0.2-0.2h0.8c0.1,0,0.1,0.1,0.2,0.2l0.1,0.6h0C-459,273.2-458.6,272.9-458.1,272.9z"/>
	<path class="st0" d="M-452.2,277.9c-0.8,0-1.4-0.6-1.4-1.4c0-1,0.8-1.7,2.1-1.7c0.2,0,0.3,0,0.5,0v-0.1c0-0.6-0.2-0.9-0.7-0.9
		c-0.3,0-0.6,0.2-0.7,0.6c0,0.1-0.1,0.2-0.2,0.1l-0.8-0.1c-0.1,0-0.2-0.1-0.1-0.2c0.2-0.8,0.9-1.3,1.9-1.3c1.2,0,1.8,0.6,1.8,1.9
		v2.9c0,0.1-0.1,0.2-0.2,0.2h-0.8c-0.1,0-0.1-0.1-0.2-0.2l-0.1-0.5h0C-451.2,277.6-451.7,277.9-452.2,277.9z M-451.8,277
		c0.5,0,0.7-0.4,0.7-1.2v-0.3c-0.1,0-0.2,0-0.3,0c-0.6,0-1,0.4-1,0.9C-452.4,276.7-452.1,277-451.8,277z"/>
	<path class="st0" d="M-449.3,277c0-0.1,0-0.2,0.1-0.2l1.9-2.8h-1.8c-0.1,0-0.2-0.1-0.2-0.2v-0.7c0-0.1,0.1-0.2,0.2-0.2h3
		c0.1,0,0.2,0.1,0.2,0.2v0.7c0,0.1,0,0.1-0.1,0.2l-1.9,2.8h1.9c0.1,0,0.2,0.1,0.2,0.2v0.7c0,0.1-0.1,0.2-0.2,0.2h-3.2
		c-0.1,0-0.2-0.1-0.2-0.2V277z"/>
	<path class="st0" d="M-445.6,275.4c0-1.4,0.9-2.5,2.1-2.5c1.2,0,2.1,1.1,2.1,2.5c0,1.4-0.9,2.5-2.1,2.5
		C-444.7,277.9-445.6,276.8-445.6,275.4z M-443.5,276.9c0.5,0,0.8-0.5,0.8-1.5c0-1-0.3-1.5-0.8-1.5c-0.5,0-0.8,0.5-0.8,1.5
		C-444.3,276.4-444,276.9-443.5,276.9z"/>
	<path class="st0" d="M-438.4,272.9c0.9,0,1.4,0.7,1.4,1.9v2.9c0,0.1-0.1,0.2-0.2,0.2h-0.9c-0.1,0-0.2-0.1-0.2-0.2v-2.8
		c0-0.6-0.2-0.9-0.7-0.9c-0.5,0-0.7,0.4-0.7,1v2.6c0,0.1-0.1,0.2-0.2,0.2h-0.9c-0.1,0-0.2-0.1-0.2-0.2v-4.5c0-0.1,0.1-0.2,0.2-0.2
		h0.8c0.1,0,0.1,0.1,0.2,0.2l0.1,0.6h0C-439.4,273.2-439,272.9-438.4,272.9z"/>
</g>
</svg>
