<?xml version="1.0" encoding="utf-8"?>
<!-- Generator: Adobe Illustrator 19.1.0, SVG Export Plug-In . SVG Version: 6.00 Build 0)  -->
<svg version="1.1" id="Layer_1" xmlns="http://www.w3.org/2000/svg" xmlns:xlink="http://www.w3.org/1999/xlink" x="0px" y="0px"
	 viewBox="0 0 273 70" style="enable-background:new 0 0 273 70;" xml:space="preserve">
<style type="text/css">
	.st0{fill:#8D0302;}
	.st1{fill:#FFFFFF;}
</style>
<g>
	<circle class="st0" cx="27.5" cy="35" r="25"/>
	<path id="_Compound_Path_11_3_" class="st1" d="M39.7,25.7c-0.6-1.5-1.9-2.6-3.4-3.1c-1-0.3-2-0.4-3.1-0.3H21.8
		c-1,0-2.1,0.1-3.1,0.3c-1.5,0.5-2.8,1.6-3.4,3.1c-0.4,1.2-0.6,2.4-0.5,3.6v11.4c-0.1,1.2,0.1,2.4,0.5,3.6c0.6,1.5,1.9,2.6,3.4,3.1
		c1,0.3,2,0.4,3.1,0.3h11.4c1,0,2.1-0.1,3.1-0.3c1.5-0.5,2.8-1.6,3.4-3.1c0.4-1.2,0.6-2.4,0.5-3.6V29.3
		C40.3,28.1,40.1,26.9,39.7,25.7z M33.4,39.8c-0.1,0.3-0.2,0.6-0.4,0.9c-0.2,0.3-0.4,0.5-0.7,0.6c-0.3,0.2-0.6,0.3-0.9,0.3
		c-0.4,0.1-0.9,0.1-1.4,0.1c-0.3-0.1-0.7-0.2-0.9-0.5c-0.8-0.7-0.9-2-0.1-2.8c0,0,0,0,0,0c0.2-0.2,0.5-0.4,0.8-0.5
		c0.5-0.2,0.9-0.3,1.4-0.4c0.2,0,0.3-0.1,0.5-0.1c0.2,0,0.4-0.1,0.5-0.3c0.1-0.2,0.2-0.4,0.2-0.6l0-5.6c0-0.4-0.2-0.5-0.6-0.5
		c-0.3,0.1-6.6,1.3-6.6,1.3c-0.3,0-0.5,0.3-0.5,0.5c0,0,0,0.1,0,0.1l0,8.2c0,0.3,0,0.6-0.1,0.9c-0.1,0.3-0.2,0.6-0.4,0.9
		c-0.2,0.3-0.4,0.5-0.7,0.6c-0.3,0.2-0.6,0.3-0.9,0.3c-0.4,0.1-0.9,0.1-1.4,0.1c-0.3-0.1-0.7-0.2-0.9-0.5c-0.8-0.8-0.9-2-0.1-2.8
		c0.2-0.2,0.5-0.4,0.8-0.5c0.5-0.2,0.9-0.3,1.4-0.4c0.2,0,0.3-0.1,0.5-0.1c0.2,0,0.4-0.1,0.5-0.3c0.1-0.2,0.2-0.4,0.2-0.6v-9.4
		c0-0.1,0-0.2,0-0.3c0-0.2,0.1-0.4,0.3-0.5c0.1-0.1,0.3-0.2,0.5-0.2l0,0l7.5-1.5c0.1,0,0.6-0.1,0.7-0.1c0.3,0,0.6,0.2,0.6,0.5
		c0,0.1,0,0.1,0,0.2l0,12C33.4,39.1,33.4,39.5,33.4,39.8L33.4,39.8z"/>
</g>
<g>
	<path class="st1" d="M81.6,38.4l-1.8,4.1h-2l7.3-16.3h1.9l7.3,16.3h-2l-1.8-4.1H81.6z M86,28.3l-3.6,8.3h7.3L86,28.3z"/>
	<path class="st1" d="M103.1,26.2c4,0,6.4,2,6.4,5.5c0,3.6-2.3,5.7-6.4,5.7h-4.3v5.2h-1.9V26.2H103.1z M98.8,35.6h4.2
		c2.9,0,4.6-1.3,4.6-3.8c0-2.5-1.7-3.7-4.6-3.7h-4.2V35.6z"/>
	<path class="st1" d="M118.7,26.2c4,0,6.4,2,6.4,5.5c0,3.6-2.3,5.7-6.4,5.7h-4.3v5.2h-1.9V26.2H118.7z M114.4,35.6h4.2
		c2.9,0,4.6-1.3,4.6-3.8c0-2.5-1.7-3.7-4.6-3.7h-4.2V35.6z"/>
	<path class="st1" d="M137.2,40.8v1.8h-9V26.2h1.9v14.6H137.2z"/>
	<path class="st1" d="M142.1,28v5.4h8.2v1.8h-8.2v5.6h9.5v1.8h-11.4V26.2h11.1V28H142.1z"/>
	<path class="st1" d="M176.6,42.5l0-13.5l-5.9,11.7h-1.1l-5.9-11.7v13.5h-1.8V26.2h2.3l6,11.8l5.9-11.8h2.3v16.3H176.6z"/>
	<path class="st1" d="M196.6,35.8c0,4.2-2.6,6.8-6.8,6.8c-4.3,0-6.9-2.6-6.9-6.8v-9.6h1.9v9.6c0,3.2,1.9,5,5,5s5-1.8,5-5v-9.6h1.9
		V35.8z"/>
	<path class="st1" d="M211.2,27.6l-0.8,1.8c-1.5-1-3.2-1.4-4.5-1.4c-2.1,0-3.5,0.8-3.5,2.2c0,4.2,9.2,2,9.2,7.9
		c0,2.7-2.4,4.5-5.9,4.5c-2.4,0-4.7-1-6.3-2.5l0.8-1.7c1.5,1.5,3.6,2.3,5.4,2.3c2.4,0,3.8-1,3.8-2.5c0-4.3-9.2-2-9.2-7.9
		c0-2.6,2.3-4.2,5.6-4.2C207.9,26.1,209.9,26.7,211.2,27.6z"/>
	<path class="st1" d="M215.5,42.5V26.2h1.9v16.3H215.5z"/>
	<path class="st1" d="M235.2,28.5l-1.1,1.4c-1.3-1.3-3-2.1-4.8-2.1c-3.7,0-6.6,2.8-6.6,6.4c0,3.6,3,6.4,6.6,6.4c1.8,0,3.5-0.7,4.8-2
		l1.1,1.3c-1.6,1.5-3.8,2.5-6.1,2.5c-4.7,0-8.4-3.7-8.4-8.3c0-4.6,3.8-8.2,8.5-8.2C231.5,26.2,233.7,27.1,235.2,28.5z"/>
</g>
</svg>
