<?xml version="1.0" encoding="utf-8"?>
<!-- Generator: Adobe Illustrator 19.1.0, SVG Export Plug-In . SVG Version: 6.00 Build 0)  -->
<svg version="1.1" id="Layer_1" xmlns="http://www.w3.org/2000/svg" xmlns:xlink="http://www.w3.org/1999/xlink" x="0px" y="0px"
	 viewBox="0 0 60 60" style="enable-background:new 0 0 60 60;" xml:space="preserve">
<style type="text/css">
	.st0{opacity:0.2;fill:#F6F8F5;}
	.st1{fill:#F6F8F5;}
	.st2{fill:#FFFFFF;}
</style>
<g>
	<circle class="st0" cx="30" cy="30" r="26.7"/>
	<g>
		<path class="st1" d="M56.7,30c0,0,0,0.7-0.1,1.9c0,0.6-0.1,1.4-0.2,2.2c-0.1,0.4-0.1,0.9-0.2,1.4c-0.1,0.5-0.3,1-0.4,1.6
			c-0.6,2.2-1.6,4.9-3.4,7.5c-1.7,2.7-4.2,5.4-7.5,7.6c-3.3,2.2-7.3,3.9-11.8,4.4c-0.6,0.1-1.1,0.1-1.7,0.1c-0.6,0-1.1,0.1-1.7,0.1
			c-1.2-0.1-2.3,0-3.5-0.3c-2.4-0.3-4.7-1-7-1.9c-2.3-1-4.4-2.4-6.4-3.9c-2-1.6-3.7-3.6-5.2-5.8C6,42.8,4.8,40.4,4,37.9
			c-0.8-2.5-1.1-5.2-1.2-7.9c0.1-2.6,0.4-5.3,1.2-7.9C4.8,19.6,6,17.2,7.4,15c1.5-2.2,3.2-4.1,5.2-5.8c2-1.6,4.2-3,6.4-3.9
			c4.6-2,9.5-2.6,14-2c4.5,0.6,8.6,2.2,11.8,4.4c3.3,2.2,5.7,5,7.5,7.6c1.8,2.7,2.7,5.3,3.4,7.5c0.1,0.6,0.3,1.1,0.4,1.6
			c0.1,0.5,0.2,1,0.2,1.4c0.1,0.9,0.2,1.6,0.2,2.2C56.6,29.3,56.7,30,56.7,30z M56.7,30c0,0,0-0.7-0.1-1.9c0-0.6-0.1-1.4-0.3-2.2
			c-0.1-0.4-0.1-0.9-0.2-1.4c-0.1-0.5-0.3-1-0.4-1.6c-0.6-2.2-1.6-4.8-3.4-7.5c-1.8-2.6-4.2-5.4-7.5-7.5C41.5,5.8,37.4,4.2,33,3.7
			c-0.5-0.1-1.1-0.1-1.7-0.1c-0.6,0-1.2-0.1-1.7,0c-1.1,0.1-2.3,0.1-3.4,0.3c-2.3,0.3-4.6,1.1-6.8,2c-2.2,1-4.3,2.4-6.2,3.9
			c-1.9,1.6-3.6,3.5-5,5.6c-1.4,2.1-2.4,4.5-3.2,6.9c-0.7,2.5-1,5-1.1,7.6c0.1,2.6,0.4,5.1,1.1,7.6c0.8,2.4,1.8,4.8,3.2,6.9
			c1.4,2.1,3.1,4,5,5.6c1.9,1.6,4,3,6.2,3.9c2.2,1,4.5,1.7,6.8,2c1.1,0.2,2.3,0.2,3.5,0.3c0.6,0.1,1.1,0,1.7,0c0.6,0,1.1,0,1.7-0.1
			c4.4-0.5,8.5-2.1,11.8-4.2c3.3-2.1,5.7-4.9,7.5-7.5c1.8-2.6,2.8-5.3,3.4-7.5c0.1-0.6,0.3-1.1,0.4-1.6c0.1-0.5,0.2-1,0.2-1.4
			c0.1-0.9,0.3-1.6,0.3-2.2C56.6,30.7,56.7,30,56.7,30z"/>
	</g>
	<path class="st2" d="M32.8,17.3c-0.3-0.1-0.6-0.1-0.8,0.1l-8.8,6.8h-5.7c-1,0-1.8,0.8-1.8,1.8v8c0,1,0.8,1.8,1.8,1.8h5.7l8.8,6.8
		c0.3,0.3,0.8,0.2,1.1-0.1c0.1-0.1,0.2-0.3,0.2-0.5V18C33.3,17.7,33.1,17.5,32.8,17.3z M17.3,34v-8c0-0.1,0.1-0.3,0.3-0.3h5.3v8.5
		h-5.3C17.4,34.3,17.3,34.1,17.3,34z M31.8,40.5l-7.5-5.8v-9.3l7.5-5.8V40.5z M38.1,26.9c1.6,1.8,1.6,4.5,0,6.3
		c-0.3,0.3-0.7,0.3-1.1,0.1c-0.3-0.3-0.3-0.7-0.1-1.1c1.1-1.2,1.1-3.1,0-4.3c-0.3-0.3-0.2-0.8,0.1-1.1
		C37.3,26.5,37.8,26.6,38.1,26.9z M44.3,30c0,2.4-0.9,4.7-2.5,6.5c-0.3,0.3-0.7,0.4-1.1,0.1c-0.3-0.3-0.4-0.7-0.1-1.1c0,0,0,0,0,0
		c2.8-3.1,2.8-7.9,0-11c-0.3-0.3-0.3-0.8,0-1.1c0.3-0.3,0.8-0.3,1.1,0c0,0,0,0,0,0C43.4,25.3,44.3,27.6,44.3,30z"/>
</g>
</svg>
