<?xml version="1.0" encoding="utf-8"?>
<!-- Generator: Adobe Illustrator 19.1.0, SVG Export Plug-In . SVG Version: 6.00 Build 0)  -->
<svg version="1.1" id="Layer_1" xmlns="http://www.w3.org/2000/svg" xmlns:xlink="http://www.w3.org/1999/xlink" x="0px" y="0px"
	 viewBox="-99 343 413 107" style="enable-background:new -99 343 413 107;" xml:space="preserve">
<style type="text/css">
	.st0{opacity:0.25;fill:url(#SVGID_1_);}
	.st1{opacity:0.5;fill:none;stroke:#FFFFFF;stroke-width:1.2509;stroke-miterlimit:10;}
	.st2{fill:#8D0302;}
	.st3{fill:#FFFFFF;}
</style>
<g>
	<g>
		
			<linearGradient id="SVGID_1_" gradientUnits="userSpaceOnUse" x1="107.5" y1="-15938.1348" x2="107.5" y2="-16034.8652" gradientTransform="matrix(1 0 0 -1 0 -15590)">
			<stop  offset="0" style="stop-color:#FFFFFF"/>
			<stop  offset="1" style="stop-color:#FFFFFF;stop-opacity:0.6"/>
		</linearGradient>
		<path class="st0" d="M261.8,444.9H-46.8c-26.7,0-48.4-21.7-48.4-48.4v0c0-26.7,21.7-48.4,48.4-48.4h308.7
			c26.7,0,48.4,21.7,48.4,48.4v0C310.2,423.2,288.5,444.9,261.8,444.9z"/>
		<path class="st1" d="M261.8,444.9H-46.8c-26.7,0-48.4-21.7-48.4-48.4v0c0-26.7,21.7-48.4,48.4-48.4h308.7
			c26.7,0,48.4,21.7,48.4,48.4v0C310.2,423.2,288.5,444.9,261.8,444.9z"/>
		<g>
			<circle class="st2" cx="-48.3" cy="396.7" r="39.8"/>
			<path class="st3" d="M-57.3,400.7c0-4,0-7.9,0-11.7c0-2,0.6-3.7,2.4-4.8c1-0.6,2.3-0.8,3.5-1c4-0.7,8.1-1.5,12.1-2.2
				c3-0.6,4.6,0.7,4.6,3.7c0,6.4,0,12.7,0,19.1c0,5.1-4.7,8.4-9.2,6.6c-3.5-1.4-5.2-5.2-3.8-8.6c1.4-3.5,5.2-5.2,8.8-3.8
				c0.5,0.2,1,0.5,1.7,0.8c0-2,0-3.9,0-5.8c0-0.8-0.5-0.6-0.9-0.5c-2.3,0.4-4.6,0.8-6.9,1.2c-2.9,0.5-5.7,1.1-8.6,1.5
				c-0.8,0.1-1.1,0.4-1.1,1.3c0,3.6,0.3,7.1-0.2,10.7c-0.4,3-3.5,6.1-7.9,5.4c-3.2-0.5-5.7-3.9-5.4-7.2
				C-67.8,400.9-62.7,397.3-57.3,400.7z M-37.2,386.6c0-0.8,0-1.5,0-2.3c0-0.9-0.2-1.2-1.2-1c-1.4,0.3-2.9,0.5-4.3,0.8
				c-3.2,0.6-6.3,1.1-9.5,1.8c-2,0.4-2.6,1.1-2.6,3.2c0,0.8,0,2.5,0,2.5c-0.1,1.2,0.3,1.3,1.3,1.1c4.4-0.8,8.8-1.6,13.2-2.4
				C-37.3,389.7-37.2,389.7-37.2,386.6z"/>
		</g>
	</g>
	<g>
		<path class="st3" d="M77.2,385.3c5.1,0,8,2.5,8,6.9c0,4.6-2.9,7.2-8,7.2h-5.4v6.5h-2.4v-20.6H77.2z M71.9,397.1h5.3
			c3.7,0,5.9-1.6,5.9-4.9c0-3.1-2.1-4.7-5.9-4.7h-5.3V397.1z"/>
		<path class="st3" d="M98.4,399.3c-0.4,0-0.9,0.1-1.4,0.1h-5.5v6.5h-2.4v-20.6H97c5.2,0,8.1,2.5,8.1,6.9c0,3.4-1.6,5.7-4.6,6.7
			l4.8,7h-2.7L98.4,399.3z M97,397.1c3.7,0,5.9-1.6,5.9-4.9c0-3.1-2.1-4.7-5.9-4.7h-5.5v9.6H97z"/>
		<path class="st3" d="M112.9,387.5v6.8h10.4v2.3h-10.4v7.1h12v2.2h-14.4v-20.6h14v2.3H112.9z"/>
		<path class="st3" d="M142.4,387.1l-1,2.2c-1.9-1.2-4-1.7-5.7-1.7c-2.7,0-4.4,1-4.4,2.7c0,5.3,11.6,2.5,11.6,10
			c0,3.4-3,5.7-7.5,5.7c-3,0-5.9-1.3-7.9-3.2l1.1-2.1c1.9,1.9,4.5,2.9,6.9,2.9c3,0,4.8-1.2,4.8-3.2c0-5.4-11.6-2.5-11.6-9.9
			c0-3.2,2.9-5.3,7.1-5.3C138.2,385.2,140.7,385.9,142.4,387.1z"/>
		<path class="st3" d="M149.3,400.7l-2.3,5.2h-2.5l9.2-20.6h2.4l9.2,20.6h-2.6l-2.3-5.2H149.3z M154.9,387.9l-4.6,10.5h9.2
			L154.9,387.9z"/>
		<path class="st3" d="M172.7,405.9l-8.4-20.6h2.5l7.1,17.9l7.1-17.9h2.5l-8.4,20.6H172.7z"/>
		<path class="st3" d="M189.2,387.5v6.8h10.4v2.3h-10.4v7.1h12v2.2h-14.4v-20.6h14v2.3H189.2z"/>
	</g>
</g>
</svg>
