<?xml version="1.0" encoding="utf-8"?>
<!-- Generator: Adobe Illustrator 19.1.0, SVG Export Plug-In . SVG Version: 6.00 Build 0)  -->
<svg version="1.1" id="Layer_1" xmlns="http://www.w3.org/2000/svg" xmlns:xlink="http://www.w3.org/1999/xlink" x="0px" y="0px"
	 viewBox="0 0 413 107" style="enable-background:new 0 0 413 107;" xml:space="preserve">
<style type="text/css">
	.st0{opacity:0.32;fill:url(#SVGID_1_);}
	.st1{opacity:0.5;fill:none;stroke:#FFFFFF;stroke-miterlimit:10;}
	.st2{fill:#8D0302;}
	.st3{fill:#FFFFFF;}
</style>
<g>
	<g>
		<linearGradient id="SVGID_1_" gradientUnits="userSpaceOnUse" x1="206.5" y1="101.8193" x2="206.5" y2="5.1807">
			<stop  offset="0" style="stop-color:#FFFFFF"/>
			<stop  offset="1" style="stop-color:#FFFFFF;stop-opacity:0.6"/>
		</linearGradient>
		<path class="st0" d="M360.7,101.8H52.3C25.6,101.8,4,80.2,4,53.5v0C4,26.8,25.6,5.2,52.3,5.2h308.4c26.7,0,48.3,21.6,48.3,48.3v0
			C409,80.2,387.4,101.8,360.7,101.8z"/>
		<path class="st1" d="M360.7,101.8H52.3C25.6,101.8,4,80.2,4,53.5v0C4,26.8,25.6,5.2,52.3,5.2h308.4c26.7,0,48.3,21.6,48.3,48.3v0
			C409,80.2,387.4,101.8,360.7,101.8z"/>
		<g>
			<circle class="st2" cx="51.1" cy="53.7" r="39.8"/>
			<path id="_Compound_Path_11_3_" class="st3" d="M70.4,38.9c-1-2.3-3-4.1-5.4-4.9c-1.6-0.4-3.2-0.6-4.9-0.5H42
				c-1.6-0.1-3.3,0.1-4.9,0.5c-2.4,0.7-4.4,2.5-5.4,4.9c-0.6,1.8-0.9,3.8-0.8,5.7v18.1c-0.1,1.9,0.2,3.9,0.8,5.7
				c1,2.3,3,4.1,5.4,4.9c1.6,0.4,3.2,0.6,4.9,0.5h18.1c1.6,0.1,3.3-0.1,4.9-0.5c2.4-0.7,4.4-2.5,5.4-4.9c0.6-1.8,0.9-3.8,0.8-5.7
				V44.7C71.3,42.7,71,40.8,70.4,38.9z M60.3,61.3c-0.1,0.5-0.3,1-0.6,1.4c-0.3,0.4-0.7,0.8-1.1,1c-0.4,0.2-0.9,0.4-1.4,0.5
				c-0.7,0.2-1.4,0.2-2.2,0.1c-0.5-0.1-1-0.4-1.5-0.7c-1.3-1.2-1.4-3.1-0.2-4.4c0,0,0-0.1,0.1-0.1c0.4-0.4,0.8-0.7,1.3-0.8
				c0.7-0.2,1.5-0.4,2.2-0.6c0.3-0.1,0.5-0.1,0.8-0.2c0.3,0,0.6-0.2,0.9-0.4c0.2-0.3,0.3-0.6,0.2-1l0-8.9c0-0.7-0.3-0.9-1-0.7
				c-0.5,0.1-10.4,2.1-10.4,2.1c-0.5,0-0.8,0.4-0.8,0.9c0,0,0,0.1,0,0.1l0,13c0,0.5,0,1-0.1,1.5c-0.1,0.5-0.3,1-0.6,1.4
				c-0.3,0.4-0.7,0.8-1.1,1c-0.4,0.3-0.9,0.4-1.4,0.5c-0.7,0.2-1.4,0.2-2.2,0.1c-0.5-0.1-1-0.4-1.5-0.7c-1.3-1.2-1.4-3.2-0.2-4.5
				c0.4-0.4,0.8-0.7,1.3-0.8c0.7-0.2,1.5-0.4,2.2-0.6c0.3-0.1,0.5-0.1,0.8-0.2c0.3,0,0.6-0.2,0.9-0.4c0.2-0.3,0.3-0.6,0.3-1v-15
				c0-0.1,0-0.3,0-0.4c0-0.3,0.2-0.6,0.4-0.8c0.2-0.2,0.5-0.3,0.7-0.3l0,0l12-2.4c0.1,0,1-0.2,1.1-0.2c0.5-0.1,1,0.3,1,0.8
				c0,0.1,0,0.2,0,0.3l0,19C60.4,60.3,60.4,60.8,60.3,61.3L60.3,61.3z"/>
		</g>
	</g>
	<g>
		<path class="st3" d="M140.9,57.7l-2.3,5.2h-2.5l9.2-20.4h2.4l9.1,20.4h-2.5l-2.3-5.2H140.9z M146.4,45.2l-4.5,10.4h9.2L146.4,45.2
			z"/>
		<path class="st3" d="M167.7,42.5c5,0,8,2.5,8,6.9c0,4.5-2.9,7.1-8,7.1h-5.3v6.4H160V42.5H167.7z M162.4,54.2h5.2
			c3.7,0,5.8-1.6,5.8-4.8c0-3.1-2.1-4.7-5.8-4.7h-5.2V54.2z"/>
		<path class="st3" d="M187.2,42.5c5,0,8,2.5,8,6.9c0,4.5-2.9,7.1-8,7.1h-5.3v6.4h-2.3V42.5H187.2z M181.9,54.2h5.2
			c3.7,0,5.8-1.6,5.8-4.8c0-3.1-2.1-4.7-5.8-4.7h-5.2V54.2z"/>
		<path class="st3" d="M210.3,60.7v2.2H199V42.5h2.3v18.2H210.3z"/>
		<path class="st3" d="M216.5,44.7v6.7h10.3v2.2h-10.3v7h11.9v2.2h-14.2V42.5H228v2.2H216.5z"/>
		<path class="st3" d="M259.6,62.9l0-16.8l-7.4,14.7h-1.4l-7.4-14.7v16.8h-2.2V42.5h2.9l7.5,14.7l7.4-14.7h2.9v20.4H259.6z"/>
		<path class="st3" d="M284.6,54.5c0,5.3-3.2,8.5-8.5,8.5c-5.4,0-8.6-3.2-8.6-8.5v-12h2.3v12c0,4,2.4,6.3,6.3,6.3s6.2-2.3,6.2-6.3
			v-12h2.3V54.5z"/>
		<path class="st3" d="M302.9,44.3l-1,2.2c-1.8-1.2-4-1.7-5.6-1.7c-2.6,0-4.3,1-4.3,2.7c0,5.2,11.5,2.5,11.5,9.9
			c0,3.4-3,5.6-7.4,5.6c-3,0-5.9-1.3-7.8-3.1l1-2.1c1.9,1.8,4.5,2.9,6.8,2.9c2.9,0,4.8-1.2,4.8-3.1c0-5.4-11.5-2.5-11.5-9.8
			c0-3.2,2.8-5.3,7.1-5.3C298.8,42.4,301.2,43.2,302.9,44.3z"/>
		<path class="st3" d="M308.1,62.9V42.5h2.3v20.4H308.1z"/>
		<path class="st3" d="M332.8,45.4l-1.4,1.8c-1.6-1.6-3.8-2.6-6-2.6c-4.6,0-8.3,3.6-8.3,8c0,4.5,3.7,8,8.3,8c2.2,0,4.4-0.9,6-2.4
			l1.4,1.6c-2,1.9-4.8,3.1-7.6,3.1c-5.9,0-10.6-4.6-10.6-10.4c0-5.7,4.7-10.2,10.6-10.2C328.2,42.4,330.9,43.6,332.8,45.4z"/>
	</g>
</g>
</svg>
