<?xml version="1.0" encoding="utf-8"?>
<!-- Generator: Adobe Illustrator 19.1.0, SVG Export Plug-In . SVG Version: 6.00 Build 0)  -->
<svg version="1.1" id="Layer_1" xmlns="http://www.w3.org/2000/svg" xmlns:xlink="http://www.w3.org/1999/xlink" x="0px" y="0px"
	 viewBox="0 0 413 107" style="enable-background:new 0 0 413 107;" xml:space="preserve">
<style type="text/css">
	.st0{opacity:0.35;fill:url(#SVGID_1_);}
	.st1{opacity:0.5;fill:none;stroke:#FFFFFF;stroke-miterlimit:10;}
	.st2{fill:#8D0302;}
	.st3{fill:#FFFFFF;}
</style>
<g>
	<linearGradient id="SVGID_1_" gradientUnits="userSpaceOnUse" x1="206.8671" y1="101.9839" x2="206.8671" y2="5.3452">
		<stop  offset="0" style="stop-color:#FFFFFF"/>
		<stop  offset="1" style="stop-color:#FFFFFF;stop-opacity:0.6"/>
	</linearGradient>
	<path class="st0" d="M361,102H52.7C26,102,4.4,80.4,4.4,53.7v0C4.4,27,26,5.3,52.7,5.3H361c26.7,0,48.3,21.6,48.3,48.3v0
		C409.4,80.4,387.7,102,361,102z"/>
	<path class="st1" d="M361,102H52.7C26,102,4.4,80.4,4.4,53.7v0C4.4,27,26,5.3,52.7,5.3H361c26.7,0,48.3,21.6,48.3,48.3v0
		C409.4,80.4,387.7,102,361,102z"/>
	<g>
		<circle class="st2" cx="52.2" cy="54.1" r="39.8"/>
	</g>
	<path class="st3" d="M71.3,53.9c0.1,11-9,20.2-20.4,19.9c-10.6-0.3-19.6-9.1-19.3-20.4C31.8,42.7,40.6,33.7,52,34
		C62.7,34.3,71.3,43,71.3,53.9z M45.9,45.1c-0.4,0-0.9,0-1.3,0.1c-1.6,0.1-3.2,0.3-4.8,0.6c-0.3,0.1-0.6,0.1-0.9,0.3
		c-0.9,0.5-1.2,1.4-0.9,2.3c0.3,0.9,1.2,1.4,2.1,1.2c2.2-0.4,4.5-0.7,6.7-0.7c1.2,0,2.4,0,3.5,0.1c2.7,0.2,5.3,0.8,7.9,1.6
		c1.9,0.6,3.6,1.4,5.4,2.3c0.9,0.5,2,0.1,2.5-0.8c0.5-0.9,0.1-2-0.8-2.5c-0.6-0.3-1.1-0.6-1.7-0.8c-3-1.4-6.1-2.4-9.3-3
		c-2.3-0.4-4.6-0.6-6.9-0.7C46.9,45.1,46.4,45,45.9,45.1z M47.1,51.9c-0.8,0-1.6,0-2.4,0.1c-1.5,0.1-3,0.3-4.5,0.7
		c-0.8,0.2-1.3,0.9-1.2,1.7c0.1,0.8,0.8,1.3,1.6,1.3c0.3,0,0.7-0.1,1-0.2c1.7-0.3,3.4-0.5,5.1-0.5c1.1,0,2.2,0,3.3,0.1
		c2.1,0.2,4.2,0.6,6.2,1.3c1.7,0.6,3.3,1.3,4.9,2.1c0.8,0.4,1.7,0.1,2.1-0.7c0.4-0.7,0.1-1.6-0.7-2c-1.9-1-3.8-1.8-5.8-2.5
		C53.6,52.4,50.4,51.9,47.1,51.9z M47.3,58.1c-1,0-1.9,0-2.7,0.1c-1.2,0.1-2.4,0.3-3.6,0.6c-0.7,0.1-1.1,0.8-1,1.4
		c0.2,0.7,0.8,1,1.5,0.9c1.8-0.4,3.6-0.6,5.4-0.7c0.8,0,1.6,0,2.5,0.1c2,0.2,4,0.6,5.9,1.3c1.3,0.5,2.6,1,3.8,1.7
		c0.2,0.1,0.4,0.2,0.6,0.1c0.5,0,1-0.4,1.1-0.9c0.1-0.5-0.1-1-0.6-1.3c-1.6-0.9-3.2-1.6-4.9-2.2C52.6,58.5,49.9,58.1,47.3,58.1z"/>
	<g>
		<path class="st3" d="M190.9,46.5l-1,2.2c-1.8-1.2-4-1.7-5.6-1.7c-2.6,0-4.3,1-4.3,2.7c0,5.2,11.5,2.5,11.5,9.9
			c0,3.4-3,5.6-7.4,5.6c-3,0-5.9-1.3-7.8-3.1l1-2.1c1.9,1.8,4.5,2.9,6.8,2.9c2.9,0,4.8-1.2,4.8-3.1c0-5.4-11.5-2.5-11.5-9.8
			c0-3.2,2.8-5.3,7.1-5.3C186.8,44.6,189.2,45.3,190.9,46.5z"/>
		<path class="st3" d="M203.8,44.6c5,0,8,2.5,8,6.9c0,4.5-2.9,7.1-8,7.1h-5.3v6.4h-2.3V44.6H203.8z M198.5,56.4h5.2
			c3.7,0,5.8-1.6,5.8-4.8c0-3.1-2.1-4.7-5.8-4.7h-5.2V56.4z"/>
		<path class="st3" d="M235.1,54.9c0,5.7-4.7,10.3-10.7,10.3c-6,0-10.7-4.6-10.7-10.3c0-5.8,4.7-10.3,10.7-10.3
			C230.4,44.6,235.1,49.1,235.1,54.9z M216.1,54.9c0,4.5,3.8,8.1,8.3,8.1s8.3-3.6,8.3-8.1c0-4.5-3.7-8-8.3-8S216.1,50.4,216.1,54.9z
			"/>
		<path class="st3" d="M245.3,46.9v18.2H243V46.9h-6.6v-2.2H252v2.2H245.3z"/>
		<path class="st3" d="M255.4,65.1V44.6h2.3v20.4H255.4z"/>
		<path class="st3" d="M266.2,46.9v7.2h9.5v2.2h-9.5v8.7h-2.3V44.6h13v2.2H266.2z"/>
		<path class="st3" d="M287.6,65.1h-2.3v-6.9l-7.9-13.5h2.4l6.6,10.6l6.5-10.6h2.4l-7.8,13.4V65.1z"/>
	</g>
</g>
</svg>
