<?xml version="1.0" encoding="utf-8"?>
<!-- Generator: Adobe Illustrator 19.1.0, SVG Export Plug-In . SVG Version: 6.00 Build 0)  -->
<svg version="1.1" id="Layer_1" xmlns="http://www.w3.org/2000/svg" xmlns:xlink="http://www.w3.org/1999/xlink" x="0px" y="0px"
	 viewBox="0 0 403 87" style="enable-background:new 0 0 403 87;" xml:space="preserve">
<style type="text/css">
	.st0{opacity:0.25;fill:url(#SVGID_1_);}
	.st1{opacity:0.5;fill:none;stroke:#FFFFFF;stroke-miterlimit:10;}
	.st2{fill:#8D0302;}
	.st3{fill:#FFFFFF;}
</style>
<g>
	<g>
		
			<linearGradient id="SVGID_1_" gradientUnits="userSpaceOnUse" x1="201.5" y1="-16296.9766" x2="201.5" y2="-16374.3027" gradientTransform="matrix(1 0 0 -1 0 -16292.1396)">
			<stop  offset="0" style="stop-color:#FFFFFF"/>
			<stop  offset="1" style="stop-color:#FFFFFF;stop-opacity:0.6"/>
		</linearGradient>
		<path class="st0" d="M360.4,82.2H42.6C21.3,82.2,4,64.9,4,43.5v0C4,22.1,21.3,4.8,42.6,4.8l317.7,0c21.4,0,38.7,17.3,38.7,38.7v0
			C399,64.9,381.7,82.2,360.4,82.2z"/>
		<path class="st1" d="M360.4,82.2H42.6C21.3,82.2,4,64.9,4,43.5v0C4,22.1,21.3,4.8,42.6,4.8l317.7,0c21.4,0,38.7,17.3,38.7,38.7v0
			C399,64.9,381.7,82.2,360.4,82.2z"/>
		<g>
			<circle class="st2" cx="41.8" cy="43.8" r="31.8"/>
			<g>
				<g>
					<path class="st3" d="M56.5,59.7l-6.1-6.1v5.2h-1.8v-8.2h8.2v1.8h-5.2l6.1,6.1L56.5,59.7z M41.5,59.5c-2.2,0-4.3-0.4-6.2-1.3
						c-1.9-0.8-3.6-2-5.1-3.4c-1.4-1.4-2.6-3.1-3.4-5.1c-0.8-1.9-1.3-4-1.3-6.2c0-2.2,0.4-4.3,1.3-6.2c0.8-1.9,2-3.6,3.4-5.1
						c1.4-1.4,3.1-2.6,5.1-3.4c1.9-0.8,4-1.3,6.2-1.3c2.2,0,4.3,0.4,6.2,1.3c1.9,0.8,3.6,2,5.1,3.4s2.6,3.1,3.4,5.1
						c0.8,1.9,1.3,4,1.3,6.2c0,0.5,0,1-0.1,1.4c0,0.5-0.1,1-0.2,1.4h-1.8c0.1-0.5,0.2-1,0.2-1.4c0.1-0.5,0.1-1,0.1-1.4
						c0-0.7,0-1.4-0.1-2.1c-0.1-0.7-0.3-1.4-0.5-2.1h-7.1c0.1,0.7,0.2,1.4,0.3,2.1c0.1,0.7,0.1,1.4,0.1,2.1c0,0.5,0,1,0,1.4
						c0,0.5-0.1,1-0.1,1.4h-1.8c0.1-0.5,0.1-1,0.1-1.4c0-0.5,0-1,0-1.4c0-0.7,0-1.4-0.1-2.1c-0.1-0.7-0.2-1.4-0.3-2.1h-9.3
						c-0.1,0.7-0.2,1.4-0.3,2.1c-0.1,0.7-0.1,1.4-0.1,2.1c0,0.7,0,1.4,0.1,2.1c0.1,0.7,0.2,1.4,0.3,2.1H44v1.8h-6.7
						c0.4,1.5,1,3,1.7,4.4c0.7,1.4,1.5,2.7,2.5,3.9c0.5,0,1,0,1.4-0.1c0.5-0.1,1-0.1,1.4-0.2v1.8c-0.5,0.1-1,0.1-1.4,0.2
						C42.5,59.4,42,59.5,41.5,59.5z M28,47.7h7.1c-0.1-0.7-0.2-1.4-0.3-2.1c-0.1-0.7-0.1-1.4-0.1-2.1c0-0.7,0-1.4,0.1-2.1
						c0.1-0.7,0.2-1.4,0.3-2.1H28c-0.2,0.7-0.4,1.4-0.5,2.1c-0.1,0.7-0.1,1.4-0.1,2.1c0,0.7,0,1.4,0.1,2.1
						C27.6,46.3,27.8,47,28,47.7z M28.7,37.6h6.8c0.3-1.5,0.8-2.9,1.4-4.2c0.6-1.4,1.4-2.6,2.4-3.8c-2.3,0.3-4.4,1.2-6.3,2.7
						C31.1,33.7,29.7,35.4,28.7,37.6z M39.3,57.5c-0.9-1.2-1.7-2.5-2.3-3.8c-0.6-1.4-1.1-2.8-1.5-4.2h-6.8c1,2.1,2.4,3.9,4.3,5.4
						C34.8,56.2,36.9,57.1,39.3,57.5z M37.3,37.6h8.4c-0.4-1.5-1-3-1.7-4.3c-0.7-1.4-1.6-2.7-2.5-3.9c-1,1.2-1.8,2.5-2.6,3.9
						C38.3,34.6,37.7,36.1,37.3,37.6z M47.5,37.6h6.8c-1-2.2-2.4-4-4.3-5.4c-1.9-1.4-4-2.3-6.3-2.6c0.9,1.2,1.6,2.5,2.2,3.9
						S47.1,36.2,47.5,37.6z"/>
				</g>
			</g>
		</g>
	</g>
	<g>
		<path class="st3" d="M101.6,39.8c0-0.7,0.5-1.2,1.1-1.2c0.7,0,1.1,0.5,1.1,1.2c0,0.7-0.5,1.2-1.1,1.2
			C102.1,41,101.6,40.5,101.6,39.8z M102.1,43.6h1.2l0.3,7.2v3.9h-1.7v-3.9L102.1,43.6z"/>
		<path class="st3" d="M113.5,34.7c4,0,6.4,2,6.4,5.5c0,3.6-2.3,5.7-6.4,5.7h-4.3V51h-1.9V34.7H113.5z M109.2,44h4.2
			c2.9,0,4.6-1.3,4.6-3.8c0-2.5-1.7-3.7-4.6-3.7h-4.2V44z"/>
		<path class="st3" d="M130.2,45.8c-0.3,0-0.7,0-1.1,0h-4.3V51h-1.9V34.7h6.2c4.1,0,6.4,2,6.4,5.5c0,2.7-1.3,4.5-3.7,5.3l3.8,5.6
			h-2.1L130.2,45.8z M129.2,44c3,0,4.6-1.3,4.6-3.8c0-2.5-1.7-3.7-4.6-3.7h-4.3V44H129.2z"/>
		<path class="st3" d="M141.7,36.5v5.4h8.2v1.8h-8.2v5.6h9.5V51h-11.4V34.7h11.1v1.8H141.7z"/>
		<path class="st3" d="M154,44.6v-1.4h5.5v1.4H154z"/>
		<path class="st3" d="M179,42.8c0,4.6-3.8,8.3-8.5,8.3c-4.8,0-8.6-3.7-8.6-8.3c0-4.6,3.8-8.2,8.6-8.2C175.3,34.6,179,38.2,179,42.8
			z M163.8,42.8c0,3.6,3,6.5,6.7,6.5s6.6-2.9,6.6-6.5c0-3.6-3-6.4-6.6-6.4S163.8,39.2,163.8,42.8z"/>
		<path class="st3" d="M189.7,45.8c-0.3,0-0.7,0-1.1,0h-4.3V51h-1.9V34.7h6.2c4.1,0,6.4,2,6.4,5.5c0,2.7-1.3,4.5-3.7,5.3l3.8,5.6
			h-2.1L189.7,45.8z M188.6,44c3,0,4.6-1.3,4.6-3.8c0-2.5-1.7-3.7-4.6-3.7h-4.3V44H188.6z"/>
		<path class="st3" d="M205.9,34.7c4.8,0,8.4,3.5,8.4,8.2c0,4.6-3.7,8.2-8.5,8.2h-6.5V34.7H205.9z M201.2,49.2h4.8
			c3.6,0,6.5-2.7,6.5-6.4c0-3.7-2.9-6.4-6.6-6.4h-4.7V49.2z"/>
		<path class="st3" d="M219.6,36.5v5.4h8.2v1.8h-8.2v5.6h9.5V51h-11.4V34.7h11.1v1.8H219.6z"/>
		<path class="st3" d="M244.6,51l-9.8-13.1V51h-1.9V34.7h1.9l9.8,13.1V34.7h1.8V51H244.6z"/>
		<path class="st3" d="M252.9,46.9l-1.8,4.1h-2l7.3-16.3h1.9l7.3,16.3h-2l-1.8-4.1H252.9z M257.3,36.8l-3.6,8.3h7.3L257.3,36.8z"/>
		<path class="st3" d="M276,46.9l-1.8,4.1h-2l7.3-16.3h1.9l7.3,16.3h-2l-1.8-4.1H276z M280.4,36.8l-3.6,8.3h7.3L280.4,36.8z"/>
		<path class="st3" d="M303.1,51v-7.2h-9.8V51h-1.9V34.7h1.9V42h9.8v-7.4h1.9V51H303.1z"/>
		<path class="st3" d="M325.4,42.8c0,4.6-3.8,8.3-8.5,8.3c-4.8,0-8.6-3.7-8.6-8.3c0-4.6,3.8-8.2,8.6-8.2
			C321.6,34.6,325.4,38.2,325.4,42.8z M310.2,42.8c0,3.6,3,6.5,6.7,6.5s6.6-2.9,6.6-6.5c0-3.6-3-6.4-6.6-6.4S310.2,39.2,310.2,42.8z
			"/>
		<path class="st3" d="M336.1,45.8c-0.3,0-0.7,0-1.1,0h-4.3V51h-1.9V34.7h6.2c4.1,0,6.4,2,6.4,5.5c0,2.7-1.3,4.5-3.7,5.3l3.8,5.6
			h-2.1L336.1,45.8z M335,44c3,0,4.6-1.3,4.6-3.8c0-2.5-1.7-3.7-4.6-3.7h-4.3V44H335z"/>
		<path class="st3" d="M347.1,46.9l-1.8,4.1h-2l7.3-16.3h1.9l7.3,16.3h-2l-1.8-4.1H347.1z M351.6,36.8l-3.6,8.3h7.3L351.6,36.8z"/>
		<path class="st3" d="M363.7,50c0,0.7-0.5,1.2-1.1,1.2c-0.6,0-1.1-0.5-1.1-1.2s0.5-1.2,1.1-1.2C363.2,48.8,363.7,49.3,363.7,50z
			 M363.2,46.1h-1.2l-0.3-7.2v-3.9h1.8v3.9L363.2,46.1z"/>
	</g>
</g>
</svg>
