<?xml version="1.0" encoding="utf-8"?>
<!-- Generator: Adobe Illustrator 19.1.0, SVG Export Plug-In . SVG Version: 6.00 Build 0)  -->
<svg version="1.1" id="Layer_1" xmlns="http://www.w3.org/2000/svg" xmlns:xlink="http://www.w3.org/1999/xlink" x="0px" y="0px"
	 viewBox="0 0 28 28" style="enable-background:new 0 0 28 28;" xml:space="preserve">
<style type="text/css">
	.st0{fill:#FFFFFF;}
</style>
<g>
	<path class="st0" d="M14,1.6c1.9,0,3.7-0.1,5.6,0c3.8,0.2,6.7,3.3,6.8,7c0,3.5,0,7.1,0,10.6c0,3.8-3.1,7-7,7c-3.6,0-7.2,0-10.8,0
		c-3.9,0-7-3.2-7-7.1c0-3.5,0-7,0-10.6c0-4,3.2-7.1,7.2-7.1C10.5,1.6,12.3,1.6,14,1.6C14,1.6,14,1.6,14,1.6z M14,4
		c-1.8,0-3.5,0-5.3,0C6,4,3.9,6,3.9,8.8c0,3.5,0,7,0,10.5c0,0.3,0,0.6,0.1,0.9c0.4,2.3,2.4,3.9,4.8,4c1.7,0,3.4,0,5.2,0
		c1.8,0,3.7,0,5.5,0c2.6-0.1,4.6-2.2,4.6-4.8c0-3.5,0-7,0-10.5C24.1,6,22,4,19.2,4C17.5,4,15.8,4,14,4z"/>
	<path class="st0" d="M14,20.5c-3.6,0-6.4-2.9-6.4-6.4c0-3.5,2.9-6.4,6.4-6.4c3.5,0,6.4,2.9,6.4,6.4C20.4,17.6,17.6,20.5,14,20.5z
		 M14,18.2c2.3,0,4.2-1.8,4.2-4.1c0-2.3-1.8-4.2-4.1-4.2c-2.3,0-4.2,1.9-4.2,4.1C9.8,16.3,11.7,18.2,14,18.2z"/>
	<path class="st0" d="M22.1,7.4c0,0.8-0.7,1.5-1.5,1.5c-0.8,0-1.5-0.7-1.5-1.5c0-0.8,0.7-1.5,1.5-1.5C21.4,5.9,22.1,6.6,22.1,7.4z"
		/>
</g>
</svg>
