<?xml version="1.0" encoding="utf-8"?>
<!-- Generator: Adobe Illustrator 19.1.0, SVG Export Plug-In . SVG Version: 6.00 Build 0)  -->
<svg version="1.1" id="Layer_1" xmlns="http://www.w3.org/2000/svg" xmlns:xlink="http://www.w3.org/1999/xlink" x="0px" y="0px"
	 viewBox="-465 267 28 28" style="enable-background:new -465 267 28 28;" xml:space="preserve">
<style type="text/css">
	.st0{fill:#FFFFFF;}
</style>
<g>
	<path class="st0" d="M2893.6,7982.9L2893.6,7982.9L2893.6,7982.9c-198.3,66.1-330.4,132.2-528.7,198.3l0,0l0,0
		c-66.1,0-132.2,0-132.2,66.1l0,0l0,0h-66.1h-66.1c0,0,0,0-66.1,0l0,0l0,0c-66.1,0-66.1,0-132.2,0s-66.1,0-132.2,0s-66.1,0-132.2,0
		h-66.1h-66.1l0,0c-66.1,0-66.1,0-132.2,66.1h-66.1c-66.1,0-132.2,0-264.3,66.1h-66.1H911H845c-66.1,0-198.3,0-264.3,66.1
		c0,0,0,0-66.1,0c0-1850.3,0-3634.6,0-5484.9c0-132.2,66.1-198.3,198.3-198.3c462.6,0,991.3,0,1453.8,0c66.1,0,132.2,0,132.2-132.2
		c66.1-726.9,198.3-1387.8,330.4-2114.7c0-132.2,0-198.3-132.2-198.3c-594.8,0-1189.5,0-1784.3,0c-132.2,0-132.2,0-132.2-132.2
		c0-528.7,0-1057.3,0-1519.9c0-528.7,330.4-793,859.1-793c396.5,0,726.9,0,1123.4,0c132.2,0,198.2,0,198.2-132.2
		c0-594.8,0-1189.5,0-1718.2c0-132.2-66.1-132.2-132.2-132.2c-660.8,0-1321.7,0-2048.6,0c-198.3,0-462.6,66.1-660.8,132.2
		c-991.3,330.4-1652.1,1255.6-1652.1,2312.9c0,660.8,0,1321.7,0,1982.5c0,132.2-66.1,132.2-132.2,132.2c-528.7,0-1123.4,0-1652.1,0
		c-132.2,0-132.2,66.1-132.2,132.2c0,726.9,0,1387.8,0,2114.7c0,132.2,66.1,132.2,132.2,132.2c528.7,0,1123.4,0,1652.1,0
		c132.2,0,198.3,66.1,198.3,198.3c0,1718.2,0,3502.4,0,5220.6c0,66.1,0,66.1,0,132.2s-66.1,132.2-132.2,66.1
		c-330.4-66.1-594.8-132.2-925.2-198.3c-660.8-198.3-1387.8-528.7-1982.5-925.2C-7349.4,5603.9-8737.1,3158.8-8605-13.2
		c132.2-3370.3,1784.3-5815.3,4824.1-7269.2c2180.8-925.2,4691.9-859.1,7004.9,396.5C5536.9-5696.4,6990.7-3780,7519.4-1202.7
		c594.8,2841.6-198.3,5418.8-2246.8,7533.5c-396.5,396.5-859.1,793-1387.8,1123.4l0,0l0,0c-66.1,0-132.2,66.1-132.2,132.2l0,0
		c0,0,0,0-66.1,0l0,0c0,0,0,0-66.1,0l0,0c-66.1,0-132.2,66.1-198.2,132.2l0,0c-66.1,0-132.2,66.1-132.2,66.1l0,0
		c-66.1,0-66.1,0-132.2,66.1l0,0l0,0c-66.1,0-66.1,0-132.2,66.1l0,0l0,0C2959.6,7916.8,2893.6,7982.9,2893.6,7982.9z"/>
</g>
<g>
	<path class="st0" d="M-461.3,268.8c0.1,0,0.2,0,0.2,0c3.6,0,7.2,0,10.8,0c1.7,0,3.3,0.3,4.8,1c2.7,1.3,4.2,3.4,4.6,6.4
		c0.2,1.8,0.1,3.6-0.6,5.3c-1,2.5-2.9,4.2-5.4,5.1c-1.7,0.6-3.4,0.8-5.2,0.8c-0.5,0-1,0-1.6,0c0,0.1,0,0.2,0,0.3c0,1.4,0,2.8,0,4.2
		c0,0.8-0.4,1.3-1.2,1.3c-2,0-4.1,0-6.1,0c-0.1,0-0.1,0-0.2,0C-461.3,285.1-461.3,277-461.3,268.8z"/>
</g>
</svg>
