<?xml version="1.0" encoding="utf-8"?>
<!-- Generator: Adobe Illustrator 19.1.0, SVG Export Plug-In . SVG Version: 6.00 Build 0)  -->
<svg version="1.1" id="Layer_1" xmlns="http://www.w3.org/2000/svg" xmlns:xlink="http://www.w3.org/1999/xlink" x="0px" y="0px"
	 viewBox="0 0 273 70" style="enable-background:new 0 0 273 70;" xml:space="preserve">
<style type="text/css">
	.st0{fill:#8D0302;}
	.st1{fill:#FFFFFF;}
</style>
<g>
	<circle class="st0" cx="27.5" cy="35" r="25"/>
	<path class="st1" d="M39.7,35c0,6.7-5.5,12.4-12.6,12.2c-6.5-0.2-12-5.6-11.9-12.5c0.2-6.5,5.6-12.1,12.6-11.9
		C34.4,23,39.8,28.3,39.7,35z M24.1,29.6c-0.3,0-0.5,0-0.8,0c-1,0.1-2,0.2-3,0.4c-0.2,0-0.4,0.1-0.6,0.2c-0.5,0.3-0.8,0.9-0.6,1.4
		c0.2,0.5,0.7,0.9,1.3,0.7c1.4-0.3,2.7-0.4,4.1-0.4c0.7,0,1.4,0,2.2,0.1c1.7,0.1,3.3,0.5,4.9,1c1.1,0.4,2.2,0.8,3.3,1.4
		c0.6,0.3,1.2,0.1,1.5-0.5c0.3-0.6,0.1-1.3-0.5-1.5c-0.3-0.2-0.7-0.4-1-0.5c-1.8-0.8-3.7-1.4-5.7-1.8c-1.4-0.3-2.8-0.4-4.2-0.4
		C24.8,29.6,24.5,29.6,24.1,29.6z M24.9,33.8c-0.5,0-1,0-1.5,0.1c-0.9,0.1-1.9,0.2-2.8,0.4c-0.5,0.1-0.8,0.6-0.7,1.1
		c0.1,0.5,0.5,0.8,1,0.8c0.2,0,0.4-0.1,0.6-0.1c1-0.2,2.1-0.3,3.1-0.3c0.7,0,1.4,0,2,0.1c1.3,0.1,2.6,0.4,3.8,0.8
		c1.1,0.3,2.1,0.8,3,1.3c0.5,0.2,1,0.1,1.3-0.4c0.2-0.5,0.1-1-0.4-1.3c-1.1-0.6-2.3-1.1-3.6-1.5C28.9,34.1,26.9,33.8,24.9,33.8z
		 M25,37.6c-0.6,0-1.1,0-1.7,0.1c-0.7,0.1-1.5,0.2-2.2,0.4c-0.4,0.1-0.7,0.5-0.6,0.9c0.1,0.4,0.5,0.6,0.9,0.5
		c1.1-0.3,2.2-0.4,3.3-0.4c0.5,0,1,0,1.5,0.1c1.2,0.1,2.4,0.4,3.6,0.8c0.8,0.3,1.6,0.6,2.3,1.1c0.1,0.1,0.2,0.1,0.4,0.1
		c0.3,0,0.6-0.3,0.7-0.6c0.1-0.3-0.1-0.6-0.4-0.8c-1-0.5-2-1-3-1.3C28.2,37.8,26.6,37.6,25,37.6z"/>
</g>
<g>
	<path class="st1" d="M90.2,27.6l-0.8,1.8c-1.5-1-3.2-1.4-4.5-1.4c-2.1,0-3.5,0.8-3.5,2.2c0,4.2,9.2,2,9.2,7.9
		c0,2.7-2.4,4.5-5.9,4.5c-2.4,0-4.7-1-6.3-2.5l0.8-1.7c1.5,1.5,3.6,2.3,5.4,2.3c2.4,0,3.8-1,3.8-2.5c0-4.3-9.2-2-9.2-7.9
		c0-2.6,2.3-4.2,5.6-4.2C86.9,26.1,88.9,26.7,90.2,27.6z"/>
	<path class="st1" d="M100.6,26.2c4,0,6.4,2,6.4,5.5c0,3.6-2.3,5.7-6.4,5.7h-4.3v5.2h-1.9V26.2H100.6z M96.3,35.6h4.2
		c2.9,0,4.6-1.3,4.6-3.8c0-2.5-1.7-3.7-4.6-3.7h-4.2V35.6z"/>
	<path class="st1" d="M125.6,34.4c0,4.6-3.8,8.3-8.5,8.3c-4.8,0-8.6-3.7-8.6-8.3c0-4.6,3.8-8.2,8.6-8.2
		C121.8,26.2,125.6,29.8,125.6,34.4z M110.4,34.4c0,3.6,3,6.5,6.7,6.5s6.6-2.9,6.6-6.5s-3-6.4-6.6-6.4S110.4,30.8,110.4,34.4z"/>
	<path class="st1" d="M133.8,28v14.5h-1.9V28h-5.3v-1.8h12.5V28H133.8z"/>
	<path class="st1" d="M141.8,42.5V26.2h1.9v16.3H141.8z"/>
	<path class="st1" d="M150.5,28v5.7h7.6v1.8h-7.6v7h-1.9V26.2H159V28H150.5z"/>
	<path class="st1" d="M167.6,42.5h-1.8V37l-6.3-10.8h1.9l5.3,8.5l5.2-8.5h1.9l-6.2,10.7V42.5z"/>
</g>
</svg>
