<?xml version="1.0" encoding="utf-8"?>
<!-- Generator: Adobe Illustrator 19.1.0, SVG Export Plug-In . SVG Version: 6.00 Build 0)  -->
<svg version="1.1" id="Layer_1" xmlns="http://www.w3.org/2000/svg" xmlns:xlink="http://www.w3.org/1999/xlink" x="0px" y="0px"
	 viewBox="-465 267 28 28" style="enable-background:new -465 267 28 28;" xml:space="preserve">
<style type="text/css">
	.st0{fill:#FFFFFF;}
</style>
<g>
	<path class="st0" d="M2893.6,7982.9L2893.6,7982.9L2893.6,7982.9c-198.3,66.1-330.4,132.2-528.7,198.3l0,0l0,0
		c-66.1,0-132.2,0-132.2,66.1l0,0l0,0h-66.1h-66.1c0,0,0,0-66.1,0l0,0l0,0c-66.1,0-66.1,0-132.2,0s-66.1,0-132.2,0s-66.1,0-132.2,0
		h-66.1h-66.1l0,0c-66.1,0-66.1,0-132.2,66.1h-66.1c-66.1,0-132.2,0-264.3,66.1h-66.1H911H845c-66.1,0-198.3,0-264.3,66.1
		c0,0,0,0-66.1,0c0-1850.3,0-3634.6,0-5484.9c0-132.2,66.1-198.3,198.3-198.3c462.6,0,991.3,0,1453.8,0c66.1,0,132.2,0,132.2-132.2
		c66.1-726.9,198.3-1387.8,330.4-2114.7c0-132.2,0-198.3-132.2-198.3c-594.8,0-1189.5,0-1784.3,0c-132.2,0-132.2,0-132.2-132.2
		c0-528.7,0-1057.3,0-1519.9c0-528.7,330.4-793,859.1-793c396.5,0,726.9,0,1123.4,0c132.2,0,198.2,0,198.2-132.2
		c0-594.8,0-1189.5,0-1718.2c0-132.2-66.1-132.2-132.2-132.2c-660.8,0-1321.7,0-2048.6,0c-198.3,0-462.6,66.1-660.8,132.2
		c-991.3,330.4-1652.1,1255.6-1652.1,2312.9c0,660.8,0,1321.7,0,1982.5c0,132.2-66.1,132.2-132.2,132.2c-528.7,0-1123.4,0-1652.1,0
		c-132.2,0-132.2,66.1-132.2,132.2c0,726.9,0,1387.8,0,2114.7c0,132.2,66.1,132.2,132.2,132.2c528.7,0,1123.4,0,1652.1,0
		c132.2,0,198.3,66.1,198.3,198.3c0,1718.2,0,3502.4,0,5220.6c0,66.1,0,66.1,0,132.2s-66.1,132.2-132.2,66.1
		c-330.4-66.1-594.8-132.2-925.2-198.3c-660.8-198.3-1387.8-528.7-1982.5-925.2C-7349.4,5603.9-8737.1,3158.8-8605-13.2
		c132.2-3370.3,1784.3-5815.3,4824.1-7269.2c2180.8-925.2,4691.9-859.1,7004.9,396.5C5536.9-5696.4,6990.7-3780,7519.4-1202.7
		c594.8,2841.6-198.3,5418.8-2246.8,7533.5c-396.5,396.5-859.1,793-1387.8,1123.4l0,0l0,0c-66.1,0-132.2,66.1-132.2,132.2l0,0
		c0,0,0,0-66.1,0l0,0c0,0,0,0-66.1,0l0,0c-66.1,0-132.2,66.1-198.2,132.2l0,0c-66.1,0-132.2,66.1-132.2,66.1l0,0
		c-66.1,0-66.1,0-132.2,66.1l0,0l0,0c-66.1,0-66.1,0-132.2,66.1l0,0l0,0C2959.6,7916.8,2893.6,7982.9,2893.6,7982.9z"/>
</g>
<path class="st0" d="M-438.5,281c0,6.9-5.7,12.7-12.9,12.5c-6.7-0.2-12.3-5.7-12.1-12.8c0.2-6.7,5.7-12.4,12.9-12.2
	C-443.9,268.7-438.5,274.2-438.5,281z M-454.5,275.5c-0.3,0-0.6,0-0.8,0c-1,0.1-2,0.2-3,0.4c-0.2,0-0.4,0.1-0.6,0.2
	c-0.5,0.3-0.8,0.9-0.6,1.5c0.2,0.6,0.8,0.9,1.3,0.8c1.4-0.3,2.8-0.4,4.2-0.4c0.7,0,1.5,0,2.2,0.1c1.7,0.2,3.4,0.5,5,1
	c1.2,0.4,2.3,0.9,3.4,1.4c0.6,0.3,1.3,0.1,1.6-0.5c0.3-0.6,0.1-1.3-0.5-1.6c-0.4-0.2-0.7-0.4-1.1-0.5c-1.9-0.9-3.8-1.5-5.9-1.9
	c-1.4-0.3-2.9-0.4-4.3-0.4C-453.8,275.4-454.2,275.4-454.5,275.5z M-453.7,279.8c-0.5,0-1,0-1.5,0.1c-1,0.1-1.9,0.2-2.8,0.4
	c-0.5,0.1-0.8,0.6-0.8,1.1c0.1,0.5,0.5,0.8,1,0.8c0.2,0,0.4-0.1,0.6-0.1c1.1-0.2,2.1-0.3,3.2-0.3c0.7,0,1.4,0,2.1,0.1
	c1.3,0.1,2.6,0.4,3.9,0.8c1.1,0.3,2.1,0.8,3.1,1.3c0.5,0.3,1,0.1,1.3-0.4c0.2-0.5,0.1-1-0.4-1.3c-1.2-0.6-2.4-1.1-3.7-1.5
	C-449.6,280.1-451.7,279.8-453.7,279.8z M-453.6,283.6c-0.6,0-1.2,0-1.7,0.1c-0.8,0.1-1.5,0.2-2.3,0.4c-0.4,0.1-0.7,0.5-0.6,0.9
	c0.1,0.4,0.5,0.7,0.9,0.6c1.1-0.3,2.2-0.4,3.4-0.4c0.5,0,1,0,1.6,0.1c1.3,0.1,2.5,0.4,3.7,0.8c0.8,0.3,1.6,0.7,2.4,1.1
	c0.1,0.1,0.2,0.1,0.4,0.1c0.3,0,0.6-0.3,0.7-0.6c0.1-0.3-0.1-0.6-0.4-0.8c-1-0.6-2-1-3.1-1.4C-450.3,283.9-452,283.7-453.6,283.6z"
	/>
</svg>
