<?xml version="1.0" encoding="utf-8"?>
<!-- Generator: Adobe Illustrator 19.1.0, SVG Export Plug-In . SVG Version: 6.00 Build 0)  -->
<svg version="1.1" id="Layer_1" xmlns="http://www.w3.org/2000/svg" xmlns:xlink="http://www.w3.org/1999/xlink" x="0px" y="0px"
	 viewBox="0 0 722.2 345.6" style="enable-background:new 0 0 722.2 345.6;" xml:space="preserve">
<style type="text/css">
	.st0{fill:#FFFFFF;}
</style>
<g>
	<g>
		<path class="st0" d="M48.3,80.7c0,10.6-8.5,12.8-11.6,12.8c-1.5,0-4.2,0.2-6.5,0.4c-1.4,0.1-2.8,0.3-4.3,0.4
			c-0.1,3.3-0.1,6.3-0.1,8.9c0,4.6,0,9.3,0.2,10c0.4,1.5-1.4,2.4-2.4,1.9c-0.2-0.1-0.6-0.1-1.2-0.1c-1.3,0-3.3,0.1-4.6,0.3
			c-1.7,0.2-1.9-1-1.9-2.4c0-1.4,0.1-5.8,0.1-8.8c0-2.6,0.6-23.7,0.6-32c0-1.5,0-2.6-0.1-3.1c-0.1-0.8-0.1-1.4-0.1-1.9
			c0-1.5,0.4-1.9,0.9-1.9c0.6,0.1,2.7,0.1,4.5,0.1c0.8,0,4.1-0.1,7.8-0.1c2.4,0,4.9,0.1,7.2,0.2C42.7,66,48.3,70.1,48.3,80.7z
			 M34.7,88.3c2.5,0,7.2-1.1,7.2-7.2c0-6.1-2.6-8.6-7-9.5c-4.3-0.9-7.3-0.9-8.4-0.9c0,1,0,2-0.1,3c-0.1,1.7-0.1,3.8-0.4,5.7
			c-0.2,1.9-0.2,4-0.1,5.6l0.1,2.8l3.3,0.2C31.3,88.3,33.3,88.3,34.7,88.3z"/>
		<path class="st0" d="M52.2,107.1c0.2-1.1,0.8-3.3,1.4-5.2c0.6-2,1.9-6.1,2.3-8.2c0.5-2.2,1.5-5.1,1.9-6.8c0.4-1.7,1.4-5.2,1.9-7.3
			c0.6-2.1,1.1-3.9,1.6-5c0.4-1.1,1.9-5.1,2.2-7c0.6-2,1.1-3.4,2.5-3.4c0.6,0,1.1,1.6,1.9,3.6c0.8,1.9,2.2,7.6,2.6,8.8
			c0.2,1.3,3.3,9.6,3.7,10.9c0.6,1.4,3.1,8.4,3.8,10.2c0.6,1.7,2.4,6.9,2.9,9.1c0.6,2.3,2.5,6.8,2.8,7.8c0.1,0.4,0.2,0.6,0.2,0.7
			c0,0.2-0.1,0.3-0.8,0.3h-4c-0.4,0-0.6-0.1-0.8-0.6c-0.4-0.9-0.6-1.8-0.8-2.6c-0.5-1.4-0.8-2.7-0.9-3.2c-0.2-1.1-0.9-3.7-1.5-4.8
			c-0.3-0.6-0.8-1.9-1.1-3.1l-0.6-2.1C73,98,72.9,98,72.4,98c-0.8,0-1.5,0-2.2,0.1c-1.2,0.1-2.6,0.1-3.1,0.1c-0.6,0.1-3,0.1-5.3,0.1
			h-4.3c-0.1,0-0.1,0-0.1,0c-0.3,0-0.5,0.2-0.6,0.8l-0.1,0.7l-0.3,1.4c-0.4,1.1-1.4,6.7-1.6,7.3c-0.1,0.6-0.4,1.8-0.6,2.4
			c-0.2,0.3-0.4,1.4-0.7,2.3c-0.2,0.6-0.4,1.2-0.5,1.9c-0.2,0.6-0.1,0.6-0.8,0.6h-1.4c-0.5,0-0.6-0.3-0.4-0.9c0-0.1,0-0.2,0.1-0.4
			c0.1-0.2,0.1-0.5,0.3-1l0.6-2.6C51.4,109.8,52,108.5,52.2,107.1z M71.4,92.9c0-0.3-0.2-0.9-0.5-1.6c-0.6-1.3-1.8-5.9-2.6-8.1
			c-0.7-2.1-2.3-7.6-2.5-8.8c-0.4-1.3-1.1-3.8-1.4-3.8c-0.3,0-0.6,1.9-1.1,3.5c-0.4,1.6-2.1,8-2.7,9.7c-0.4,1.7-1.8,7.1-2.4,8.5
			c-0.1,0.2-0.1,0.4-0.1,0.5c0,0.9,1.4,0.7,2,0.7c0.7,0,3.2-0.1,4.1-0.1c0.4-0.1,1.4-0.1,2.4-0.1c1.4,0,3.1,0.1,3.8,0.1
			C71.2,93.4,71.4,93.2,71.4,92.9z"/>
		<path class="st0" d="M86.8,68.8c-0.4-0.7-0.5-1.7-0.5-3c0-2.1,2.6-3.8,5-3.8c2.4,0,4.8,1.1,5.3,5.3c0,2.3,0.1,5.6-0.9,8.8
			c-0.9,2.4-2.1,4.8-3.8,7.2c-0.1,0.2-0.4,0.3-0.6,0.3c-1.1,0-2.7-1.8-2.8-2c0.1-1.1,2.2-2.5,2.8-5.3c0.1-0.9,0.2-1.6,0.2-2.1
			c0-1.6-0.6-2.2-1.6-2.8C88.2,70.4,87.1,69.5,86.8,68.8z"/>
		<path class="st0" d="M165.1,115c0,0.3-0.3,0.4-0.6,0.4c-0.6-0.1-2.7,0.1-4.3,0.1c-1.6,0-2.2-0.4-3.1-1.9c-0.2-0.4-0.7-1.1-1.4-2
			c-2.6,2.5-6.1,4.1-10.6,4.1c-10.6,0-16-5.8-18.8-11.6c-1.6-3.4-2.6-7.3-2.9-11.7c0-22.6,11.7-27.4,20-27.4
			c16.7,0,20.3,14.2,20.3,21.7c0,4.4-0.6,14.2-4.8,21c2.3,2.8,4.6,5.4,5.3,6.1C164.9,114.3,165.1,114.8,165.1,115z M147,99.1
			c0.5,0,1.9-0.1,4-0.4s2.1,1.4,2.8,2.7c0.2,0.5,1.1,1.5,2.2,2.8c2.6-4.3,3.8-9.8,3.8-14.1c0-8.6-2.3-21.2-16.5-21.2
			c-4.3,0-16.6,5.6-16.6,20.7s6.9,22.1,17.7,22.1c3.6,0,6.5-1.4,8.8-3.7l-5.3-7.1C146.8,99.6,146.5,99.1,147,99.1z"/>
		<path class="st0" d="M190.4,100.2c4.3,0,4.8-4.5,4.8-6.7c0-1.6,0.3-8.1,0.3-12.4c0-1.1,0-2-0.1-2.7c0-3.5-0.4-9.8-0.4-11.5
			s0.4-2.3,1.7-2.3h9c0.3,0,0.6-0.1,1.1-0.1c0.8,0,1.6,0.3,1.8,2.1c0.1,1.2,0.1,4.6,0.1,8.4c0,5.8-0.1,12.7-0.1,15.3
			c0,4.3-1.4,24.7-18.2,24.7c-16.9,0-18-12.5-18.2-16.2c-0.1-0.7-0.1-1.7-0.1-2.8c0-5.1,0.4-13.5,0.3-17.3c0-4.8-0.2-10.4-0.2-11.8
			c0-1.4-0.4-2.6,1.6-2.6c1.2,0.1,2.5,0.1,3.7,0.1c0.8,0,1.6-0.1,2.4-0.1c0.8-0.1,1.7-0.1,2.6-0.1c1.2,0,2.4,0.1,2.8,0.1
			c0.9,0,1,0.4,1.1,1.5v28.5C186.3,96,186.1,100.2,190.4,100.2z"/>
		<path class="st0" d="M217.4,88c0-5.5-0.4-6-0.4-10.3c0-4.3,0.1-8.5,0.2-10.5c0-1.4,0.6-1.6,1.4-1.6c0.4,0,0.7,0.1,1.1,0.1
			c1.1,0,2.4,0.2,5.6,0.2c3.1,0,7.9-0.6,10.7-0.6c2.9,0,6.6,0.3,7.9,0.3c1.4,0,1.5,0.6,1.5,2c0,1.5,0.3,3.2,0.3,5.4
			c0,0.6,0,1.4-0.2,2.6c-0.1,0.9-0.5,1.1-1,1.1c-0.5,0-1.1-0.3-1.6-0.4c-1.1-0.2-3.2-0.2-6.2-0.2c-1.8,0-3.6-0.1-5.4-0.1
			c-0.6,0-1.3,0-1.9,0.1c-1.1,0.1-2.4,0.1-3.8,0.1c-1.7,0-3.3-0.1-3.8-0.1c-0.8,0-0.7,0.4-0.7,1.4c0,1.1-0.2,4.3-0.2,6.8v4.2
			c0,0.8,0,1.5,0.1,2.3c0.6,0.1,1.2,0.1,1.9,0.1c1.2,0.1,3,0.1,5,0.1c2.6,0,5.8-0.3,7.6-0.3c1.7,0,2.7,0.2,3.5,0.2
			c0.8,0,0.9,0.4,0.9,0.9s-0.1,0.9-0.1,2.2c0,1.4,0.1,2,0.1,3.8c0,0.9-0.2,1.1-0.6,1.1c-0.3,0-0.8-0.2-1.3-0.2
			c-1.1,0-2.6-0.1-7.1-0.1c-4.6,0-7.6,0.6-8.4,0.6c-0.5,0-0.8,0-0.9-0.1c-0.2,0-0.4,0-0.4-0.1v7.1c0.2,0,0.5,0,0.8-0.1
			c0.5,0,1.2-0.1,2-0.1c1.6,0,5.2-0.1,8.4-0.1c2.4,0,6.1,0.1,9,0.1c1.3,0,2.4-0.1,3-0.1c1.2,0,1.4,0.6,1.4,1.5c0,0.4-0.1,1-0.1,1.4
			c0,1.4-0.1,2.9-0.1,5c0,2-1.1,1.6-3.4,1.6c-2.4,0-9.2-0.1-12.5-0.1c-3.4,0-10.3,0.3-11.3,0.3c-0.1,0-0.3,0.1-0.4,0.1
			c-0.6,0-0.6-0.6-0.6-1.2c-0.1-0.8-0.1-1.8-0.1-2.6c0-0.9-0.1-1.6-0.1-3.1V99C216.9,94.7,217.4,93.5,217.4,88z"/>
		<path class="st0" d="M288.3,65.7c6.6,0,21.6,4.3,21.6,27.4c0,21.4-19.9,22.3-22.7,22.3c-2.8,0-7.9,0.1-9.7,0.1
			c-1.1,0-1.4-1.1-1.4-2.4c0-0.6,0.1-1.3,0.1-1.9c0-1.7-0.2-5.3-0.2-6.8c0-1.4-0.4-4.9-0.4-10.5c0-5.6,0.6-9.1,0.6-14.8
			c0-5.8-0.1-10.6-0.1-12.1c0-1.4,3.1-1.1,4.8-1.1l2.6-0.1C284.9,65.7,286.6,65.7,288.3,65.7z M292,97.7c1.8-1.7,3.6-4.4,3.6-8.1
			c0-3.6-1.7-5.8-3.4-7.2c-1-0.8-2.1-1.4-3.3-1.7c0.1,0.8,0.1,1.6,0.1,2.4c0,2.5-0.3,5.2-0.3,7.5c0,1.6-0.1,3.9-0.1,6
			c-0.1,1.2-0.1,2.5-0.1,3.7C289.7,99.6,290.9,98.8,292,97.7z"/>
		<path class="st0" d="M334.8,100.2c4.3,0,4.8-4.5,4.8-6.7c0-1.6,0.3-8.1,0.3-12.4c0-1.1,0-2-0.1-2.7c0-3.5-0.4-9.8-0.4-11.5
			s0.4-2.3,1.7-2.3h9c0.3,0,0.6-0.1,1.1-0.1c0.8,0,1.6,0.3,1.8,2.1c0.1,1.2,0.1,4.6,0.1,8.4c0,5.8-0.1,12.7-0.1,15.3
			c0,4.3-1.4,24.7-18.2,24.7c-16.9,0-18-12.5-18.2-16.2c-0.1-0.7-0.1-1.7-0.1-2.8c0-5.1,0.4-13.5,0.3-17.3c0-4.8-0.2-10.4-0.2-11.8
			c0-1.4-0.4-2.6,1.6-2.6c1.2,0.1,2.5,0.1,3.7,0.1c0.8,0,1.6-0.1,2.4-0.1c0.8-0.1,1.7-0.1,2.6-0.1c1.2,0,2.4,0.1,2.8,0.1
			c0.9,0,1,0.4,1.1,1.5v28.5C330.6,96,330.4,100.2,334.8,100.2z"/>
		<path class="st0" d="M361.8,88c0-5.5-0.4-6-0.4-10.3c0-4.3,0.1-8.5,0.2-10.5c0-1.4,0.6-1.6,1.4-1.6c0.4,0,0.7,0.1,1.1,0.1
			c1.1,0,2.4,0.2,5.6,0.2c3.1,0,7.9-0.6,10.7-0.6c2.9,0,6.6,0.3,7.9,0.3c1.4,0,1.5,0.6,1.5,2c0,1.5,0.3,3.2,0.3,5.4
			c0,0.6,0,1.4-0.2,2.6c-0.1,0.9-0.5,1.1-1,1.1c-0.5,0-1.1-0.3-1.6-0.4c-1.1-0.2-3.2-0.2-6.2-0.2c-1.8,0-3.6-0.1-5.4-0.1
			c-0.6,0-1.3,0-1.9,0.1c-1.1,0.1-2.4,0.1-3.8,0.1c-1.7,0-3.3-0.1-3.8-0.1c-0.8,0-0.7,0.4-0.7,1.4c0,1.1-0.2,4.3-0.2,6.8v4.2
			c0,0.8,0,1.5,0.1,2.3c0.6,0.1,1.2,0.1,1.9,0.1c1.2,0.1,3,0.1,5,0.1c2.6,0,5.8-0.3,7.6-0.3c1.7,0,2.7,0.2,3.5,0.2
			c0.8,0,0.9,0.4,0.9,0.9S384,92.7,384,94c0,1.4,0.1,2,0.1,3.8c0,0.9-0.2,1.1-0.6,1.1c-0.3,0-0.8-0.2-1.3-0.2
			c-1.1,0-2.6-0.1-7.1-0.1c-4.6,0-7.6,0.6-8.4,0.6c-0.5,0-0.8,0-0.9-0.1c-0.2,0-0.4,0-0.4-0.1v7.1c0.2,0,0.5,0,0.8-0.1
			c0.5,0,1.2-0.1,2-0.1c1.6,0,5.2-0.1,8.4-0.1c2.4,0,6.1,0.1,9,0.1c1.3,0,2.4-0.1,3-0.1c1.2,0,1.4,0.6,1.4,1.5c0,0.4-0.1,1-0.1,1.4
			c0,1.4-0.1,2.9-0.1,5c0,2-1.1,1.6-3.4,1.6c-2.4,0-9.2-0.1-12.5-0.1c-3.4,0-10.3,0.3-11.3,0.3c-0.1,0-0.3,0.1-0.4,0.1
			c-0.6,0-0.6-0.6-0.6-1.2c-0.1-0.8-0.1-1.8-0.1-2.6c0-0.9-0.1-1.6-0.1-3.1V99C361.3,94.7,361.8,93.5,361.8,88z"/>
		<path class="st0" d="M435.3,114.8c0,0.1,0.1,0.3,0.1,0.4c0,0.5-0.5,0.6-1.6,0.6c-1.4,0-11.5-0.2-14-0.2c-2.1,0-8.8,0.4-11.6,0.4
			c-0.6,0-1-0.1-1.2-0.1c-0.4-0.1-1-0.1-1.6-0.1c-1.8,0-4.2,0.1-5.4,0.1c-1.6,0-1.2-0.5-1.2-1.9c0-1.1,0.4-11.1,0.4-12.8
			c0-1.4-0.4-6.3-0.4-8.6c0,3.4,0.9-11.8,0.9-13.9l-0.1-8.1c0-0.6-0.1-3.6-0.1-4.6v-0.1c0-0.9,1.1-0.5,1.8-0.5
			c0.6,0,1.1,0.1,2.7,0.1c0.3,0,0.5,0,0.6,0c0.3,0,0.4,0.1,0.4,0.6c0,0.6-0.5,12.9-0.5,15l-0.1,10.2c0,1.1,0.1,4.5,0.1,6.6
			c0,0.9,0,1.5-0.1,1.9c-0.1,0.6,0,1,0,1.3c0,0.2,0,0.3,0.1,0.4l1.7,0.1c1.1,0.1,2.4,0.1,3.8,0.1c2.6,0,10.5-0.1,13.2-0.1
			c2.7,0,9.8,0.3,10.8,0.3c0.6,0.1,0.8,0.2,0.8,0.4c0,0.2-0.1,0.5-0.1,0.8v3.3C434.6,107.9,435.3,114,435.3,114.8z"/>
		<path class="st0" d="M451.8,64.4c0.3-0.7,0.6-0.9,1-0.5c0.5,0.4,0.6,1.1,0.9,2c0.2,1,2.8,6.4,3.8,8.5c1.1,2.2,2.1,4.8,3.1,7.6
			c0.9,2.8,4.6,10.1,6.1,13.5c1.5,3.3,5.1,10.2,6.1,12.1c0.9,1.9,2.4,5.3,3.3,6.4c0.2,0.4,0.4,0.7,0.4,0.9c0,0.5-0.6,0.6-1.3,0.6
			H470c-0.6,0-0.9-1.3-1.4-2.4c-0.6-1.1-2.4-6.2-2.8-7.3c-0.4-1.1-1.3-2.9-1.8-4.1c-0.4-1.2-0.7-1.4-1.3-1.4c-0.5,0-1.6,0.1-2.9,0.2
			c-1.1,0.2-5.6,0.1-7.6,0.3c-0.6,0.1-1.5,0.1-2.3,0.1c-1.7,0-3.4-0.1-3.8-0.1c-0.6,0-0.7,0.8-0.9,1.6c-0.1,0.7-1.3,5.2-1.5,6.6
			l-0.8,3.1l-0.6,2.1c-0.3,1.1-0.4,1.4-0.9,1.4h-4.2c-0.3,0-0.4-0.1-0.4-0.3s0.1-0.6,0.3-1c0.3-0.6,0.4-0.8,1-2.7s2.6-8.5,3.1-11.5
			c0.6-3.2,1.9-7,2.6-9.2c0.6-2.4,0.9-3.5,1.9-6.8c0.9-3.3,1.9-6.8,2.7-9.3l1.8-5.7C450.9,66.7,451.5,65.2,451.8,64.4z M459,90.2
			c0-0.1-0.1-0.3-0.2-0.6c-0.5-0.9-2.7-6-3.4-8.1c-0.9-2.2-1.5-4.1-1.7-4.4c-0.5-1.1-0.6-1.5-0.9-1.5c-0.3,0-0.5,1.4-0.9,2.7
			c-0.4,1.1-1.5,4.9-1.9,6.3c-0.4,1.5-1.2,3.6-1.6,4.7c-0.1,0.5-0.2,0.9-0.2,1.1c0,0.3,0.1,0.4,0.6,0.4c0.9,0,7.3-0.1,8.5-0.4
			C458.4,90.5,459,90.6,459,90.2z"/>
		<path class="st0" d="M510,89.3c0,2.2-0.1,11.5-0.1,14l-0.1,11.1c0,1.1-0.9,0.9-2,0.9c-0.9,0-2.4,0.2-3.4,0.2
			c-1.5,0-1.4-0.6-1.4-2.4c0-1.4-0.2-10.3-0.2-13.3s0.7-12.7,0.7-15.2s0.1-11.3,0.1-13.4c0-1-0.1-2.5-0.1-3.8c0-1.4,0.1-2.6,0.4-2.8
			c0.2-0.2,0.4-0.2,0.5-0.2c0.4,0,0.7,0.4,1.7,0.2c0.6-0.1,1.2-0.1,1.8-0.1c0.7,0,1.4,0,2,0.1c1.2,0.4,1.4,2.7,1.8,4.5
			c0.6,2.9,3.1,8.8,4.2,11.3c1.4,2.3,4.1,8.7,5.1,11.5c0.5,1.4,1.5,3.5,2.3,5.4l1.5,3.3c1.1-2.1,2.1-4,3-5.9l4.6-9.3
			c2.3-4.4,5.1-10.3,6.6-13c1.4-2.7,4-7.6,5-7.6c0.4,0,0.6,0.4,0.6,0.9c0,1.1-0.5,2.8-0.6,4.1c-0.3,1.9-0.3,14-0.3,17.1
			c0,3.3-0.3,12.3-0.5,14.5c-0.1,0.9-0.1,3.2-0.1,5.5c0,3.1,0.1,6.3,0.1,6.9c0,0.1,0,0.3,0,0.4c0,0.7-0.2,0.8-0.4,0.7
			c-0.1,0-0.1,0-0.1,0c-0.4,0-1.2,0.1-1.8,0.1c-0.4-0.1-0.5-0.5-0.5-1.4c0,3.1-0.1-10.1,0.1-12.8c0.2-2.1,0.5-10,0.5-12.1
			c-0.1-1.1,0.1-3.8,0.1-6.6l0.1-5.1c-0.4,0.5-0.6,1-0.9,1.5c-0.5,0.9-1,1.9-1.4,2.6c-0.8,1.6-5.3,10.6-6.2,12.3
			c-0.9,1.7-5.7,11.6-6.3,13c-0.6,1.4-1.9,4.3-2.1,4.3c-0.3,0-0.6-0.6-1.2-1.6c-0.8-1.1-2.6-5.7-3.3-7.8c-0.7-2.1-5.4-10.2-6.3-12.3
			c-0.5-1.1-1.3-3.1-1.9-4.8c-0.4-1-0.9-2.1-1.2-3.1l-0.1,3.1C510.1,86.2,510,88.2,510,89.3z"/>
		<path class="st0" d="M553.6,88c0-5.5-0.4-6-0.4-10.3c0-4.3,0.1-8.5,0.2-10.5c0-1.4,0.6-1.6,1.4-1.6c0.4,0,0.7,0.1,1.1,0.1
			c1.1,0,2.4,0.2,5.6,0.2c3.1,0,7.9-0.6,10.7-0.6c2.9,0,6.6,0.3,7.9,0.3c1.4,0,1.5,0.6,1.5,2c0,1.5,0.3,3.2,0.3,5.4
			c0,0.6,0,1.4-0.2,2.6c-0.1,0.9-0.5,1.1-1,1.1c-0.5,0-1.1-0.3-1.6-0.4c-1.1-0.2-3.2-0.2-6.2-0.2c-1.8,0-3.6-0.1-5.4-0.1
			c-0.6,0-1.3,0-1.9,0.1c-1.1,0.1-2.4,0.1-3.8,0.1c-1.7,0-3.3-0.1-3.8-0.1c-0.8,0-0.7,0.4-0.7,1.4c0,1.1-0.2,4.3-0.2,6.8v4.2
			c0,0.8,0,1.5,0.1,2.3c0.6,0.1,1.2,0.1,1.9,0.1c1.2,0.1,3,0.1,5,0.1c2.6,0,5.8-0.3,7.6-0.3s2.7,0.2,3.5,0.2c0.8,0,0.9,0.4,0.9,0.9
			s-0.1,0.9-0.1,2.2c0,1.4,0.1,2,0.1,3.8c0,0.9-0.2,1.1-0.6,1.1c-0.3,0-0.8-0.2-1.3-0.2c-1.1,0-2.6-0.1-7.1-0.1
			c-4.6,0-7.6,0.6-8.4,0.6c-0.5,0-0.8,0-0.9-0.1c-0.2,0-0.4,0-0.4-0.1v7.1c0.2,0,0.5,0,0.8-0.1c0.5,0,1.2-0.1,2-0.1
			c1.6,0,5.2-0.1,8.4-0.1c2.4,0,6.1,0.1,9,0.1c1.3,0,2.4-0.1,3-0.1c1.2,0,1.4,0.6,1.4,1.5c0,0.4-0.1,1-0.1,1.4c0,1.4-0.1,2.9-0.1,5
			c0,2-1.1,1.6-3.4,1.6c-2.4,0-9.2-0.1-12.5-0.1c-3.4,0-10.3,0.3-11.3,0.3c-0.1,0-0.3,0.1-0.4,0.1c-0.6,0-0.6-0.6-0.6-1.2
			c-0.1-0.8-0.1-1.8-0.1-2.6c0-0.9-0.1-1.6-0.1-3.1V99C553.1,94.7,553.6,93.5,553.6,88z"/>
		<path class="st0" d="M610.5,65.7c0-2.1,2.1-1.9,3.6-1.9c1.5,0,5.8-0.2,7.8-0.6c2-0.2,2,1,1.7,3.2c-0.1,1.1-0.1,7.5-0.1,14.2
			c0,6.6,0,13.7,0,16.1c0,6.1,0.5,21,0.5,17.8c0,0.9-0.4,1.1-1.1,1.1c-0.2,0-0.5,0-0.9-0.1c-0.3-0.1-0.7-0.1-1.1-0.1
			c-1.6,0-3.9,0.3-5.5,0.3c-1.9,0-2.6-0.8-3.4-2.6c-1-1.9-2.8-6.3-5-9.9c-1.1-1.8-3-5.4-4.7-8.6l-3.1-5.9v2.7c0,1.6-0.1,3.3,0,5
			c0,3.2,0.1,15,0.4,16.9c0.1,0.4,0.1,0.6,0.1,0.9c0,1.1-0.5,1.1-1.4,1c-1.1,0-4,0.2-5.6,0.4c-1.5,0.2-1.7-0.3-1.6-2.6
			c0-2.2-0.4-12.2-0.6-20.8c0-6.1,0.4-14,0.4-19.2c0-2.1-0.1-3.8-0.2-4.8c-0.1-0.6-0.1-1.1-0.1-1.6c0-2,0.9-2.3,1.9-2.2
			c1.1,0.1,1.9,0.1,4.2-0.4c0.8-0.1,1.2-0.1,1.6-0.1c0.8,0,1.2,0.1,3.3,0.1c3,0,4.5,3.9,5.8,6.2c0.6,1.2,1.4,2.4,2.1,3.3l1.1,1.6
			v-3.9C610.4,69.1,610.4,66.7,610.5,65.7z"/>
		<path class="st0" d="M671.2,90.2c0,4.8-1.4,26.1-20.5,26.1c-9.6,0-14.3-6.8-16.8-13.8c-1.4-4.1-2.3-8.6-2.5-13.8
			c0-12.8,9.1-24.4,18.5-24.4c3.9,0,7.3-0.1,9.8,1.5C669.1,72.1,671.2,86.4,671.2,90.2z M665.3,90.2c0-11.6-5.5-21.7-14-21.7
			c-2.6,0-4.6-0.2-6.6,2c-2.1,2.1-8.8,7.8-8.8,19c0,11.2,3.8,22.8,14.4,22.8C661,112.3,665.3,101.9,665.3,90.2z"/>
		<path class="st0" d="M711.1,72.2c0.2,0.2,0.3,0.4,0.3,0.6c0,0.3-0.2,0.6-0.4,1c-0.5,0.6-1.7,2.7-2.5,3.6c-0.6,0.8-0.6,1.2-1.4,1.2
			c-0.7,0-7.3-7.3-12.5-7.3c-1.9,0-4.6,0.1-4.6,4.9c0,4.7,5.1,6.7,8.3,8.1c3.3,1.5,13.9,4.9,13.9,19.1c0,9.4-7.7,13.7-19.3,13.7
			c-11.6,0-15.3-7.4-16-8.1c-0.2-0.3-0.3-0.5-0.3-0.7c0-0.3,0.2-0.5,0.6-0.9c0.6-0.8,1.9-2.3,2.7-3.1c0.2-0.2,0.4-0.3,0.6-0.3
			c0.5,0,0.9,0.8,1.5,1.4c0.8,0.8,4,4.2,9.5,4.2c2.6,0,6.7-0.6,6.7-4.9c0-4.4-4.6-8.2-7.8-10.5c-3.2-2.3-13-5.6-13-14.7
			c0-9.2,10.4-15,15.6-15C703.9,64.5,710.5,71.7,711.1,72.2z"/>
	</g>
	<g>
		<path class="st0" d="M209.4,11.3v8.5h13.1v2.9h-13.1v8.9h15.1v2.8h-18.1V8.4H224v2.9H209.4z"/>
		<path class="st0" d="M241,8.4c7.6,0,13.3,5.6,13.3,13c0,7.4-5.8,13-13.4,13h-10.4V8.4H241z M233.5,31.5h7.6
			c5.8,0,10.3-4.3,10.3-10.1c0-5.8-4.6-10.1-10.4-10.1h-7.4V31.5z"/>
		<path class="st0" d="M278.3,34.3l-15.5-20.8v20.8h-3V8.4h3.1l15.5,20.8V8.4h2.9v25.9H278.3z"/>
		<path class="st0" d="M289.2,34.3V8.4h3v25.9H289.2z"/>
		<path class="st0" d="M307.9,11.3v23.1h-3V11.3h-8.4V8.4h19.9v2.9H307.9z"/>
		<path class="st0" d="M320.5,27.8l-2.9,6.6h-3.1l11.6-25.9h3.1l11.6,25.9h-3.2l-2.9-6.6H320.5z M327.5,11.8l-5.8,13.1h11.6
			L327.5,11.8z"/>
		<path class="st0" d="M373.5,34.3l-15.5-20.8v20.8h-3V8.4h3.1l15.5,20.8V8.4h2.9v25.9H373.5z"/>
		<path class="st0" d="M386.7,27.8l-2.9,6.6h-3.1l11.6-25.9h3.1l11.6,25.9h-3.2l-2.9-6.6H386.7z M393.7,11.8l-5.8,13.1h11.6
			L393.7,11.8z"/>
		<path class="st0" d="M412.5,31.5h17.4l0,2.8h-21.2V32l17.2-20.7h-16.7V8.4h20.6v2.4L412.5,31.5z"/>
		<path class="st0" d="M437.7,27.8l-2.9,6.6h-3.1l11.6-25.9h3.1l11.6,25.9h-3.2l-2.9-6.6H437.7z M444.7,11.8l-5.8,13.1h11.6
			L444.7,11.8z"/>
		<path class="st0" d="M473.6,26.1c-0.6,0-1.1,0.1-1.7,0.1H465v8.2h-3V8.4h9.8c6.5,0,10.2,3.2,10.2,8.7c0,4.3-2.1,7.2-5.8,8.4
			l6.1,8.8h-3.4L473.6,26.1z M471.8,23.3c4.7,0,7.4-2.1,7.4-6.1c0-3.9-2.7-5.9-7.4-5.9H465v12H471.8z"/>
		<path class="st0" d="M488.8,34.3V8.4h3v25.9H488.8z"/>
		<path class="st0" d="M524.3,21.4c0,7.3-6,13.1-13.5,13.1c-7.6,0-13.6-5.8-13.6-13.1c0-7.3,6-13,13.6-13
			C518.3,8.4,524.3,14.1,524.3,21.4z M500.1,21.4c0,5.7,4.8,10.3,10.6,10.3c5.8,0,10.5-4.6,10.5-10.3c0-5.7-4.7-10.2-10.5-10.2
			C504.9,11.2,500.1,15.7,500.1,21.4z"/>
	</g>
	<g>
		<path class="st0" d="M286.2,310.7c6.9,0,10.9,3.4,10.9,9.4c0,6.2-4,9.8-10.9,9.8h-7.3v8.8h-3.2v-28H286.2z M278.9,326.8h7.2
			c5,0,8-2.2,8-6.6c0-4.2-2.9-6.4-8-6.4h-7.2V326.8z"/>
		<path class="st0" d="M315,329.8c-0.6,0-1.2,0.1-1.9,0.1h-7.4v8.8h-3.2v-28h10.6c7,0,11,3.4,11,9.4c0,4.6-2.2,7.8-6.3,9.1l6.6,9.5
			h-3.6L315,329.8z M313.1,326.8c5.1,0,8-2.2,8-6.6c0-4.2-2.9-6.4-8-6.4h-7.4v13H313.1z"/>
		<path class="st0" d="M334.6,313.8v9.2h14.1v3.1h-14.1v9.6h16.3v3h-19.5v-28h19v3.1H334.6z"/>
		<path class="st0" d="M374.6,313.2l-1.4,3c-2.5-1.7-5.5-2.4-7.7-2.4c-3.6,0-6,1.4-6,3.7c0,7.2,15.8,3.4,15.7,13.6
			c0,4.7-4.1,7.7-10.1,7.7c-4.1,0-8.1-1.8-10.7-4.3l1.4-2.9c2.6,2.5,6.2,4,9.3,4c4,0,6.6-1.6,6.6-4.3c0-7.4-15.7-3.4-15.7-13.5
			c0-4.4,3.9-7.2,9.7-7.2C369,310.6,372.3,311.6,374.6,313.2z"/>
		<path class="st0" d="M384,331.6l-3.1,7.1h-3.4l12.6-28h3.3l12.5,28h-3.5l-3.1-7.1H384z M391.6,314.3l-6.2,14.2h12.6L391.6,314.3z"
			/>
		<path class="st0" d="M415.8,338.7l-11.4-28h3.4l9.6,24.3l9.7-24.3h3.4l-11.4,28H415.8z"/>
		<path class="st0" d="M438.2,313.8v9.2h14.1v3.1h-14.1v9.6h16.3v3H435v-28h19v3.1H438.2z"/>
	</g>
	<g>
		<path class="st0" d="M18.6,224.2v-50.4H7.1v-6.1H25v56.6H18.6z"/>
		<path class="st0" d="M91.4,181.2c0,5.4-4,12-10,18.3L64,218h30.6v6.1H55.8v-5.3l21.2-23c4.8-4.8,7.8-10,7.8-13.7
			c0-5.5-4.2-8.8-11.3-8.8c-5.2,0-10.9,2.7-15.4,7l-2.8-5.2c5.5-4.9,12.4-7.8,19.1-7.8C84.6,167.3,91.4,172.8,91.4,181.2z"/>
		<path class="st0" d="M169.2,202.5c0,3.6-2.6,6.4-5.9,6.4s-5.9-2.7-5.9-6.4s2.6-6.2,5.9-6.2S169.2,198.9,169.2,202.5z"/>
		<path class="st0" d="M278.8,195.9c0,18.3-8.3,28.4-23.4,28.4c-15,0-23.4-10.2-23.4-28.4s8.3-28.4,23.4-28.4
			C270.5,167.4,278.8,177.6,278.8,195.9z M238.6,195.9c0,15.3,5.8,23,16.8,23s16.8-7.7,16.8-23c0-15.4-5.8-23-16.8-23
			S238.6,180.5,238.6,195.9z"/>
		<path class="st0" d="M338.8,181.2c0,5.4-4,12-10,18.3L311.4,218H342v6.1h-38.9v-5.3l21.2-23c4.8-4.8,7.8-10,7.8-13.7
			c0-5.5-4.2-8.8-11.3-8.8c-5.2,0-10.9,2.7-15.4,7l-2.8-5.2c5.5-4.9,12.4-7.8,19.1-7.8C332,167.3,338.8,172.8,338.8,181.2z"/>
		<path class="st0" d="M416.6,202.5c0,3.6-2.6,6.4-5.9,6.4s-5.9-2.7-5.9-6.4s2.6-6.2,5.9-6.2S416.6,198.9,416.6,202.5z"/>
		<path class="st0" d="M514.7,181.2c0,5.4-4,12-10,18.3L487.3,218h30.6v6.1H479v-5.3l21.2-23c4.8-4.8,7.8-10,7.8-13.7
			c0-5.5-4.2-8.8-11.3-8.8c-5.2,0-10.9,2.7-15.4,7l-2.8-5.2c5.5-4.9,12.4-7.8,19.1-7.8C507.9,167.3,514.7,172.8,514.7,181.2z"/>
		<path class="st0" d="M589.2,195.9c0,18.3-8.3,28.4-23.4,28.4c-15,0-23.4-10.2-23.4-28.4s8.3-28.4,23.4-28.4
			C580.9,167.4,589.2,177.6,589.2,195.9z M549.1,195.9c0,15.3,5.8,23,16.8,23s16.8-7.7,16.8-23c0-15.4-5.8-23-16.8-23
			S549.1,180.5,549.1,195.9z"/>
		<path class="st0" d="M649.2,181.2c0,5.4-4,12-10,18.3L621.8,218h30.6v6.1h-38.9v-5.3l21.2-23c4.8-4.8,7.8-10,7.8-13.7
			c0-5.5-4.2-8.8-11.3-8.8c-5.2,0-10.9,2.7-15.4,7l-2.8-5.2c5.5-4.9,12.4-7.8,19.1-7.8C642.4,167.3,649.2,172.8,649.2,181.2z"/>
		<path class="st0" d="M716.3,171.4l-2.6,5.2c-3.7-2.2-8.6-3.5-13-3.5c-12.1,0-18.2,9.9-17.3,25.2c2.5-6.6,8.6-10.3,16.9-10.3
			c11.1,0,17.9,6.9,17.9,17.8c0,11.6-7.5,18.7-19.2,18.7c-13.7,0-22.1-9.9-22.1-27.4c0-17.9,8.9-29.7,23.3-29.7
			C705.5,167.3,711.7,169,716.3,171.4z M685,206.1c-0.1,5.4,4.1,12.4,13.7,12.4c8,0,13.5-4.8,13.5-12.8c0-7.5-5-12.2-13-12.2
			C690.2,193.4,684.9,199.4,685,206.1z"/>
	</g>
</g>
</svg>
