<?xml version="1.0" encoding="utf-8"?>
<!-- Generator: Adobe Illustrator 19.1.0, SVG Export Plug-In . SVG Version: 6.00 Build 0)  -->
<svg version="1.1" id="Layer_1" xmlns="http://www.w3.org/2000/svg" xmlns:xlink="http://www.w3.org/1999/xlink" x="0px" y="0px"
	 viewBox="55 224.4 722.2 234" style="enable-background:new 55 224.4 722.2 234;" xml:space="preserve">
<style type="text/css">
	.st0{fill:#FFFFFF;}
</style>
<g>
	<g>
		<path class="st0" d="M103.3,305.1c0,10.6-8.5,12.8-11.6,12.8c-1.5,0-4.2,0.2-6.5,0.4c-1.4,0.1-2.8,0.3-4.3,0.4
			c-0.1,3.3-0.1,6.3-0.1,8.9c0,4.6,0,9.3,0.2,10c0.4,1.5-1.4,2.4-2.4,1.9c-0.2-0.1-0.6-0.1-1.2-0.1c-1.3,0-3.3,0.1-4.6,0.3
			c-1.7,0.2-1.9-1-1.9-2.4c0-1.4,0.1-5.8,0.1-8.8c0-2.6,0.6-23.7,0.6-32c0-1.5,0-2.6-0.1-3.1c-0.1-0.8-0.1-1.4-0.1-1.9
			c0-1.5,0.4-1.9,0.9-1.9c0.6,0.1,2.7,0.1,4.5,0.1c0.8,0,4.1-0.1,7.8-0.1c2.4,0,4.9,0.1,7.2,0.2C97.7,290.4,103.3,294.5,103.3,305.1
			z M89.7,312.7c2.5,0,7.2-1.1,7.2-7.2s-2.6-8.6-7-9.5c-4.3-0.9-7.3-0.9-8.4-0.9c0,1,0,2-0.1,3c-0.1,1.7-0.1,3.8-0.4,5.7
			c-0.2,1.9-0.2,4-0.1,5.6l0.1,2.8l3.3,0.2C86.3,312.7,88.3,312.7,89.7,312.7z"/>
		<path class="st0" d="M107.2,331.5c0.2-1.1,0.8-3.3,1.4-5.2c0.6-2,1.9-6.1,2.3-8.2c0.5-2.2,1.5-5.1,1.9-6.8
			c0.4-1.7,1.4-5.2,1.9-7.3c0.6-2.1,1.1-3.9,1.6-5c0.4-1.1,1.9-5.1,2.2-7c0.6-2,1.1-3.4,2.5-3.4c0.6,0,1.1,1.6,1.9,3.6
			c0.8,1.9,2.2,7.6,2.6,8.8c0.2,1.3,3.3,9.6,3.7,10.9c0.6,1.4,3.1,8.4,3.8,10.2c0.6,1.7,2.4,6.9,2.9,9.1c0.6,2.3,2.5,6.8,2.8,7.8
			c0.1,0.4,0.2,0.6,0.2,0.7c0,0.2-0.1,0.3-0.8,0.3h-4c-0.4,0-0.6-0.1-0.8-0.6c-0.4-0.9-0.6-1.8-0.8-2.6c-0.5-1.4-0.8-2.7-0.9-3.2
			c-0.2-1.1-0.9-3.7-1.5-4.8c-0.3-0.6-0.8-1.9-1.1-3.1l-0.6-2.1c-0.4-1.2-0.5-1.2-1-1.2c-0.8,0-1.5,0-2.2,0.1
			c-1.2,0.1-2.6,0.1-3.1,0.1c-0.6,0.1-3,0.1-5.3,0.1h-4.3c-0.1,0-0.1,0-0.1,0c-0.3,0-0.5,0.2-0.6,0.8l-0.1,0.7l-0.3,1.4
			c-0.4,1.1-1.4,6.7-1.6,7.3c-0.1,0.6-0.4,1.8-0.6,2.4c-0.2,0.3-0.4,1.4-0.7,2.3c-0.2,0.6-0.4,1.2-0.5,1.9c-0.2,0.6-0.1,0.6-0.8,0.6
			h-1.4c-0.5,0-0.6-0.3-0.4-0.9c0-0.1,0-0.2,0.1-0.4c0.1-0.2,0.1-0.5,0.3-1l0.6-2.6C106.4,334.2,107,332.9,107.2,331.5z
			 M126.4,317.3c0-0.3-0.2-0.9-0.5-1.6c-0.6-1.3-1.8-5.9-2.6-8.1c-0.7-2.1-2.3-7.6-2.5-8.8c-0.4-1.3-1.1-3.8-1.4-3.8
			s-0.6,1.9-1.1,3.5c-0.4,1.6-2.1,8-2.7,9.7c-0.4,1.7-1.8,7.1-2.4,8.5c-0.1,0.2-0.1,0.4-0.1,0.5c0,0.9,1.4,0.7,2,0.7
			c0.7,0,3.2-0.1,4.1-0.1c0.4-0.1,1.4-0.1,2.4-0.1c1.4,0,3.1,0.1,3.8,0.1C126.2,317.8,126.4,317.6,126.4,317.3z"/>
		<path class="st0" d="M141.8,293.2c-0.4-0.7-0.5-1.7-0.5-3c0-2.1,2.6-3.8,5-3.8s4.8,1.1,5.3,5.3c0,2.3,0.1,5.6-0.9,8.8
			c-0.9,2.4-2.1,4.8-3.8,7.2c-0.1,0.2-0.4,0.3-0.6,0.3c-1.1,0-2.7-1.8-2.8-2c0.1-1.1,2.2-2.5,2.8-5.3c0.1-0.9,0.2-1.6,0.2-2.1
			c0-1.6-0.6-2.2-1.6-2.8C143.2,294.8,142.1,293.9,141.8,293.2z"/>
		<path class="st0" d="M220.1,339.4c0,0.3-0.3,0.4-0.6,0.4c-0.6-0.1-2.7,0.1-4.3,0.1s-2.2-0.4-3.1-1.9c-0.2-0.4-0.7-1.1-1.4-2
			c-2.6,2.5-6.1,4.1-10.6,4.1c-10.6,0-16-5.8-18.8-11.6c-1.6-3.4-2.6-7.3-2.9-11.7c0-22.6,11.7-27.4,20-27.4
			c16.7,0,20.3,14.2,20.3,21.7c0,4.4-0.6,14.2-4.8,21c2.3,2.8,4.6,5.4,5.3,6.1C219.9,338.7,220.1,339.2,220.1,339.4z M202,323.5
			c0.5,0,1.9-0.1,4-0.4c2.1-0.3,2.1,1.4,2.8,2.7c0.2,0.5,1.1,1.5,2.2,2.8c2.6-4.3,3.8-9.8,3.8-14.1c0-8.6-2.3-21.2-16.5-21.2
			c-4.3,0-16.6,5.6-16.6,20.7c0,15.1,6.9,22.1,17.7,22.1c3.6,0,6.5-1.4,8.8-3.7l-5.3-7.1C201.8,324,201.5,323.5,202,323.5z"/>
		<path class="st0" d="M245.4,324.6c4.3,0,4.8-4.5,4.8-6.7c0-1.6,0.3-8.1,0.3-12.4c0-1.1,0-2-0.1-2.7c0-3.5-0.4-9.8-0.4-11.5
			c0-1.7,0.4-2.3,1.7-2.3h9c0.3,0,0.6-0.1,1.1-0.1c0.8,0,1.6,0.3,1.8,2.1c0.1,1.2,0.1,4.6,0.1,8.4c0,5.8-0.1,12.7-0.1,15.3
			c0,4.3-1.4,24.7-18.2,24.7c-16.9,0-18-12.5-18.2-16.2c-0.1-0.7-0.1-1.7-0.1-2.8c0-5.1,0.4-13.5,0.3-17.3c0-4.8-0.2-10.4-0.2-11.8
			s-0.4-2.6,1.6-2.6c1.2,0.1,2.5,0.1,3.7,0.1c0.8,0,1.6-0.1,2.4-0.1c0.8-0.1,1.7-0.1,2.6-0.1c1.2,0,2.4,0.1,2.8,0.1
			c0.9,0,1,0.4,1.1,1.5v28.5C241.3,320.4,241.1,324.6,245.4,324.6z"/>
		<path class="st0" d="M272.4,312.4c0-5.5-0.4-6-0.4-10.3c0-4.3,0.1-8.5,0.2-10.5c0-1.4,0.6-1.6,1.4-1.6c0.4,0,0.7,0.1,1.1,0.1
			c1.1,0,2.4,0.2,5.6,0.2c3.1,0,7.9-0.6,10.7-0.6c2.9,0,6.6,0.3,7.9,0.3c1.4,0,1.5,0.6,1.5,2c0,1.5,0.3,3.2,0.3,5.4
			c0,0.6,0,1.4-0.2,2.6c-0.1,0.9-0.5,1.1-1,1.1s-1.1-0.3-1.6-0.4c-1.1-0.2-3.2-0.2-6.2-0.2c-1.8,0-3.6-0.1-5.4-0.1
			c-0.6,0-1.3,0-1.9,0.1c-1.1,0.1-2.4,0.1-3.8,0.1c-1.7,0-3.3-0.1-3.8-0.1c-0.8,0-0.7,0.4-0.7,1.4c0,1.1-0.2,4.3-0.2,6.8v4.2
			c0,0.8,0,1.5,0.1,2.3c0.6,0.1,1.2,0.1,1.9,0.1c1.2,0.1,3,0.1,5,0.1c2.6,0,5.8-0.3,7.6-0.3c1.7,0,2.7,0.2,3.5,0.2
			c0.8,0,0.9,0.4,0.9,0.9s-0.1,0.9-0.1,2.2c0,1.4,0.1,2,0.1,3.8c0,0.9-0.2,1.1-0.6,1.1c-0.3,0-0.8-0.2-1.3-0.2
			c-1.1,0-2.6-0.1-7.1-0.1c-4.6,0-7.6,0.6-8.4,0.6c-0.5,0-0.8,0-0.9-0.1c-0.2,0-0.4,0-0.4-0.1v7.1c0.2,0,0.5,0,0.8-0.1
			c0.5,0,1.2-0.1,2-0.1c1.6,0,5.2-0.1,8.4-0.1c2.4,0,6.1,0.1,9,0.1c1.3,0,2.4-0.1,3-0.1c1.2,0,1.4,0.6,1.4,1.5c0,0.4-0.1,1-0.1,1.4
			c0,1.4-0.1,2.9-0.1,5c0,2-1.1,1.6-3.4,1.6c-2.4,0-9.2-0.1-12.5-0.1c-3.4,0-10.3,0.3-11.3,0.3c-0.1,0-0.3,0.1-0.4,0.1
			c-0.6,0-0.6-0.6-0.6-1.2c-0.1-0.8-0.1-1.8-0.1-2.6c0-0.9-0.1-1.6-0.1-3.1v-9.7C271.9,319.1,272.4,317.9,272.4,312.4z"/>
		<path class="st0" d="M343.3,290.1c6.6,0,21.6,4.3,21.6,27.4c0,21.4-19.9,22.3-22.7,22.3c-2.8,0-7.9,0.1-9.7,0.1
			c-1.1,0-1.4-1.1-1.4-2.4c0-0.6,0.1-1.3,0.1-1.9c0-1.7-0.2-5.3-0.2-6.8c0-1.4-0.4-4.9-0.4-10.5c0-5.6,0.6-9.1,0.6-14.8
			c0-5.8-0.1-10.6-0.1-12.1c0-1.4,3.1-1.1,4.8-1.1l2.6-0.1C339.9,290.1,341.6,290.1,343.3,290.1z M347,322.1
			c1.8-1.7,3.6-4.4,3.6-8.1c0-3.6-1.7-5.8-3.4-7.2c-1-0.8-2.1-1.4-3.3-1.7c0.1,0.8,0.1,1.6,0.1,2.4c0,2.5-0.3,5.2-0.3,7.5
			c0,1.6-0.1,3.9-0.1,6c-0.1,1.2-0.1,2.5-0.1,3.7C344.7,324,345.9,323.2,347,322.1z"/>
		<path class="st0" d="M389.8,324.6c4.3,0,4.8-4.5,4.8-6.7c0-1.6,0.3-8.1,0.3-12.4c0-1.1,0-2-0.1-2.7c0-3.5-0.4-9.8-0.4-11.5
			c0-1.7,0.4-2.3,1.7-2.3h9c0.3,0,0.6-0.1,1.1-0.1c0.8,0,1.6,0.3,1.8,2.1c0.1,1.2,0.1,4.6,0.1,8.4c0,5.8-0.1,12.7-0.1,15.3
			c0,4.3-1.4,24.7-18.2,24.7c-16.9,0-18-12.5-18.2-16.2c-0.1-0.7-0.1-1.7-0.1-2.8c0-5.1,0.4-13.5,0.3-17.3c0-4.8-0.2-10.4-0.2-11.8
			s-0.4-2.6,1.6-2.6c1.2,0.1,2.5,0.1,3.7,0.1c0.8,0,1.6-0.1,2.4-0.1c0.8-0.1,1.7-0.1,2.6-0.1c1.2,0,2.4,0.1,2.8,0.1
			c0.9,0,1,0.4,1.1,1.5v28.5C385.6,320.4,385.4,324.6,389.8,324.6z"/>
		<path class="st0" d="M416.8,312.4c0-5.5-0.4-6-0.4-10.3c0-4.3,0.1-8.5,0.2-10.5c0-1.4,0.6-1.6,1.4-1.6c0.4,0,0.7,0.1,1.1,0.1
			c1.1,0,2.4,0.2,5.6,0.2c3.1,0,7.9-0.6,10.7-0.6c2.9,0,6.6,0.3,7.9,0.3c1.4,0,1.5,0.6,1.5,2c0,1.5,0.3,3.2,0.3,5.4
			c0,0.6,0,1.4-0.2,2.6c-0.1,0.9-0.5,1.1-1,1.1s-1.1-0.3-1.6-0.4c-1.1-0.2-3.2-0.2-6.2-0.2c-1.8,0-3.6-0.1-5.4-0.1
			c-0.6,0-1.3,0-1.9,0.1c-1.1,0.1-2.4,0.1-3.8,0.1c-1.7,0-3.3-0.1-3.8-0.1c-0.8,0-0.7,0.4-0.7,1.4c0,1.1-0.2,4.3-0.2,6.8v4.2
			c0,0.8,0,1.5,0.1,2.3c0.6,0.1,1.2,0.1,1.9,0.1c1.2,0.1,3,0.1,5,0.1c2.6,0,5.8-0.3,7.6-0.3c1.7,0,2.7,0.2,3.5,0.2s0.9,0.4,0.9,0.9
			s-0.3,0.9-0.3,2.2c0,1.4,0.1,2,0.1,3.8c0,0.9-0.2,1.1-0.6,1.1c-0.3,0-0.8-0.2-1.3-0.2c-1.1,0-2.6-0.1-7.1-0.1
			c-4.6,0-7.6,0.6-8.4,0.6c-0.5,0-0.8,0-0.9-0.1c-0.2,0-0.4,0-0.4-0.1v7.1c0.2,0,0.5,0,0.8-0.1c0.5,0,1.2-0.1,2-0.1
			c1.6,0,5.2-0.1,8.4-0.1c2.4,0,6.1,0.1,9,0.1c1.3,0,2.4-0.1,3-0.1c1.2,0,1.4,0.6,1.4,1.5c0,0.4-0.1,1-0.1,1.4c0,1.4-0.1,2.9-0.1,5
			c0,2-1.1,1.6-3.4,1.6c-2.4,0-9.2-0.1-12.5-0.1c-3.4,0-10.3,0.3-11.3,0.3c-0.1,0-0.3,0.1-0.4,0.1c-0.6,0-0.6-0.6-0.6-1.2
			c-0.1-0.8-0.1-1.8-0.1-2.6c0-0.9-0.1-1.6-0.1-3.1v-9.7C416.3,319.1,416.8,317.9,416.8,312.4z"/>
		<path class="st0" d="M490.3,339.2c0,0.1,0.1,0.3,0.1,0.4c0,0.5-0.5,0.6-1.6,0.6c-1.4,0-11.5-0.2-14-0.2c-2.1,0-8.8,0.4-11.6,0.4
			c-0.6,0-1-0.1-1.2-0.1c-0.4-0.1-1-0.1-1.6-0.1c-1.8,0-4.2,0.1-5.4,0.1c-1.6,0-1.2-0.5-1.2-1.9c0-1.1,0.4-11.1,0.4-12.8
			c0-1.4-0.4-6.3-0.4-8.6c0,3.4,0.9-11.8,0.9-13.9l-0.1-8.1c0-0.6-0.1-3.6-0.1-4.6v-0.1c0-0.9,1.1-0.5,1.8-0.5
			c0.6,0,1.1,0.1,2.7,0.1c0.3,0,0.5,0,0.6,0c0.3,0,0.4,0.1,0.4,0.6c0,0.6-0.5,12.9-0.5,15l-0.1,10.2c0,1.1,0.1,4.5,0.1,6.6
			c0,0.9,0,1.5-0.1,1.9c-0.1,0.6,0,1,0,1.3c0,0.2,0,0.3,0.1,0.4l1.7,0.1c1.1,0.1,2.4,0.1,3.8,0.1c2.6,0,10.5-0.1,13.2-0.1
			s9.8,0.3,10.8,0.3c0.6,0.1,0.8,0.2,0.8,0.4c0,0.2-0.1,0.5-0.1,0.8v3.3C489.6,332.3,490.3,338.4,490.3,339.2z"/>
		<path class="st0" d="M506.8,288.8c0.3-0.7,0.6-0.9,1-0.5c0.5,0.4,0.6,1.1,0.9,2c0.2,1,2.8,6.4,3.8,8.5c1.1,2.2,2.1,4.8,3.1,7.6
			c0.9,2.8,4.6,10.1,6.1,13.5c1.5,3.3,5.1,10.2,6.1,12.1c0.9,1.9,2.4,5.3,3.3,6.4c0.2,0.4,0.4,0.7,0.4,0.9c0,0.5-0.6,0.6-1.3,0.6
			H525c-0.6,0-0.9-1.3-1.4-2.4c-0.6-1.1-2.4-6.2-2.8-7.3c-0.4-1.1-1.3-2.9-1.8-4.1c-0.4-1.2-0.7-1.4-1.3-1.4c-0.5,0-1.6,0.1-2.9,0.2
			c-1.1,0.2-5.6,0.1-7.6,0.3c-0.6,0.1-1.5,0.1-2.3,0.1c-1.7,0-3.4-0.1-3.8-0.1c-0.6,0-0.7,0.8-0.9,1.6c-0.1,0.7-1.3,5.2-1.5,6.6
			l-0.8,3.1l-0.6,2.1c-0.3,1.1-0.4,1.4-0.9,1.4h-4.2c-0.3,0-0.4-0.1-0.4-0.3s0.1-0.6,0.3-1c0.3-0.6,0.4-0.8,1-2.7
			c0.6-1.9,2.6-8.5,3.1-11.5c0.6-3.2,1.9-7,2.6-9.2c0.6-2.4,0.9-3.5,1.9-6.8c0.9-3.3,1.9-6.8,2.7-9.3l1.8-5.7
			C505.9,291.1,506.5,289.6,506.8,288.8z M514,314.6c0-0.1-0.1-0.3-0.2-0.6c-0.5-0.9-2.7-6-3.4-8.1c-0.9-2.2-1.5-4.1-1.7-4.4
			c-0.5-1.1-0.6-1.5-0.9-1.5s-0.5,1.4-0.9,2.7c-0.4,1.1-1.5,4.9-1.9,6.3c-0.4,1.5-1.2,3.6-1.6,4.7c-0.1,0.5-0.2,0.9-0.2,1.1
			c0,0.3,0.1,0.4,0.6,0.4c0.9,0,7.3-0.1,8.5-0.4C513.4,314.9,514,315,514,314.6z"/>
		<path class="st0" d="M565,313.7c0,2.2-0.1,11.5-0.1,14l-0.1,11.1c0,1.1-0.9,0.9-2,0.9c-0.9,0-2.4,0.2-3.4,0.2
			c-1.5,0-1.4-0.6-1.4-2.4c0-1.4-0.2-10.3-0.2-13.3s0.7-12.7,0.7-15.2s0.1-11.3,0.1-13.4c0-1-0.1-2.5-0.1-3.8c0-1.4,0.1-2.6,0.4-2.8
			c0.2-0.2,0.4-0.2,0.5-0.2c0.4,0,0.7,0.4,1.7,0.2c0.6-0.1,1.2-0.1,1.8-0.1c0.7,0,1.4,0,2,0.1c1.2,0.4,1.4,2.7,1.8,4.5
			c0.6,2.9,3.1,8.8,4.2,11.3c1.4,2.3,4.1,8.7,5.1,11.5c0.5,1.4,1.5,3.5,2.3,5.4l1.5,3.3c1.1-2.1,2.1-4,3-5.9l4.6-9.3
			c2.3-4.4,5.1-10.3,6.6-13c1.4-2.7,4-7.6,5-7.6c0.4,0,0.6,0.4,0.6,0.9c0,1.1-0.5,2.8-0.6,4.1c-0.3,1.9-0.3,14-0.3,17.1
			c0,3.3-0.3,12.3-0.5,14.5c-0.1,0.9-0.1,3.2-0.1,5.5c0,3.1,0.1,6.3,0.1,6.9c0,0.1,0,0.3,0,0.4c0,0.7-0.2,0.8-0.4,0.7
			c-0.1,0-0.1,0-0.1,0c-0.4,0-1.2,0.1-1.8,0.1c-0.4-0.1-0.5-0.5-0.5-1.4c0,3.1-0.1-10.1,0.1-12.8c0.2-2.1,0.5-10,0.5-12.1
			c-0.1-1.1,0.1-3.8,0.1-6.6l0.1-5.1c-0.4,0.5-0.6,1-0.9,1.5c-0.5,0.9-1,1.9-1.4,2.6c-0.8,1.6-5.3,10.6-6.2,12.3s-5.7,11.6-6.3,13
			s-1.9,4.3-2.1,4.3c-0.3,0-0.6-0.6-1.2-1.6c-0.8-1.1-2.6-5.7-3.3-7.8s-5.4-10.2-6.3-12.3c-0.5-1.1-1.3-3.1-1.9-4.8
			c-0.4-1-0.9-2.1-1.2-3.1l-0.1,3.1C565.1,310.6,565,312.6,565,313.7z"/>
		<path class="st0" d="M608.6,312.4c0-5.5-0.4-6-0.4-10.3c0-4.3,0.1-8.5,0.2-10.5c0-1.4,0.6-1.6,1.4-1.6c0.4,0,0.7,0.1,1.1,0.1
			c1.1,0,2.4,0.2,5.6,0.2c3.1,0,7.9-0.6,10.7-0.6c2.9,0,6.6,0.3,7.9,0.3c1.4,0,1.5,0.6,1.5,2c0,1.5,0.3,3.2,0.3,5.4
			c0,0.6,0,1.4-0.2,2.6c-0.1,0.9-0.5,1.1-1,1.1s-1.1-0.3-1.6-0.4c-1.1-0.2-3.2-0.2-6.2-0.2c-1.8,0-3.6-0.1-5.4-0.1
			c-0.6,0-1.3,0-1.9,0.1c-1.1,0.1-2.4,0.1-3.8,0.1c-1.7,0-3.3-0.1-3.8-0.1c-0.8,0-0.7,0.4-0.7,1.4c0,1.1-0.2,4.3-0.2,6.8v4.2
			c0,0.8,0,1.5,0.1,2.3c0.6,0.1,1.2,0.1,1.9,0.1c1.2,0.1,3,0.1,5,0.1c2.6,0,5.8-0.3,7.6-0.3s2.7,0.2,3.5,0.2s0.9,0.4,0.9,0.9
			s-0.1,0.9-0.1,2.2c0,1.4,0.1,2,0.1,3.8c0,0.9-0.2,1.1-0.6,1.1c-0.3,0-0.8-0.2-1.3-0.2c-1.1,0-2.6-0.1-7.1-0.1
			c-4.6,0-7.6,0.6-8.4,0.6c-0.5,0-0.8,0-0.9-0.1c-0.2,0-0.4,0-0.4-0.1v7.1c0.2,0,0.5,0,0.8-0.1c0.5,0,1.2-0.1,2-0.1
			c1.6,0,5.2-0.1,8.4-0.1c2.4,0,6.1,0.1,9,0.1c1.3,0,2.4-0.1,3-0.1c1.2,0,1.4,0.6,1.4,1.5c0,0.4-0.1,1-0.1,1.4c0,1.4-0.1,2.9-0.1,5
			c0,2-1.1,1.6-3.4,1.6c-2.4,0-9.2-0.1-12.5-0.1c-3.4,0-10.3,0.3-11.3,0.3c-0.1,0-0.3,0.1-0.4,0.1c-0.6,0-0.6-0.6-0.6-1.2
			c-0.1-0.8-0.1-1.8-0.1-2.6c0-0.9-0.1-1.6-0.1-3.1v-9.7C608.1,319.1,608.6,317.9,608.6,312.4z"/>
		<path class="st0" d="M665.5,290.1c0-2.1,2.1-1.9,3.6-1.9s5.8-0.2,7.8-0.6c2-0.2,2,1,1.7,3.2c-0.1,1.1-0.1,7.5-0.1,14.2
			c0,6.6,0,13.7,0,16.1c0,6.1,0.5,21,0.5,17.8c0,0.9-0.4,1.1-1.1,1.1c-0.2,0-0.5,0-0.9-0.1c-0.3-0.1-0.7-0.1-1.1-0.1
			c-1.6,0-3.9,0.3-5.5,0.3c-1.9,0-2.6-0.8-3.4-2.6c-1-1.9-2.8-6.3-5-9.9c-1.1-1.8-3-5.4-4.7-8.6l-3.1-5.9v2.7c0,1.6-0.1,3.3,0,5
			c0,3.2,0.1,15,0.4,16.9c0.1,0.4,0.1,0.6,0.1,0.9c0,1.1-0.5,1.1-1.4,1c-1.1,0-4,0.2-5.6,0.4c-1.5,0.2-1.7-0.3-1.6-2.6
			c0-2.2-0.4-12.2-0.6-20.8c0-6.1,0.4-14,0.4-19.2c0-2.1-0.1-3.8-0.2-4.8c-0.1-0.6-0.1-1.1-0.1-1.6c0-2,0.9-2.3,1.9-2.2
			c1.1,0.1,1.9,0.1,4.2-0.4c0.8-0.1,1.2-0.1,1.6-0.1c0.8,0,1.2,0.1,3.3,0.1c3,0,4.5,3.9,5.8,6.2c0.6,1.2,1.4,2.4,2.1,3.3l1.1,1.6
			v-3.9C665.4,293.5,665.4,291.1,665.5,290.1z"/>
		<path class="st0" d="M726.2,314.6c0,4.8-1.4,26.1-20.5,26.1c-9.6,0-14.3-6.8-16.8-13.8c-1.4-4.1-2.3-8.6-2.5-13.8
			c0-12.8,9.1-24.4,18.5-24.4c3.9,0,7.3-0.1,9.8,1.5C724.1,296.5,726.2,310.8,726.2,314.6z M720.3,314.6c0-11.6-5.5-21.7-14-21.7
			c-2.6,0-4.6-0.2-6.6,2c-2.1,2.1-8.8,7.8-8.8,19s3.8,22.8,14.4,22.8C716,336.7,720.3,326.3,720.3,314.6z"/>
		<path class="st0" d="M766.1,296.6c0.2,0.2,0.3,0.4,0.3,0.6c0,0.3-0.2,0.6-0.4,1c-0.5,0.6-1.7,2.7-2.5,3.6
			c-0.6,0.8-0.6,1.2-1.4,1.2c-0.7,0-7.3-7.3-12.5-7.3c-1.9,0-4.6,0.1-4.6,4.9c0,4.7,5.1,6.7,8.3,8.1c3.3,1.5,13.9,4.9,13.9,19.1
			c0,9.4-7.7,13.7-19.3,13.7s-15.3-7.4-16-8.1c-0.2-0.3-0.3-0.5-0.3-0.7c0-0.3,0.2-0.5,0.6-0.9c0.6-0.8,1.9-2.3,2.7-3.1
			c0.2-0.2,0.4-0.3,0.6-0.3c0.5,0,0.9,0.8,1.5,1.4c0.8,0.8,4,4.2,9.5,4.2c2.6,0,6.7-0.6,6.7-4.9c0-4.4-4.6-8.2-7.8-10.5
			s-13-5.6-13-14.7c0-9.2,10.4-15,15.6-15C758.9,288.9,765.5,296.1,766.1,296.6z"/>
	</g>
	<g>
		<path class="st0" d="M264.4,235.7v8.5h13.1v2.9h-13.1v8.9h15.1v2.8h-18.1v-26H279v2.9C279,235.7,264.4,235.7,264.4,235.7z"/>
		<path class="st0" d="M296,232.8c7.6,0,13.3,5.6,13.3,13c0,7.4-5.8,13-13.4,13h-10.4v-26H296z M288.5,255.9h7.6
			c5.8,0,10.3-4.3,10.3-10.1c0-5.8-4.6-10.1-10.4-10.1h-7.4v20.2H288.5z"/>
		<path class="st0" d="M333.3,258.7l-15.5-20.8v20.8h-3v-25.9h3.1l15.5,20.8v-20.8h2.9v25.9H333.3z"/>
		<path class="st0" d="M344.2,258.7v-25.9h3v25.9H344.2z"/>
		<path class="st0" d="M362.9,235.7v23.1h-3v-23.1h-8.4v-2.9h19.9v2.9C371.4,235.7,362.9,235.7,362.9,235.7z"/>
		<path class="st0" d="M375.5,252.2l-2.9,6.6h-3.1l11.6-25.9h3.1l11.6,25.9h-3.2l-2.9-6.6C389.7,252.2,375.5,252.2,375.5,252.2z
			 M382.5,236.2l-5.8,13.1h11.6L382.5,236.2z"/>
		<path class="st0" d="M428.5,258.7L413,237.9v20.8h-3v-25.9h3.1l15.5,20.8v-20.8h2.9v25.9H428.5z"/>
		<path class="st0" d="M441.7,252.2l-2.9,6.6h-3.1l11.6-25.9h3.1l11.6,25.9h-3.2l-2.9-6.6C455.9,252.2,441.7,252.2,441.7,252.2z
			 M448.7,236.2l-5.8,13.1h11.6L448.7,236.2z"/>
		<path class="st0" d="M467.5,255.9h17.4v2.8h-21.2v-2.3l17.2-20.7h-16.7v-2.9h20.6v2.4L467.5,255.9z"/>
		<path class="st0" d="M492.7,252.2l-2.9,6.6h-3.1l11.6-25.9h3.1l11.6,25.9h-3.2l-2.9-6.6C506.9,252.2,492.7,252.2,492.7,252.2z
			 M499.7,236.2l-5.8,13.1h11.6L499.7,236.2z"/>
		<path class="st0" d="M528.6,250.5c-0.6,0-1.1,0.1-1.7,0.1H520v8.2h-3v-26h9.8c6.5,0,10.2,3.2,10.2,8.7c0,4.3-2.1,7.2-5.8,8.4
			l6.1,8.8h-3.4L528.6,250.5z M526.8,247.7c4.7,0,7.4-2.1,7.4-6.1c0-3.9-2.7-5.9-7.4-5.9H520v12H526.8z"/>
		<path class="st0" d="M543.8,258.7v-25.9h3v25.9H543.8z"/>
		<path class="st0" d="M579.3,245.8c0,7.3-6,13.1-13.5,13.1c-7.6,0-13.6-5.8-13.6-13.1c0-7.3,6-13,13.6-13
			C573.3,232.8,579.3,238.5,579.3,245.8z M555.1,245.8c0,5.7,4.8,10.3,10.6,10.3s10.5-4.6,10.5-10.3c0-5.7-4.7-10.2-10.5-10.2
			S555.1,240.1,555.1,245.8z"/>
	</g>
	<g>
		<path class="st0" d="M73.6,448.6v-50.4H62.1v-6.1H80v56.6h-6.4V448.6z"/>
		<path class="st0" d="M146.4,405.6c0,5.4-4,12-10,18.3L119,442.4h30.6v6.1h-38.8v-5.3l21.2-23c4.8-4.8,7.8-10,7.8-13.7
			c0-5.5-4.2-8.8-11.3-8.8c-5.2,0-10.9,2.7-15.4,7l-2.8-5.2c5.5-4.9,12.4-7.8,19.1-7.8C139.6,391.7,146.4,397.2,146.4,405.6z"/>
		<path class="st0" d="M224.2,426.9c0,3.6-2.6,6.4-5.9,6.4s-5.9-2.7-5.9-6.4s2.6-6.2,5.9-6.2S224.2,423.3,224.2,426.9z"/>
		<path class="st0" d="M333.8,420.3c0,18.3-8.3,28.4-23.4,28.4c-15,0-23.4-10.2-23.4-28.4s8.3-28.4,23.4-28.4
			C325.5,391.8,333.8,402,333.8,420.3z M293.6,420.3c0,15.3,5.8,23,16.8,23s16.8-7.7,16.8-23c0-15.4-5.8-23-16.8-23
			C299.4,397.3,293.6,404.9,293.6,420.3z"/>
		<path class="st0" d="M393.8,405.6c0,5.4-4,12-10,18.3l-17.4,18.5H397v6.1h-38.9v-5.3l21.2-23c4.8-4.8,7.8-10,7.8-13.7
			c0-5.5-4.2-8.8-11.3-8.8c-5.2,0-10.9,2.7-15.4,7l-2.8-5.2c5.5-4.9,12.4-7.8,19.1-7.8C387,391.7,393.8,397.2,393.8,405.6z"/>
		<path class="st0" d="M471.6,426.9c0,3.6-2.6,6.4-5.9,6.4s-5.9-2.7-5.9-6.4s2.6-6.2,5.9-6.2S471.6,423.3,471.6,426.9z"/>
		<path class="st0" d="M569.7,405.6c0,5.4-4,12-10,18.3l-17.4,18.5h30.6v6.1H534v-5.3l21.2-23c4.8-4.8,7.8-10,7.8-13.7
			c0-5.5-4.2-8.8-11.3-8.8c-5.2,0-10.9,2.7-15.4,7l-2.8-5.2c5.5-4.9,12.4-7.8,19.1-7.8C562.9,391.7,569.7,397.2,569.7,405.6z"/>
		<path class="st0" d="M644.2,420.3c0,18.3-8.3,28.4-23.4,28.4c-15,0-23.4-10.2-23.4-28.4s8.3-28.4,23.4-28.4
			C635.9,391.8,644.2,402,644.2,420.3z M604.1,420.3c0,15.3,5.8,23,16.8,23s16.8-7.7,16.8-23c0-15.4-5.8-23-16.8-23
			S604.1,404.9,604.1,420.3z"/>
		<path class="st0" d="M704.2,405.6c0,5.4-4,12-10,18.3l-17.4,18.5h30.6v6.1h-38.9v-5.3l21.2-23c4.8-4.8,7.8-10,7.8-13.7
			c0-5.5-4.2-8.8-11.3-8.8c-5.2,0-10.9,2.7-15.4,7l-2.8-5.2c5.5-4.9,12.4-7.8,19.1-7.8C697.4,391.7,704.2,397.2,704.2,405.6z"/>
		<path class="st0" d="M771.3,395.8l-2.6,5.2c-3.7-2.2-8.6-3.5-13-3.5c-12.1,0-18.2,9.9-17.3,25.2c2.5-6.6,8.6-10.3,16.9-10.3
			c11.1,0,17.9,6.9,17.9,17.8c0,11.6-7.5,18.7-19.2,18.7c-13.7,0-22.1-9.9-22.1-27.4c0-17.9,8.9-29.7,23.3-29.7
			C760.5,391.7,766.7,393.4,771.3,395.8z M740,430.5c-0.1,5.4,4.1,12.4,13.7,12.4c8,0,13.5-4.8,13.5-12.8c0-7.5-5-12.2-13-12.2
			C745.2,417.8,739.9,423.8,740,430.5z"/>
	</g>
</g>
</svg>
