<?xml version="1.0" encoding="utf-8"?>
<!-- Generator: Adobe Illustrator 19.1.0, SVG Export Plug-In . SVG Version: 6.00 Build 0)  -->
<svg version="1.1" id="Layer_1" xmlns="http://www.w3.org/2000/svg" xmlns:xlink="http://www.w3.org/1999/xlink" x="0px" y="0px"
	 viewBox="0 0 385 70" style="enable-background:new 0 0 385 70;" xml:space="preserve">
<style type="text/css">
	.st0{fill:#FFFFFF;}
</style>
<g>
	<path class="st0" d="M21.5,44.7c0,5.7-4.6,6.9-6.3,6.9c-0.8,0-2.3,0.1-3.5,0.2C11,52,10.2,52,9.4,52.1c0,1.8-0.1,3.4-0.1,4.8
		c0,2.5,0,5,0.1,5.4c0.2,0.8-0.8,1.3-1.3,1c-0.1,0-0.3,0-0.7,0c-0.7,0-1.8,0.1-2.5,0.2c-0.9,0.1-1-0.5-1-1.3c0-0.7,0.1-3.2,0.1-4.8
		c0-1.4,0.3-12.8,0.3-17.3c0-0.8,0-1.4,0-1.7c0-0.4-0.1-0.7-0.1-1c0-0.8,0.2-1,0.5-1c0.3,0,1.5,0.1,2.4,0.1c0.4,0,2.2-0.1,4.2-0.1
		c1.3,0,2.7,0,3.9,0.1C18.5,36.8,21.5,39,21.5,44.7z M14.1,48.9c1.3,0,3.9-0.6,3.9-3.9c0-3.3-1.4-4.7-3.8-5.1
		c-2.4-0.5-3.9-0.5-4.6-0.5c0,0.5,0,1.1,0,1.6c0,0.9-0.1,2-0.2,3.1c-0.1,1-0.1,2.2-0.1,3l0.1,1.5l1.8,0.1
		C12.3,48.9,13.4,48.9,14.1,48.9z"/>
	<path class="st0" d="M23.6,59.1c0.1-0.6,0.4-1.8,0.7-2.8c0.3-1.1,1-3.3,1.2-4.4c0.3-1.2,0.8-2.8,1-3.7c0.2-0.9,0.7-2.8,1-4
		c0.3-1.1,0.6-2.1,0.9-2.7c0.2-0.6,1-2.7,1.2-3.8c0.3-1.1,0.6-1.9,1.4-1.9c0.3,0,0.6,0.8,1,1.9c0.4,1,1.2,4.1,1.4,4.7
		c0.1,0.7,1.8,5.2,2,5.9c0.3,0.8,1.7,4.6,2.1,5.5c0.3,0.9,1.3,3.7,1.6,4.9c0.3,1.2,1.3,3.7,1.5,4.2c0.1,0.2,0.1,0.3,0.1,0.4
		c0,0.1-0.1,0.2-0.4,0.2h-2.2c-0.2,0-0.3,0-0.4-0.3c-0.2-0.5-0.3-1-0.4-1.4c-0.3-0.7-0.4-1.5-0.5-1.7c-0.1-0.6-0.5-2-0.8-2.6
		c-0.2-0.3-0.4-1-0.6-1.7l-0.3-1.1c-0.3-0.6-0.3-0.6-0.6-0.6c-0.4,0-0.8,0-1.2,0c-0.7,0-1.4,0.1-1.7,0.1c-0.3,0-1.6,0-2.9,0h-2.4
		c0,0,0,0-0.1,0c-0.2,0-0.3,0.1-0.3,0.4L26,55.1l-0.2,0.7c-0.2,0.6-0.8,3.6-0.9,3.9c0,0.3-0.2,1-0.3,1.3c-0.1,0.2-0.2,0.7-0.4,1.2
		c-0.1,0.3-0.2,0.7-0.3,1c-0.1,0.3-0.1,0.3-0.4,0.3h-0.8c-0.3,0-0.3-0.2-0.2-0.5c0,0,0-0.1,0-0.2c0-0.1,0-0.3,0.2-0.5l0.3-1.4
		C23.2,60.5,23.5,59.8,23.6,59.1z M34,51.3c0-0.2-0.1-0.5-0.3-0.8c-0.3-0.7-1-3.2-1.4-4.4C32,45,31.1,42,31,41.3
		c-0.2-0.7-0.6-2-0.8-2c-0.2,0-0.3,1-0.6,1.9c-0.2,0.8-1.2,4.3-1.5,5.2c-0.2,0.9-1,3.8-1.3,4.6c0,0.1-0.1,0.2-0.1,0.3
		c0,0.5,0.7,0.4,1.1,0.4c0.4,0,1.7-0.1,2.2-0.1c0.2,0,0.7-0.1,1.3-0.1c0.8,0,1.7,0,2.1,0C33.9,51.6,34,51.5,34,51.3z"/>
	<path class="st0" d="M42.3,38.3c-0.2-0.4-0.3-0.9-0.3-1.6c0-1.1,1.4-2.1,2.7-2.1c1.3,0,2.6,0.6,2.9,2.9c0,1.2,0.1,3-0.5,4.7
		c-0.5,1.3-1.2,2.6-2,3.9c-0.1,0.1-0.2,0.2-0.3,0.2c-0.6,0-1.5-1-1.5-1.1c0.1-0.6,1.2-1.4,1.5-2.9c0.1-0.5,0.1-0.8,0.1-1.2
		c0-0.9-0.3-1.2-0.9-1.5C43.1,39.1,42.5,38.7,42.3,38.3z"/>
	<path class="st0" d="M84.8,63.3c0,0.2-0.2,0.2-0.3,0.2c-0.3,0-1.5,0-2.4,0c-0.9,0-1.2-0.2-1.7-1c-0.1-0.2-0.4-0.6-0.8-1.1
		c-1.4,1.3-3.3,2.2-5.7,2.2c-5.7,0-8.7-3.1-10.2-6.3c-0.9-1.9-1.4-4-1.6-6.3c0-12.2,6.3-14.8,10.8-14.8c9,0,11,7.7,11,11.7
		c0,2.4-0.3,7.7-2.6,11.4c1.2,1.5,2.5,2.9,2.9,3.3C84.6,62.9,84.8,63.2,84.8,63.3z M75,54.7c0.3,0,1-0.1,2.2-0.2s1.1,0.8,1.5,1.5
		c0.1,0.3,0.6,0.8,1.2,1.5c1.4-2.4,2-5.3,2-7.6c0-4.7-1.2-11.5-8.9-11.5c-2.3,0-9,3-9,11.2s3.7,12,9.6,12c2,0,3.5-0.8,4.7-2
		l-2.9-3.8C74.8,55,74.7,54.7,75,54.7z"/>
	<path class="st0" d="M98.5,55.3c2.3,0,2.6-2.4,2.6-3.6c0-0.9,0.2-4.4,0.2-6.7c0-0.6,0-1.1,0-1.5c0-1.9-0.2-5.3-0.2-6.2
		s0.2-1.2,0.9-1.2h4.9c0.2,0,0.3,0,0.6,0c0.4,0,0.8,0.2,1,1.2c0.1,0.7,0.1,2.5,0.1,4.6c0,3.1,0,6.9,0,8.3c0,2.4-0.8,13.4-9.9,13.4
		c-9.1,0-9.7-6.8-9.9-8.8c0-0.4,0-0.9,0-1.5c0-2.7,0.2-7.3,0.2-9.4c0-2.6-0.1-5.6-0.1-6.4c0-0.8-0.2-1.4,0.8-1.4
		c0.7,0,1.3,0.1,2,0.1c0.4,0,0.8,0,1.3-0.1c0.4,0,0.9-0.1,1.4-0.1c0.7,0,1.3,0,1.5,0c0.5,0,0.5,0.2,0.6,0.8v15.4
		C96.2,53,96.1,55.3,98.5,55.3z"/>
	<path class="st0" d="M113.1,48.7c0-3-0.2-3.2-0.2-5.6c0-2.3,0.1-4.6,0.1-5.7c0-0.7,0.3-0.8,0.7-0.8c0.2,0,0.4,0,0.6,0
		c0.6,0,1.3,0.1,3,0.1c1.7,0,4.3-0.3,5.8-0.3c1.6,0,3.5,0.2,4.3,0.2c0.7,0,0.8,0.3,0.8,1.1c0,0.8,0.2,1.7,0.2,2.9
		c0,0.3,0,0.8-0.1,1.4c0,0.5-0.3,0.6-0.5,0.6c-0.3,0-0.6-0.2-0.8-0.2c-0.6-0.1-1.7-0.1-3.4-0.1c-1,0-2-0.1-2.9-0.1c-0.3,0-0.7,0-1,0
		c-0.6,0-1.3,0.1-2,0.1c-0.9,0-1.8,0-2,0c-0.4,0-0.4,0.2-0.4,0.8c0,0.6-0.1,2.4-0.1,3.7V49c0,0.4,0,0.8,0,1.2c0.3,0,0.7,0,1,0
		c0.7,0,1.6,0,2.7,0c1.4,0,3.2-0.2,4.1-0.2c0.9,0,1.5,0.1,1.9,0.1c0.4,0,0.5,0.2,0.5,0.5c0,0.3-0.1,0.5-0.1,1.2c0,0.7,0,1.1,0,2
		c0,0.5-0.1,0.6-0.3,0.6c-0.2,0-0.4-0.1-0.7-0.1c-0.6,0-1.4-0.1-3.9-0.1c-2.5,0-4.1,0.3-4.6,0.3c-0.3,0-0.4,0-0.5,0
		c-0.1,0-0.2,0-0.2,0v3.9c0.1,0,0.3,0,0.4,0c0.3,0,0.7,0,1.1,0c0.9,0,2.8,0,4.6,0c1.3,0,3.3,0.1,4.9,0.1c0.7,0,1.3,0,1.6,0
		c0.7,0,0.8,0.3,0.8,0.8c0,0.2,0,0.5,0,0.8c0,0.8,0,1.6,0,2.7c0,1.1-0.6,0.8-1.9,0.8c-1.3,0-5-0.1-6.8-0.1c-1.9,0-5.6,0.2-6.1,0.2
		c-0.1,0-0.2,0-0.2,0c-0.3,0-0.3-0.3-0.3-0.7c0-0.4,0-1,0-1.4c0-0.5-0.1-0.8-0.1-1.7v-5.3C112.8,52.3,113.1,51.6,113.1,48.7z"/>
	<path class="st0" d="M151.4,36.6c3.6,0,11.7,2.4,11.7,14.9c0,11.6-10.8,12.1-12.3,12.1c-1.5,0-4.3,0.1-5.2,0.1
		c-0.6,0-0.7-0.6-0.7-1.3c0-0.3,0-0.7,0-1c0-0.9-0.1-2.9-0.1-3.7c0-0.8-0.2-2.7-0.2-5.7c0-3,0.3-4.9,0.3-8c0-3.1-0.1-5.7-0.1-6.6
		c0-0.8,1.7-0.6,2.6-0.6l1.4-0.1C149.6,36.6,150.5,36.6,151.4,36.6z M153.4,54c1-0.9,1.9-2.4,1.9-4.4c0-2-0.9-3.2-1.9-3.9
		c-0.5-0.4-1.2-0.7-1.8-0.9c0,0.4,0.1,0.8,0.1,1.3c0,1.4-0.2,2.8-0.2,4.1c0,0.9,0,2.1-0.1,3.2c0,0.7,0,1.4,0,2
		C152.2,55,152.8,54.5,153.4,54z"/>
	<path class="st0" d="M176.6,55.3c2.3,0,2.6-2.4,2.6-3.6c0-0.9,0.2-4.4,0.2-6.7c0-0.6,0-1.1,0-1.5c0-1.9-0.2-5.3-0.2-6.2
		s0.2-1.2,0.9-1.2h4.9c0.2,0,0.3,0,0.6,0c0.4,0,0.8,0.2,1,1.2c0.1,0.7,0.1,2.5,0.1,4.6c0,3.1,0,6.9,0,8.3c0,2.4-0.8,13.4-9.9,13.4
		c-9.1,0-9.7-6.8-9.9-8.8c0-0.4,0-0.9,0-1.5c0-2.7,0.2-7.3,0.2-9.4c0-2.6-0.1-5.6-0.1-6.4c0-0.8-0.2-1.4,0.8-1.4
		c0.7,0,1.3,0.1,2,0.1c0.4,0,0.8,0,1.3-0.1c0.4,0,0.9-0.1,1.4-0.1c0.7,0,1.3,0,1.5,0c0.5,0,0.5,0.2,0.6,0.8v15.4
		C174.4,53,174.3,55.3,176.6,55.3z"/>
	<path class="st0" d="M191.2,48.7c0-3-0.2-3.2-0.2-5.6c0-2.3,0.1-4.6,0.1-5.7c0-0.7,0.3-0.8,0.7-0.8c0.2,0,0.4,0,0.6,0
		c0.6,0,1.3,0.1,3,0.1c1.7,0,4.3-0.3,5.8-0.3c1.6,0,3.5,0.2,4.3,0.2c0.7,0,0.8,0.3,0.8,1.1c0,0.8,0.2,1.7,0.2,2.9
		c0,0.3,0,0.8-0.1,1.4c0,0.5-0.3,0.6-0.5,0.6c-0.3,0-0.6-0.2-0.8-0.2c-0.6-0.1-1.7-0.1-3.4-0.1c-1,0-2-0.1-2.9-0.1c-0.3,0-0.7,0-1,0
		c-0.6,0-1.3,0.1-2,0.1c-0.9,0-1.8,0-2,0c-0.4,0-0.4,0.2-0.4,0.8c0,0.6-0.1,2.4-0.1,3.7V49c0,0.4,0,0.8,0,1.2c0.3,0,0.7,0,1,0
		c0.7,0,1.6,0,2.7,0c1.4,0,3.2-0.2,4.1-0.2c0.9,0,1.5,0.1,1.9,0.1c0.4,0,0.5,0.2,0.5,0.5c0,0.3-0.1,0.5-0.1,1.2c0,0.7,0,1.1,0,2
		c0,0.5-0.1,0.6-0.3,0.6c-0.2,0-0.4-0.1-0.7-0.1c-0.6,0-1.4-0.1-3.9-0.1c-2.5,0-4.1,0.3-4.6,0.3c-0.3,0-0.4,0-0.5,0
		c-0.1,0-0.2,0-0.2,0v3.9c0.1,0,0.3,0,0.4,0c0.3,0,0.7,0,1.1,0c0.9,0,2.8,0,4.6,0c1.3,0,3.3,0.1,4.9,0.1c0.7,0,1.3,0,1.6,0
		c0.7,0,0.8,0.3,0.8,0.8c0,0.2,0,0.5,0,0.8c0,0.8,0,1.6,0,2.7c0,1.1-0.6,0.8-1.9,0.8c-1.3,0-5-0.1-6.8-0.1c-1.9,0-5.6,0.2-6.1,0.2
		c-0.1,0-0.2,0-0.2,0c-0.3,0-0.3-0.3-0.3-0.7c0-0.4,0-1,0-1.4c0-0.5-0.1-0.8-0.1-1.7v-5.3C191,52.3,191.2,51.6,191.2,48.7z"/>
	<path class="st0" d="M231,63.2c0,0.1,0,0.2,0,0.2c0,0.3-0.3,0.3-0.9,0.3c-0.7,0-6.2-0.1-7.6-0.1c-1.1,0-4.7,0.2-6.3,0.2
		c-0.3,0-0.5,0-0.7,0c-0.2,0-0.5,0-0.9,0c-1,0-2.3,0.1-2.9,0.1c-0.8,0-0.7-0.3-0.7-1c0-0.6,0.2-6,0.2-6.9c0-0.8-0.2-3.4-0.2-4.7
		c0,1.9,0.5-6.4,0.5-7.5l0-4.4c0-0.3-0.1-1.9-0.1-2.5v0c0-0.5,0.6-0.3,1-0.3c0.3,0,0.6,0,1.5,0c0.2,0,0.3,0,0.3,0
		c0.2,0,0.2,0,0.2,0.3c0,0.3-0.3,7-0.3,8.1l0,5.5c0,0.6,0.1,2.4,0.1,3.6c0,0.5,0,0.8,0,1c0,0.3,0,0.5,0,0.7c0,0.1,0,0.2,0,0.2
		l0.9,0.1c0.6,0,1.3,0.1,2,0c1.4,0,5.7-0.1,7.1-0.1c1.5,0,5.3,0.2,5.9,0.2c0.3,0,0.4,0.1,0.4,0.2s-0.1,0.3-0.1,0.4v1.8
		C230.6,59.5,231,62.8,231,63.2z"/>
	<path class="st0" d="M239.9,35.9c0.2-0.4,0.3-0.5,0.5-0.3c0.3,0.2,0.3,0.6,0.5,1.1c0.1,0.5,1.5,3.5,2,4.6c0.6,1.2,1.1,2.6,1.7,4.1
		c0.5,1.5,2.5,5.5,3.3,7.3c0.8,1.8,2.8,5.5,3.3,6.6c0.5,1,1.3,2.9,1.8,3.5c0.1,0.2,0.2,0.4,0.2,0.5c0,0.3-0.3,0.3-0.7,0.3h-2.8
		c-0.3,0-0.5-0.7-0.8-1.3c-0.3-0.6-1.3-3.4-1.5-4c-0.2-0.6-0.7-1.6-1-2.2c-0.2-0.7-0.4-0.8-0.7-0.8c-0.3,0-0.9,0.1-1.5,0.1
		c-0.6,0.1-3,0-4.1,0.2c-0.3,0-0.8,0-1.2,0c-0.9,0-1.9,0-2,0c-0.3,0-0.4,0.4-0.5,0.8c-0.1,0.4-0.7,2.8-0.8,3.5l-0.4,1.7l-0.3,1.1
		c-0.2,0.6-0.2,0.7-0.5,0.7h-2.3c-0.2,0-0.2,0-0.2-0.2c0-0.1,0.1-0.3,0.2-0.5c0.2-0.3,0.2-0.4,0.5-1.5c0.3-1,1.4-4.6,1.7-6.2
		c0.3-1.7,1-3.8,1.4-5c0.3-1.3,0.5-1.9,1-3.7c0.5-1.8,1-3.7,1.5-5.1l1-3.1C239.5,37.2,239.8,36.3,239.9,35.9z M243.9,49.9
		c0-0.1,0-0.2-0.1-0.3c-0.3-0.5-1.5-3.2-1.9-4.4c-0.5-1.2-0.8-2.2-0.9-2.4c-0.3-0.6-0.3-0.8-0.5-0.8c-0.2,0-0.3,0.7-0.5,1.5
		c-0.2,0.6-0.8,2.7-1,3.4c-0.2,0.8-0.7,2-0.8,2.5c-0.1,0.3-0.1,0.5-0.1,0.6s0.1,0.2,0.3,0.2c0.5,0,3.9-0.1,4.6-0.2
		C243.5,50,243.9,50.1,243.9,49.9z"/>
	<path class="st0" d="M271.5,49.4c0,1.2-0.1,6.2-0.1,7.6l0,6c0,0.6-0.5,0.5-1.1,0.5c-0.5,0-1.3,0.1-1.9,0.1c-0.8,0-0.8-0.3-0.7-1.3
		c0-0.7-0.1-5.6-0.1-7.2s0.4-6.9,0.4-8.3s0.1-6.1,0.1-7.3c0-0.5,0-1.4,0-2.1c0-0.7,0-1.4,0.2-1.5c0.1-0.1,0.2-0.1,0.3-0.1
		c0.2,0,0.4,0.2,0.9,0.1c0.3,0,0.7,0,1,0c0.4,0,0.7,0,1.1,0.1c0.7,0.2,0.7,1.5,1,2.4c0.3,1.6,1.7,4.8,2.3,6.1
		c0.7,1.2,2.2,4.7,2.7,6.2c0.3,0.7,0.8,1.9,1.2,2.9l0.8,1.8c0.6-1.1,1.1-2.2,1.6-3.2l2.5-5c1.2-2.4,2.7-5.6,3.5-7.1
		c0.7-1.5,2.2-4.1,2.7-4.1c0.2,0,0.3,0.2,0.3,0.5c0,0.6-0.3,1.5-0.3,2.2c-0.2,1-0.2,7.6-0.2,9.3c0,1.8-0.2,6.6-0.3,7.8
		c0,0.5-0.1,1.7-0.1,3c0,1.7,0,3.4,0,3.7c0,0.1,0,0.2,0,0.2c0,0.4-0.1,0.4-0.2,0.4c0,0,0,0-0.1,0c-0.2,0-0.7,0.1-1,0.1
		c-0.2,0-0.3-0.3-0.3-0.7c0,1.7-0.1-5.5,0.1-6.9c0.1-1.2,0.3-5.4,0.3-6.6c0-0.6,0-2,0.1-3.5l0.1-2.8c-0.2,0.3-0.3,0.5-0.5,0.8
		c-0.3,0.5-0.5,1-0.7,1.4c-0.4,0.8-2.9,5.7-3.4,6.7c-0.5,0.9-3.1,6.3-3.4,7c-0.3,0.7-1,2.4-1.2,2.4c-0.2,0-0.3-0.3-0.7-0.9
		c-0.4-0.6-1.4-3.1-1.8-4.2c-0.4-1.1-2.9-5.5-3.4-6.7c-0.3-0.6-0.7-1.7-1-2.6c-0.2-0.5-0.5-1.1-0.7-1.7l-0.1,1.7
		C271.5,47.7,271.5,48.8,271.5,49.4z"/>
	<path class="st0" d="M295.1,48.7c0-3-0.2-3.2-0.2-5.6c0-2.3,0.1-4.6,0.1-5.7c0-0.7,0.3-0.8,0.7-0.8c0.2,0,0.4,0,0.6,0
		c0.6,0,1.3,0.1,3,0.1c1.7,0,4.3-0.3,5.8-0.3c1.6,0,3.5,0.2,4.3,0.2c0.7,0,0.8,0.3,0.8,1.1c0,0.8,0.2,1.7,0.2,2.9
		c0,0.3,0,0.8-0.1,1.4c0,0.5-0.3,0.6-0.5,0.6c-0.3,0-0.6-0.2-0.8-0.2c-0.6-0.1-1.7-0.1-3.4-0.1c-1,0-2-0.1-2.9-0.1c-0.3,0-0.7,0-1,0
		c-0.6,0-1.3,0.1-2,0.1c-0.9,0-1.8,0-2,0c-0.4,0-0.4,0.2-0.4,0.8c0,0.6-0.1,2.4-0.1,3.7V49c0,0.4,0,0.8,0,1.2c0.3,0,0.7,0,1,0
		c0.7,0,1.6,0,2.7,0c1.4,0,3.2-0.2,4.1-0.2c0.9,0,1.5,0.1,1.9,0.1c0.4,0,0.5,0.2,0.5,0.5c0,0.3-0.1,0.5-0.1,1.2c0,0.7,0,1.1,0,2
		c0,0.5-0.1,0.6-0.3,0.6c-0.2,0-0.4-0.1-0.7-0.1c-0.6,0-1.4-0.1-3.9-0.1c-2.5,0-4.1,0.3-4.6,0.3c-0.3,0-0.4,0-0.5,0
		c-0.1,0-0.2,0-0.2,0v3.9c0.1,0,0.3,0,0.4,0c0.3,0,0.7,0,1.1,0c0.9,0,2.8,0,4.6,0c1.3,0,3.3,0.1,4.9,0.1c0.7,0,1.3,0,1.6,0
		c0.7,0,0.8,0.3,0.8,0.8c0,0.2,0,0.5,0,0.8c0,0.8,0,1.6,0,2.7c0,1.1-0.6,0.8-1.9,0.8c-1.3,0-5-0.1-6.8-0.1c-1.9,0-5.6,0.2-6.1,0.2
		c-0.1,0-0.2,0-0.2,0c-0.3,0-0.3-0.3-0.3-0.7c0-0.4,0-1,0-1.4c0-0.5-0.1-0.8-0.1-1.7v-5.3C294.8,52.3,295.1,51.6,295.1,48.7z"/>
	<path class="st0" d="M325.9,36.6c0-1.1,1.2-1,2-1c0.8,0,3.2-0.1,4.2-0.3c1.1-0.1,1.1,0.5,0.9,1.7c-0.1,0.6-0.1,4.1-0.1,7.7
		c0,3.6,0,7.4,0,8.7c0,3.3,0.3,11.4,0.3,9.6c0,0.5-0.2,0.6-0.6,0.6c-0.1,0-0.3,0-0.5,0c-0.2,0-0.4,0-0.6,0c-0.8,0-2.1,0.2-3,0.2
		c-1,0-1.4-0.4-1.9-1.4c-0.5-1-1.5-3.4-2.7-5.4c-0.6-1-1.6-2.9-2.5-4.7l-1.7-3.2v1.5c0,0.9,0,1.8,0,2.7c0,1.7,0,8.1,0.2,9.1
		c0,0.2,0,0.3,0,0.5c0,0.6-0.3,0.6-0.7,0.5c-0.6,0-2.2,0.1-3,0.2c-0.8,0.1-0.9-0.2-0.9-1.4c0-1.2-0.2-6.6-0.3-11.3
		c0-3.3,0.2-7.6,0.2-10.4c0-1.1,0-2-0.1-2.6c0-0.3-0.1-0.6-0.1-0.9c0-1.1,0.5-1.2,1-1.2c0.6,0,1,0,2.3-0.2c0.4-0.1,0.7-0.1,0.8-0.1
		c0.4,0,0.7,0.1,1.8,0.1c1.6,0,2.4,2.1,3.2,3.4c0.3,0.7,0.8,1.3,1.1,1.8l0.6,0.9v-2.1C325.8,38.5,325.8,37.2,325.9,36.6z"/>
	<path class="st0" d="M358.7,49.9c0,2.6-0.7,14.2-11.1,14.2c-5.2,0-7.8-3.7-9.1-7.4c-0.8-2.2-1.2-4.7-1.3-7.5
		c0-6.9,4.9-13.2,10-13.2c2.1,0,4-0.1,5.3,0.8C357.6,40.1,358.7,47.8,358.7,49.9z M355.5,49.9c0-6.3-3-11.7-7.6-11.7
		c-1.4,0-2.5-0.1-3.6,1.1c-1.1,1.1-4.7,4.2-4.7,10.3c0,6.1,2,12.3,7.8,12.3C353.2,61.9,355.5,56.2,355.5,49.9z"/>
	<path class="st0" d="M380.3,40.2c0.1,0.1,0.2,0.2,0.2,0.3c0,0.2-0.1,0.3-0.2,0.5c-0.3,0.3-0.9,1.5-1.3,1.9
		c-0.3,0.4-0.3,0.7-0.8,0.7c-0.4,0-3.9-4-6.8-4c-1,0-2.5,0.1-2.5,2.7c0,2.5,2.7,3.6,4.5,4.4c1.8,0.8,7.5,2.7,7.5,10.3
		c0,5.1-4.2,7.4-10.5,7.4c-6.3,0-8.3-4-8.6-4.4c-0.1-0.2-0.2-0.3-0.2-0.4c0-0.2,0.1-0.3,0.3-0.5c0.3-0.4,1-1.2,1.5-1.7
		c0.1-0.1,0.2-0.2,0.3-0.2c0.3,0,0.5,0.4,0.8,0.7c0.4,0.4,2.2,2.3,5.2,2.3c1.4,0,3.6-0.3,3.6-2.7c0-2.4-2.5-4.4-4.2-5.7
		c-1.7-1.2-7-3-7-8c0-5,5.6-8.1,8.4-8.1C376.4,35.9,380,39.8,380.3,40.2z"/>
</g>
<g>
	<path class="st0" d="M108.1,7.2v4.6h7.1v1.5h-7.1v4.8h8.2v1.5h-9.8v-14h9.5v1.5H108.1z"/>
	<path class="st0" d="M125.2,5.6c4.1,0,7.2,3,7.2,7c0,4-3.1,7-7.3,7h-5.6v-14H125.2z M121.1,18.1h4.1c3.1,0,5.6-2.3,5.6-5.5
		c0-3.1-2.5-5.5-5.6-5.5h-4V18.1z"/>
	<path class="st0" d="M145.4,19.6l-8.4-11.3v11.3h-1.6v-14h1.7l8.4,11.3V5.6h1.6v14H145.4z"/>
	<path class="st0" d="M151.3,19.6v-14h1.6v14H151.3z"/>
	<path class="st0" d="M161.4,7.2v12.5h-1.6V7.2h-4.6V5.6H166v1.5H161.4z"/>
	<path class="st0" d="M168.2,16.1l-1.6,3.5h-1.7l6.3-14h1.7l6.3,14h-1.7l-1.6-3.5H168.2z M172,7.4l-3.1,7.1h6.3L172,7.4z"/>
	<path class="st0" d="M196.9,19.6l-8.4-11.3v11.3h-1.6v-14h1.7l8.4,11.3V5.6h1.6v14H196.9z"/>
	<path class="st0" d="M204,16.1l-1.6,3.5h-1.7l6.3-14h1.7l6.3,14h-1.7l-1.6-3.5H204z M207.8,7.4l-3.1,7.1h6.3L207.8,7.4z"/>
	<path class="st0" d="M218,18.1h9.4l0,1.5h-11.5v-1.3l9.3-11.2h-9V5.6h11.1v1.3L218,18.1z"/>
	<path class="st0" d="M231.7,16.1l-1.6,3.5h-1.7l6.3-14h1.7l6.3,14h-1.7l-1.6-3.5H231.7z M235.5,7.4l-3.1,7.1h6.3L235.5,7.4z"/>
	<path class="st0" d="M251.1,15.2c-0.3,0-0.6,0-0.9,0h-3.7v4.4h-1.6v-14h5.3c3.5,0,5.5,1.7,5.5,4.7c0,2.3-1.1,3.9-3.1,4.6l3.3,4.8
		H254L251.1,15.2z M250.2,13.7c2.5,0,4-1.1,4-3.3c0-2.1-1.4-3.2-4-3.2h-3.7v6.5H250.2z"/>
	<path class="st0" d="M259.3,19.6v-14h1.6v14H259.3z"/>
	<path class="st0" d="M278.5,12.6c0,3.9-3.2,7.1-7.3,7.1c-4.1,0-7.4-3.1-7.4-7.1c0-4,3.2-7.1,7.4-7.1
		C275.3,5.6,278.5,8.7,278.5,12.6z M265.5,12.6c0,3.1,2.6,5.6,5.7,5.6s5.7-2.5,5.7-5.6s-2.6-5.5-5.7-5.5S265.5,9.5,265.5,12.6z"/>
</g>
</svg>
