<?xml version="1.0" encoding="utf-8"?>
<!-- Generator: Adobe Illustrator 19.1.0, SVG Export Plug-In . SVG Version: 6.00 Build 0)  -->
<svg version="1.1" id="Layer_1" xmlns="http://www.w3.org/2000/svg" xmlns:xlink="http://www.w3.org/1999/xlink" x="0px" y="0px"
	 viewBox="0 0 28 28" style="enable-background:new 0 0 28 28;" xml:space="preserve">
<style type="text/css">
	.st0{fill:#FFFFFF;}
</style>
<g>
	<path class="st0" d="M23.2,7.3c0,1.6,0,3.1,0,4.7c-1.5-0.2-2.9-0.7-4.2-1.6c0,0.2,0,0.3,0,0.4c0,2.5,0,5,0,7.5
		c-0.1,4-3.4,7.1-7.4,7c-1.8-0.1-3.3-0.7-4.6-2c-2.1-2-2.7-4.4-1.9-7.1c0.7-2.7,2.6-4.3,5.3-5c0.8-0.2,1.5-0.2,2.3-0.1
		c0.1,0,0.2,0.1,0.2,0.2c0,1.2,0,2.4,0,3.6c0,0,0,0,0,0c-0.5,0-1.1-0.1-1.6,0c-2.3,0.4-3.4,3-2.1,4.9c0.7,1.1,2.1,1.7,3.6,1.3
		c1.3-0.4,2.3-1.6,2.3-3c0-5,0-9.9,0-14.9c0-0.5,0-0.5,0.5-0.5c0.7,0,1.3,0,2,0c0.3,0,0.4,0.1,0.5,0.4c0.7,2.3,2.1,3.7,4.5,4.1
		c0.1,0,0.2,0,0.3,0C23,7.3,23.1,7.3,23.2,7.3z"/>
</g>
</svg>
