<?xml version="1.0" encoding="utf-8"?>
<!-- Generator: Adobe Illustrator 19.1.0, SVG Export Plug-In . SVG Version: 6.00 Build 0)  -->
<svg version="1.1" id="Layer_1" xmlns="http://www.w3.org/2000/svg" xmlns:xlink="http://www.w3.org/1999/xlink" x="0px" y="0px"
	 viewBox="0 0 360 90" style="enable-background:new 0 0 360 90;" xml:space="preserve">
<style type="text/css">
	.st0{opacity:0.25;fill:url(#SVGID_1_);}
	.st1{opacity:0.5;fill:none;stroke:#FFFFFF;stroke-miterlimit:10;}
	.st2{fill:#8D0302;}
	.st3{fill:#FFFFFF;}
</style>
<g>
	<g>
		
			<linearGradient id="SVGID_1_" gradientUnits="userSpaceOnUse" x1="180" y1="-16300.6699" x2="180" y2="-16377.9961" gradientTransform="matrix(1 0 0 -1 0 -16294.333)">
			<stop  offset="0" style="stop-color:#FFFFFF"/>
			<stop  offset="1" style="stop-color:#FFFFFF;stop-opacity:0.6"/>
		</linearGradient>
		<path class="st0" d="M315.9,83.7H44.1C22.8,83.7,5.5,66.4,5.5,45v0c0-21.4,17.3-38.7,38.7-38.7h271.7c21.4,0,38.7,17.3,38.7,38.7
			v0C354.5,66.4,337.2,83.7,315.9,83.7z"/>
		<path class="st1" d="M315.9,83.7H44.1C22.8,83.7,5.5,66.4,5.5,45v0c0-21.4,17.3-38.7,38.7-38.7h271.7c21.4,0,38.7,17.3,38.7,38.7
			v0C354.5,66.4,337.2,83.7,315.9,83.7z"/>
		<g>
			<circle class="st2" cx="43.3" cy="45.2" r="31.8"/>
			<g>
				<g>
					<path class="st3" d="M57.9,61.2l-6.1-6.1v5.2h-1.8v-8.2h8.2v1.8h-5.2l6.1,6.1L57.9,61.2z M43,61c-2.2,0-4.3-0.4-6.2-1.3
						s-3.6-2-5.1-3.4s-2.6-3.1-3.4-5.1c-0.8-1.9-1.3-4-1.3-6.2c0-2.2,0.4-4.3,1.3-6.2c0.8-1.9,2-3.6,3.4-5.1s3.1-2.6,5.1-3.4
						c1.9-0.8,4-1.3,6.2-1.3c2.2,0,4.3,0.4,6.2,1.3c1.9,0.8,3.6,2,5.1,3.4c1.4,1.4,2.6,3.1,3.4,5.1c0.8,1.9,1.3,4,1.3,6.2
						c0,0.5,0,1-0.1,1.4c0,0.5-0.1,1-0.2,1.4h-1.8c0.1-0.5,0.2-1,0.2-1.4c0.1-0.5,0.1-1,0.1-1.4c0-0.7,0-1.4-0.1-2.1
						c-0.1-0.7-0.3-1.4-0.5-2.1h-7.1c0.1,0.7,0.2,1.4,0.3,2.1c0.1,0.7,0.1,1.4,0.1,2.1c0,0.5,0,1,0,1.4c0,0.5-0.1,1-0.1,1.4h-1.8
						c0.1-0.5,0.1-1,0.1-1.4c0-0.5,0-1,0-1.4c0-0.7,0-1.4-0.1-2.1c-0.1-0.7-0.2-1.4-0.3-2.1h-9.3c-0.1,0.7-0.2,1.4-0.3,2.1
						C38,43.6,38,44.3,38,45c0,0.7,0,1.4,0.1,2.1c0.1,0.7,0.2,1.4,0.3,2.1h7.1V51h-6.7c0.4,1.5,1,3,1.7,4.4c0.7,1.4,1.5,2.7,2.5,3.9
						c0.5,0,1,0,1.4-0.1c0.5-0.1,1-0.1,1.4-0.2v1.8c-0.5,0.1-1,0.1-1.4,0.2C43.9,60.9,43.5,61,43,61z M29.5,49.2h7.1
						c-0.1-0.7-0.2-1.4-0.3-2.1c-0.1-0.7-0.1-1.4-0.1-2.1c0-0.7,0-1.4,0.1-2.1c0.1-0.7,0.2-1.4,0.3-2.1h-7.1
						c-0.2,0.7-0.4,1.4-0.5,2.1c-0.1,0.7-0.1,1.4-0.1,2.1c0,0.7,0,1.4,0.1,2.1C29.1,47.8,29.2,48.5,29.5,49.2z M30.2,39.1h6.8
						c0.3-1.5,0.8-2.9,1.4-4.2c0.6-1.4,1.4-2.6,2.4-3.8c-2.3,0.3-4.4,1.2-6.3,2.7C32.6,35.2,31.2,36.9,30.2,39.1z M40.7,59
						c-0.9-1.2-1.7-2.5-2.3-3.8c-0.6-1.4-1.1-2.8-1.5-4.2h-6.8c1,2.1,2.4,3.9,4.3,5.4C36.3,57.7,38.4,58.6,40.7,59z M38.8,39.1h8.4
						c-0.4-1.5-1-3-1.7-4.3S44,32.1,43,30.9c-1,1.2-1.8,2.5-2.6,3.9C39.7,36.1,39.2,37.6,38.8,39.1z M49,39.1h6.8
						c-1-2.2-2.4-4-4.3-5.4c-1.9-1.4-4-2.3-6.3-2.6c0.9,1.2,1.6,2.5,2.2,3.9S48.6,37.7,49,39.1z"/>
				</g>
			</g>
		</g>
	</g>
	<g>
		<path class="st3" d="M108.4,52.5l-6.6-16.3h2l5.6,14.2l5.6-14.2h2l-6.7,16.3H108.4z"/>
		<path class="st3" d="M119.6,52.5V36.2h1.9v16.3H119.6z"/>
		<path class="st3" d="M136.5,37.6l-0.8,1.8c-1.5-1-3.2-1.4-4.5-1.4c-2.1,0-3.5,0.8-3.5,2.2c0,4.2,9.2,2,9.2,7.9
			c0,2.7-2.4,4.5-5.9,4.5c-2.4,0-4.7-1-6.3-2.5l0.8-1.7c1.5,1.5,3.6,2.3,5.4,2.3c2.4,0,3.8-1,3.8-2.5c0-4.3-9.2-2-9.2-7.9
			c0-2.6,2.3-4.2,5.6-4.2C133.2,36.1,135.1,36.7,136.5,37.6z"/>
		<path class="st3" d="M140.7,52.5V36.2h1.9v16.3H140.7z"/>
		<path class="st3" d="M152.5,38v14.5h-1.9V38h-5.3v-1.8h12.5V38H152.5z"/>
		<path class="st3" d="M160.4,48.4l-1.8,4.1h-2l7.3-16.3h1.9l7.3,16.3h-2l-1.8-4.1H160.4z M164.9,38.3l-3.6,8.3h7.3L164.9,38.3z"/>
		<path class="st3" d="M184,38v5.4h8.2v1.8H184v5.6h9.5v1.8h-11.4V36.2h11.1V38H184z"/>
		<path class="st3" d="M203.9,36.2c4.8,0,8.4,3.5,8.4,8.2c0,4.6-3.7,8.2-8.5,8.2h-6.5V36.2H203.9z M199.2,50.7h4.8
			c3.6,0,6.5-2.7,6.5-6.4c0-3.7-2.9-6.4-6.6-6.4h-4.7V50.7z"/>
		<path class="st3" d="M227.4,52.5l-9.8-13.1v13.1h-1.9V36.2h1.9l9.8,13.1V36.2h1.8v16.3H227.4z"/>
		<path class="st3" d="M234.3,52.5V36.2h1.9v16.3H234.3z"/>
		<path class="st3" d="M246.1,38v14.5h-1.9V38h-5.3v-1.8h12.5V38H246.1z"/>
		<path class="st3" d="M254,48.4l-1.8,4.1h-2l7.3-16.3h1.9l7.3,16.3h-2l-1.8-4.1H254z M258.5,38.3l-3.6,8.3h7.3L258.5,38.3z"/>
		<path class="st3" d="M270.3,51.5c0,0.7-0.5,1.2-1.1,1.2c-0.7,0-1.1-0.5-1.1-1.2s0.5-1.2,1.1-1.2C269.8,50.3,270.3,50.8,270.3,51.5
			z"/>
		<path class="st3" d="M286.9,38.5l-1.1,1.4c-1.3-1.3-3-2.1-4.8-2.1c-3.7,0-6.6,2.8-6.6,6.4c0,3.6,3,6.4,6.6,6.4
			c1.8,0,3.5-0.7,4.8-2l1.1,1.3c-1.6,1.5-3.8,2.5-6.1,2.5c-4.7,0-8.4-3.7-8.4-8.3c0-4.6,3.8-8.2,8.5-8.2
			C283.2,36.1,285.4,37,286.9,38.5z"/>
		<path class="st3" d="M305.5,44.3c0,4.6-3.8,8.3-8.5,8.3c-4.8,0-8.6-3.7-8.6-8.3c0-4.6,3.8-8.2,8.6-8.2
			C301.7,36.1,305.5,39.7,305.5,44.3z M290.3,44.3c0,3.6,3,6.5,6.7,6.5s6.6-2.9,6.6-6.5s-3-6.4-6.6-6.4S290.3,40.7,290.3,44.3z"/>
		<path class="st3" d="M323.7,52.5l0-13.5l-5.9,11.7h-1.1L310.7,39v13.5h-1.8V36.2h2.3l6,11.8l5.9-11.8h2.3v16.3H323.7z"/>
	</g>
</g>
</svg>
