<?xml version="1.0" encoding="utf-8"?>
<!-- Generator: Adobe Illustrator 19.1.0, SVG Export Plug-In . SVG Version: 6.00 Build 0)  -->
<svg version="1.1" id="Layer_1" xmlns="http://www.w3.org/2000/svg" xmlns:xlink="http://www.w3.org/1999/xlink" x="0px" y="0px"
	 viewBox="0 0 28 28" style="enable-background:new 0 0 28 28;" xml:space="preserve">
<style type="text/css">
	.st0{fill:#FBFBFB;}
</style>
<g>
	<path class="st0" d="M2.7,2.5c0.1,0,0.2,0,0.3,0c2,0,4.1,0,6.1,0c0.2,0,0.3,0.1,0.4,0.2c1.9,2.7,3.7,5.4,5.6,8.1
		c0.1,0.2,0.2,0.2,0.3,0c2.3-2.7,4.7-5.5,7-8.2c0.1-0.1,0.1-0.1,0.2-0.1c0.6,0,1.2,0,1.9,0c-0.4,0.5-0.7,0.9-1.1,1.3
		c-2.4,2.8-4.8,5.5-7.2,8.3c-0.1,0.1-0.1,0.2,0,0.3c2.7,3.9,5.3,7.7,8,11.6c0.3,0.5,0.7,1,1.1,1.6c-0.1,0-0.2,0-0.2,0
		c-2.1,0-4.1,0-6.2,0c-0.2,0-0.3-0.1-0.4-0.2c-2-2.9-3.9-5.7-5.9-8.6c-0.2-0.3-0.2-0.3-0.4,0c-2.5,2.9-5,5.8-7.4,8.7
		c-0.1,0.1-0.1,0.1-0.2,0.1c-0.6,0-1.2,0-1.8,0c0.6-0.6,1.1-1.3,1.6-1.9c1.8-2.1,3.6-4.2,5.4-6.3c0.5-0.6,1-1.2,1.6-1.8
		c0.2-0.2,0.2-0.3,0-0.5C8.5,10.9,5.7,6.8,2.9,2.7C2.8,2.6,2.8,2.6,2.7,2.5z M22.3,23.9c0,0,0-0.1-0.1-0.1c-1.4-2-2.8-4-4.1-6
		c-3.1-4.5-6.2-9.1-9.4-13.6C8.6,4,8.5,4,8.4,4C7.5,4,6.7,4,5.8,4c-0.1,0-0.1,0-0.2,0c0,0,0,0.1,0.1,0.1c0.9,1.3,1.8,2.7,2.8,4
		c3.2,4.7,6.4,9.3,9.7,14c0.4,0.6,0.8,1.3,1.3,1.8c0,0,0.1,0,0.1,0c0.9,0,1.8,0,2.7,0c0,0,0.1,0,0.1,0C22.3,24,22.3,23.9,22.3,23.9z
		"/>
	<path d="M22.3,24c0,0,0-0.1,0-0.1C22.3,23.9,22.3,24,22.3,24C22.3,24,22.3,24,22.3,24z"/>
	<path d="M19.4,24c0,0,0.1,0,0.1,0C19.5,24,19.5,24,19.4,24z"/>
</g>
</svg>
