<?xml version="1.0" encoding="utf-8"?>
<!-- Generator: Adobe Illustrator 19.1.0, SVG Export Plug-In . SVG Version: 6.00 Build 0)  -->
<svg version="1.1" id="Layer_1" xmlns="http://www.w3.org/2000/svg" xmlns:xlink="http://www.w3.org/1999/xlink" x="0px" y="0px"
	 viewBox="0 0 273 70" style="enable-background:new 0 0 273 70;" xml:space="preserve">
<style type="text/css">
	.st0{fill:#8D0302;}
	.st1{fill:#FFFFFF;}
</style>
<g>
	<circle class="st0" cx="27.7" cy="35" r="25"/>
	<path class="st1" d="M40.2,28.7c-0.3-1.1-1.2-2-2.3-2.3c-2-0.5-10.2-0.5-10.2-0.5s-8.2,0-10.2,0.5c-1.1,0.3-2,1.2-2.3,2.3
		c-0.5,2-0.5,6.3-0.5,6.3s0,4.3,0.5,6.3c0.3,1.1,1.2,2,2.3,2.3c2,0.5,10.2,0.5,10.2,0.5s8.2,0,10.2-0.5c1.1-0.3,2-1.2,2.3-2.3
		c0.5-2,0.5-6.3,0.5-6.3S40.8,30.7,40.2,28.7z M25.1,38.9v-7.8l6.8,3.9L25.1,38.9z"/>
</g>
<g>
	<path class="st1" d="M86.1,42.5h-1.8V37L78,26.2h1.9l5.3,8.5l5.2-8.5h1.9l-6.2,10.7V42.5z"/>
	<path class="st1" d="M109.6,34.4c0,4.6-3.8,8.3-8.5,8.3c-4.8,0-8.6-3.7-8.6-8.3c0-4.6,3.8-8.2,8.6-8.2
		C105.8,26.2,109.6,29.8,109.6,34.4z M94.4,34.4c0,3.6,3,6.5,6.7,6.5s6.6-2.9,6.6-6.5s-3-6.4-6.6-6.4S94.4,30.8,94.4,34.4z"/>
	<path class="st1" d="M126.3,35.8c0,4.2-2.6,6.8-6.8,6.8c-4.3,0-6.9-2.6-6.9-6.8v-9.6h1.9v9.6c0,3.2,1.9,5,5,5s5-1.8,5-5v-9.6h1.9
		V35.8z"/>
	<path class="st1" d="M135.9,28v14.5H134V28h-5.3v-1.8h12.5V28H135.9z"/>
	<path class="st1" d="M157.3,35.8c0,4.2-2.6,6.8-6.8,6.8c-4.3,0-6.9-2.6-6.9-6.8v-9.6h1.9v9.6c0,3.2,1.9,5,5,5s5-1.8,5-5v-9.6h1.9
		V35.8z"/>
	<path class="st1" d="M168.7,26.2c3.3,0,5.3,1.5,5.3,4.1c0,1.9-1.1,3.3-3,3.7c2.4,0.3,3.7,1.9,3.7,4.1c0,2.8-2.2,4.4-5.9,4.4h-7
		V26.2H168.7z M163.7,33.2h4.9c2.2,0,3.5-1,3.5-2.7c0-1.7-1.3-2.6-3.5-2.6h-4.9V33.2z M163.7,40.8h4.9c2.7,0,4.2-1,4.2-2.9
		c0-1.8-1.5-2.8-4.2-2.8h-4.9V40.8z"/>
	<path class="st1" d="M180.4,28v5.4h8.2v1.8h-8.2v5.6h9.5v1.8h-11.4V26.2h11.1V28H180.4z"/>
</g>
</svg>
